<?xml version="1.0" standalone="no"?>
<!DOCTYPE svg PUBLIC "-//W3C//DTD SVG 1.1//EN" "http://www.w3.org/Graphics/SVG/1.1/DTD/svg11.dtd" >
<svg>
<metadata>
Created by FontForge 20120731 at Sat Jun 29 13:16:03 2019
 By www
</metadata>
<defs>
<font id="KozGoPro-Light-AlphaNum" horiz-adv-x="1000" vert-adv-y="1000" >
  <font-face 
    font-family="(null)"
    font-weight="200"
    font-stretch="normal"
    units-per-em="1000"
    panose-1="2 0 3 3 0 0 0 0 0 0"
    ascent="800"
    descent="-200"
    x-height="541"
    cap-height="759"
    bbox="16 -83 971 843"
    underline-thickness="50"
    underline-position="-100"
    stemh="35"
    stemv="46"
    unicode-range="U+2150-1F189"
  />
    <missing-glyph />
    <glyph glyph-name="Japan1.7555" unicode="&#x2460;" 
d="M962 380c0 -257 -209 -462 -462 -462c-255 0 -462 207 -462 462s207 462 462 462s462 -207 462 -462zM500 814c-242 0 -434 -196 -434 -434c0 -240 194 -434 434 -434s434 194 434 434s-194 434 -434 434zM486 123v469h-2l-82 -46l-10 39l94 52h48v-514h-48z" />
    <glyph glyph-name="Japan1.7556" unicode="&#x2461;" 
d="M962 380c0 -257 -209 -462 -462 -462c-255 0 -462 207 -462 462s207 462 462 462s462 -207 462 -462zM500 814c-242 0 -434 -196 -434 -434c0 -240 194 -434 434 -434s434 194 434 434s-194 434 -434 434zM672 130h-344v31l52 45c181 160 228 208 228 277
c0 51 -26 113 -123 113c-50 0 -96 -24 -124 -49l-17 33c43 38 96 58 151 58c127 0 162 -93 162 -143c0 -100 -72 -163 -225 -297l-33 -25v-2h273v-41z" />
    <glyph glyph-name="Japan1.7557" unicode="&#x2462;" 
d="M962 380c0 -257 -209 -462 -462 -462c-255 0 -462 207 -462 462s207 462 462 462s462 -207 462 -462zM500 814c-242 0 -434 -196 -434 -434c0 -240 194 -434 434 -434s434 194 434 434s-194 434 -434 434zM333 160l16 39c22 -15 73 -37 127 -37c124 0 140 84 140 109
c-2 85 -90 110 -165 110h-41v39h44c66 0 139 27 139 93c0 36 -24 84 -108 84c-45 0 -88 -18 -115 -38l-15 36c27 22 83 43 137 43c115 0 150 -66 150 -119c0 -51 -35 -95 -100 -116v-2c74 -14 124 -67 124 -130c0 -69 -56 -149 -194 -149c-64 0 -116 22 -139 38z" />
    <glyph glyph-name="Japan1.7558" unicode="&#x2463;" 
d="M962 380c0 -257 -209 -462 -462 -462c-255 0 -462 207 -462 462s207 462 462 462s462 -207 462 -462zM500 814c-242 0 -434 -196 -434 -434c0 -240 194 -434 434 -434s434 194 434 434s-194 434 -434 434zM598 123h-48v141h-277v32l284 341h41v-334h82v-39h-82v-141z
M322 303h228v225l1 50l-2 1c-10 -16 -21 -32 -31 -46l-196 -228v-2z" />
    <glyph glyph-name="Japan1.7559" unicode="&#x2464;" 
d="M962 380c0 -257 -209 -462 -462 -462c-255 0 -462 207 -462 462s207 462 462 462s462 -207 462 -462zM500 814c-242 0 -434 -196 -434 -434c0 -240 194 -434 434 -434s434 194 434 434s-194 434 -434 434zM655 630v-41h-213l-22 -148c16 3 33 6 57 6
c113 0 188 -62 188 -157c0 -99 -83 -168 -188 -168c-65 0 -113 21 -137 36l17 38c23 -15 67 -33 122 -33c78 0 136 56 136 117c0 71 -41 127 -156 127c-33 0 -64 -5 -85 -8l30 231h251z" />
    <glyph glyph-name="Japan1.7560" unicode="&#x2465;" 
d="M962 380c0 -257 -209 -462 -462 -462c-255 0 -462 207 -462 462s207 462 462 462s462 -207 462 -462zM500 814c-242 0 -434 -196 -434 -434c0 -240 194 -434 434 -434s434 194 434 434s-194 434 -434 434zM628 639v-45c-6 1 -13 1 -20 1c-144 0 -218 -80 -240 -205l3 2
c38 47 90 66 146 66c109 0 163 -81 163 -155c0 -90 -70 -181 -188 -181c-91 0 -174 61 -174 214c0 126 55 203 104 244c48 39 118 59 206 59zM502 160c84 0 130 76 130 142c0 61 -49 118 -124 118c-77 0 -142 -52 -142 -94c0 -58 23 -166 136 -166z" />
    <glyph glyph-name="Japan1.7561" unicode="&#x2466;" 
d="M962 380c0 -257 -209 -462 -462 -462c-255 0 -462 207 -462 462s207 462 462 462s462 -207 462 -462zM500 814c-242 0 -434 -196 -434 -434c0 -240 194 -434 434 -434s434 194 434 434s-194 434 -434 434zM334 630h334v-38l-257 -469h-49l257 464v2h-285v41z" />
    <glyph glyph-name="Japan1.7562" unicode="&#x2467;" 
d="M429 393v2c-70 26 -91 68 -91 111c0 76 70 132 168 132c94 0 157 -49 157 -122c0 -36 -15 -87 -97 -118v-3c82 -23 117 -71 117 -126c0 -97 -92 -147 -183 -147c-95 0 -183 46 -183 139c0 56 35 104 112 132zM504 601c-78 0 -119 -44 -119 -93c0 -54 43 -85 128 -99
c59 14 103 46 103 103c0 35 -26 89 -112 89zM365 268v-6c0 -52 49 -103 134 -103c93 0 136 55 136 102c0 72 -54 102 -151 118c-75 -16 -119 -55 -119 -111zM962 380c0 -257 -209 -462 -462 -462c-255 0 -462 207 -462 462s207 462 462 462s462 -207 462 -462zM500 814
c-242 0 -434 -196 -434 -434c0 -240 194 -434 434 -434s434 194 434 434s-194 434 -434 434z" />
    <glyph glyph-name="Japan1.7563" unicode="&#x2468;" 
d="M962 380c0 -257 -209 -462 -462 -462c-255 0 -462 207 -462 462s207 462 462 462s462 -207 462 -462zM500 814c-242 0 -434 -196 -434 -434c0 -240 194 -434 434 -434s434 194 434 434s-194 434 -434 434zM372 121v45c6 -1 12 -1 19 -1c147 0 220 84 239 205l-3 -2
c-36 -47 -90 -66 -145 -66c-110 0 -164 81 -164 155c0 90 72 181 189 181c91 0 173 -61 173 -214c0 -162 -92 -279 -226 -296c-34 -4 -62 -7 -82 -7zM496 600c-85 0 -129 -76 -129 -142c0 -61 48 -118 123 -118c62 0 142 39 142 94c0 79 -34 166 -136 166z" />
    <glyph glyph-name="Japan1.7564" unicode="&#x2469;" 
d="M962 379c0 -257 -209 -462 -462 -462c-255 0 -462 207 -462 462s207 462 462 462s462 -207 462 -462zM500 813c-242 0 -434 -196 -434 -434c0 -240 194 -434 434 -434s434 194 434 434s-194 434 -434 434zM616 138c-77 0 -139 80 -141 239c0 164 70 243 151 243
c87 0 141 -84 141 -235c0 -169 -62 -247 -151 -247zM619 175c82 0 102 109 102 207c0 119 -29 201 -100 201c-40 0 -101 -38 -101 -210c0 -124 39 -198 99 -198zM308 139v437h-1l-77 -44l-9 35l90 52h41v-480h-44z" />
    <glyph glyph-name="Japan1.7565" unicode="&#x246a;" 
d="M962 380c0 -257 -209 -462 -462 -462c-255 0 -462 207 -462 462s207 462 462 462s462 -207 462 -462zM500 814c-242 0 -434 -196 -434 -434c0 -240 194 -434 434 -434s434 194 434 434s-194 434 -434 434zM317 140v437h-2l-75 -44l-10 35l90 52h42v-480h-45zM661 140v437
h-2l-76 -44l-9 35l90 52h42v-480h-45z" />
    <glyph glyph-name="Japan1.7566" unicode="&#x246b;" 
d="M962 380c0 -257 -209 -462 -462 -462c-255 0 -462 207 -462 462s207 462 462 462s462 -207 462 -462zM500 814c-242 0 -434 -196 -434 -434c0 -240 194 -434 434 -434s434 194 434 434s-194 434 -434 434zM308 140v437h-1l-76 -44l-10 35l91 52h40v-480h-44zM753 146
h-274v28l44 47c116 125 173 186 173 263c0 50 -23 98 -94 98c-41 0 -75 -21 -94 -37l-14 32c29 26 70 44 117 44c99 0 130 -74 130 -129c0 -92 -65 -164 -172 -274l-32 -32v-2h216v-38z" />
    <glyph glyph-name="Japan1.7567" unicode="&#x246c;" 
d="M962 380c0 -257 -209 -462 -462 -462c-255 0 -462 207 -462 462s207 462 462 462s462 -207 462 -462zM500 814c-242 0 -434 -196 -434 -434c0 -240 194 -434 434 -434s434 194 434 434s-194 434 -434 434zM308 140v437h-1l-76 -44l-10 35l91 52h40v-480h-44zM478 169
l13 36c18 -12 57 -27 100 -27c92 0 116 61 116 99c-1 73 -65 102 -136 102h-28v37h28c53 0 118 28 118 89c0 42 -25 77 -89 77c-35 0 -68 -14 -89 -29l-14 34c23 17 66 34 110 34c91 0 127 -56 127 -109c0 -48 -31 -92 -87 -110v-1c59 -13 105 -57 105 -123
c0 -69 -52 -139 -164 -139c-48 0 -90 15 -110 30z" />
    <glyph glyph-name="Japan1.7568" unicode="&#x246d;" 
d="M962 380c0 -257 -209 -462 -462 -462c-255 0 -462 207 -462 462s207 462 462 462s462 -207 462 -462zM500 814c-242 0 -434 -196 -434 -434c0 -240 194 -434 434 -434s434 194 434 434s-194 434 -434 434zM704 140h-41v132h-214v30l218 317h37v-311h67v-36h-67v-132z
M490 308h173v192c0 22 1 43 2 64l-2 1c-14 -26 -23 -41 -35 -59l-138 -196v-2zM308 140v437h-1l-76 -44l-10 35l91 52h40v-480h-44z" />
    <glyph glyph-name="Japan1.7569" unicode="&#x246e;" 
d="M962 380c0 -257 -209 -462 -462 -462c-255 0 -462 207 -462 462s207 462 462 462s462 -207 462 -462zM500 814c-242 0 -434 -196 -434 -434c0 -240 194 -434 434 -434s434 194 434 434s-194 434 -434 434zM308 140v437h-1l-77 -44l-9 35l90 52h41v-480h-44zM735 614v-38
h-165l-20 -138c10 1 21 3 36 3c76 0 154 -48 154 -144c0 -93 -69 -158 -158 -158c-45 0 -85 14 -104 28l13 36c18 -12 52 -25 91 -25c65 0 113 47 113 112c-1 69 -44 114 -128 114c-25 0 -46 -2 -61 -4l30 214h199z" />
    <glyph glyph-name="Japan1.7570" unicode="&#x246f;" 
d="M962 380c0 -257 -209 -462 -462 -462c-255 0 -462 207 -462 462s207 462 462 462s462 -207 462 -462zM500 814c-242 0 -434 -196 -434 -434c0 -240 194 -434 434 -434s434 194 434 434s-194 434 -434 434zM729 622v-42c-56 4 -177 -15 -203 -190l3 1c26 35 63 54 110 54
c84 0 128 -66 128 -142c0 -83 -55 -164 -146 -164c-80 0 -141 68 -141 194c0 107 37 179 80 223c55 58 125 63 169 66zM626 175c59 0 97 51 97 130c0 62 -38 105 -94 105c-57 0 -104 -42 -104 -80c0 -92 33 -155 101 -155zM308 140v437h-1l-77 -44l-9 35l90 52h41v-480h-44z
" />
    <glyph glyph-name="Japan1.7571" unicode="&#x2470;" 
d="M962 380c0 -257 -209 -462 -462 -462c-255 0 -462 207 -462 462s207 462 462 462s462 -207 462 -462zM500 814c-242 0 -434 -196 -434 -434c0 -240 194 -434 434 -434s434 194 434 434s-194 434 -434 434zM308 140v437h-1l-77 -44l-9 35l90 52h41v-480h-44zM491 614h270
v-32l-203 -442h-43l200 434v2h-224v38z" />
    <glyph glyph-name="Japan1.7572" unicode="&#x2471;" 
d="M570 394l-1 2c-54 24 -76 65 -76 104c0 72 58 121 133 121c78 0 124 -52 124 -112c0 -37 -17 -82 -80 -111v-3c64 -25 95 -69 95 -123c0 -81 -69 -133 -145 -133c-82 0 -144 50 -144 125c0 59 36 103 94 130zM625 587c-61 0 -88 -42 -88 -83c0 -52 36 -80 94 -96
c45 16 77 49 77 97c0 38 -23 82 -83 82zM520 272v-6c0 -50 37 -93 100 -93s102 41 102 95c0 64 -43 93 -111 113c-59 -18 -91 -59 -91 -109zM962 380c0 -257 -209 -462 -462 -462c-255 0 -462 207 -462 462s207 462 462 462s462 -207 462 -462zM500 814
c-242 0 -434 -196 -434 -434c0 -240 194 -434 434 -434s434 194 434 434s-194 434 -434 434zM308 140v437h-1l-77 -44l-9 35l90 52h41v-480h-44z" />
    <glyph glyph-name="Japan1.7573" unicode="&#x2472;" 
d="M962 380c0 -257 -209 -462 -462 -462c-255 0 -462 207 -462 462s207 462 462 462s462 -207 462 -462zM500 814c-242 0 -434 -196 -434 -434c0 -240 194 -434 434 -434s434 194 434 434s-194 434 -434 434zM519 138v42c88 -7 184 46 203 190l-2 -1
c-27 -35 -64 -54 -111 -54c-84 0 -128 66 -128 142c0 83 55 164 146 164c81 0 141 -68 141 -194c0 -107 -37 -179 -80 -223c-55 -58 -124 -63 -169 -66zM623 585c-64 0 -98 -59 -98 -128c0 -63 37 -107 94 -107c61 0 104 44 104 80c0 92 -33 155 -100 155zM308 140v437h-1
l-77 -44l-9 35l90 52h41v-480h-44z" />
    <glyph glyph-name="Japan1.7574" unicode="&#x2473;" 
d="M962 380c0 -257 -209 -462 -462 -462c-255 0 -462 207 -462 462s207 462 462 462s462 -207 462 -462zM500 814c-242 0 -434 -196 -434 -434c0 -240 194 -434 434 -434s434 194 434 434s-194 434 -434 434zM671 139c-85 0 -128 105 -128 240c0 163 60 242 136 242
c77 0 126 -82 126 -238c0 -169 -56 -244 -134 -244zM674 177c70 0 86 113 86 204c0 116 -25 202 -85 202c-44 0 -86 -56 -86 -208c0 -118 30 -198 85 -198zM467 146h-244v29l42 50c82 102 147 180 147 264c0 52 -22 93 -81 93c-38 0 -65 -19 -80 -31l-12 33
c22 19 57 37 100 37c87 0 118 -66 118 -127c0 -95 -66 -175 -145 -269l-33 -39v-2h188v-38z" />
    <glyph glyph-name="Japan1.7575" unicode="&#x2160;" 
d="M470 769h59v-779h-59v779z" />
    <glyph glyph-name="Japan1.7576" unicode="&#x2161;" 
d="M325 769h57v-779h-57v779zM618 769h57v-779h-57v779z" />
    <glyph glyph-name="Japan1.7577" unicode="&#x2162;" 
d="M229 769h57v-779h-57v779zM471 769h57v-779h-57v779zM713 769h57v-779h-57v779z" />
    <glyph glyph-name="Japan1.7578" unicode="&#x2163;" 
d="M156 769h56v-779h-56v779zM625 -10h-60l-253 779h62l135 -430c38 -120 64 -207 87 -287h3c26 82 57 172 97 286l153 431h61z" />
    <glyph glyph-name="Japan1.7579" unicode="&#x2164;" 
d="M514 -10h-64l-275 779h63l149 -432c41 -120 70 -209 96 -290h3c27 82 63 176 108 289l168 433h63z" />
    <glyph glyph-name="Japan1.7580" unicode="&#x2165;" 
d="M402 -10h-60l-252 779h61l136 -430c37 -120 63 -207 87 -287h1c26 82 57 172 98 286l153 431h62zM788 769h57v-779h-57v779z" />
    <glyph glyph-name="Japan1.7581" unicode="&#x2166;" 
d="M369 -10h-58l-257 779h59l139 -429c36 -111 64 -201 88 -282h2c21 80 43 163 77 282l121 429h58zM660 769h55v-779h-55v779zM853 769h55v-779h-55v779z" />
    <glyph glyph-name="Japan1.7582" unicode="&#x2167;" 
d="M315 -10h-54l-224 779h56l120 -429c31 -110 54 -197 75 -278h2c17 82 35 161 65 278l104 429h55zM557 769h51v-779h-51v779zM713 769h50v-779h-50v779zM870 769h50v-779h-50v779z" />
    <glyph glyph-name="Japan1.7583" unicode="&#x2168;" 
d="M147 769h57v-779h-57v779zM888 -10h-66l-115 184c-53 87 -89 142 -111 182h-2c-23 -44 -50 -89 -103 -181l-107 -185h-65l246 401l-225 378h65l122 -209c34 -57 55 -96 76 -133h1c20 37 40 74 75 132l122 210h66l-235 -378z" />
    <glyph glyph-name="Japan1.7584" unicode="&#x2169;" 
d="M821 -10h-70l-136 185c-62 87 -99 143 -126 182h-2c-26 -43 -56 -89 -118 -181l-126 -186h-68l280 401l-256 378h69l139 -210c39 -58 66 -98 89 -134h2c23 37 48 74 88 133l140 211h70l-267 -378z" />
    <glyph glyph-name="Japan1.8061" unicode="&#x1f100;" 
d="M488 -13c-169 0 -260 151 -260 392c0 261 128 381 259 381c152 0 259 -115 259 -380s-107 -393 -258 -393zM485 35c149 0 198 168 198 341c0 193 -59 336 -196 336c-101 0 -196 -102 -196 -348c0 -192 73 -329 194 -329zM922 -8c-25 0 -40 17 -40 46c0 27 15 46 40 46
c28 0 40 -19 40 -46c0 -30 -12 -46 -40 -46z" />
    <glyph glyph-name="Japan1.8062" unicode="&#x2488;" 
d="M488 -11v705h-2l-147 -85l-20 45l177 104h52v-769h-60zM922 -8c-25 0 -40 17 -40 46c0 27 15 46 40 46c28 0 40 -19 40 -46c0 -30 -12 -46 -40 -46z" />
    <glyph glyph-name="Japan1.8063" unicode="&#x2489;" 
d="M307 609l-35 39c60 71 127 112 236 112c135 0 211 -95 211 -199c0 -164 -124 -267 -319 -447l-70 -61v-2h411v-51h-502v39l80 72c218 198 337 300 337 442c0 88 -61 155 -157 155c-79 0 -139 -39 -192 -99zM922 -8c-25 0 -40 17 -40 46c0 27 15 46 40 46
c28 0 40 -19 40 -46c0 -30 -12 -46 -40 -46z" />
    <glyph glyph-name="Japan1.8064" unicode="&#x248a;" 
d="M299 639l-25 43c43 43 127 78 213 78c145 0 209 -87 209 -175c0 -89 -50 -160 -161 -186v-2c104 -14 192 -73 192 -197c0 -89 -68 -213 -265 -213c-90 0 -163 25 -217 71l28 45c41 -36 106 -66 192 -66c146 0 198 98 198 166c0 132 -123 164 -239 164h-60v48h61
c105 0 209 58 209 160c0 73 -50 135 -153 135c-74 0 -145 -35 -182 -71zM922 -8c-25 0 -40 17 -40 46c0 27 15 46 40 46c28 0 40 -19 40 -46c0 -30 -12 -46 -40 -46z" />
    <glyph glyph-name="Japan1.8065" unicode="&#x248b;" 
d="M644 -11h-60v188h-383v40l380 541h63v-532h130v-49h-130v-188zM275 226h309v332c0 44 2 83 4 126h-5c-23 -41 -49 -82 -74 -119l-233 -336zM922 -8c-25 0 -40 17 -40 46c0 27 15 46 40 46c28 0 40 -19 40 -46c0 -30 -12 -46 -40 -46z" />
    <glyph glyph-name="Japan1.8066" unicode="&#x248c;" 
d="M303 409l47 338h356v-51h-311l-33 -232c18 2 52 7 84 7c222 0 273 -139 273 -234c0 -144 -106 -250 -279 -250c-78 0 -152 28 -185 54l23 49c33 -23 95 -54 167 -54c115 0 210 70 210 195c0 115 -72 192 -229 192c-50 0 -86 -6 -123 -14zM922 -8c-25 0 -40 17 -40 46
c0 27 15 46 40 46c28 0 40 -19 40 -46c0 -30 -12 -46 -40 -46z" />
    <glyph glyph-name="Japan1.8067" unicode="&#x248d;" 
d="M300 382h2c39 58 110 104 204 104c133 0 232 -94 232 -242c0 -139 -90 -257 -243 -257c-155 0 -258 124 -258 312c0 170 79 442 422 461l5 -54c-172 8 -337 -121 -364 -324zM489 439c-121 0 -190 -105 -190 -147c1 -162 76 -257 198 -257c104 0 177 75 177 203
c0 133 -76 201 -185 201zM922 -8c-25 0 -40 17 -40 46c0 27 15 46 40 46c28 0 40 -19 40 -46c0 -30 -12 -46 -40 -46z" />
    <glyph glyph-name="Japan1.8068" unicode="&#x248e;" 
d="M249 747h481v-45l-340 -702h-69l341 693v3h-413v51zM922 -8c-25 0 -40 17 -40 46c0 27 15 46 40 46c28 0 40 -19 40 -46c0 -30 -12 -46 -40 -46z" />
    <glyph glyph-name="Japan1.8069" unicode="&#x248f;" 
d="M391 393v3c-102 38 -136 102 -136 166c0 114 101 198 240 198c137 0 223 -80 223 -183c0 -57 -25 -134 -140 -179v-3c118 -36 171 -107 171 -191c0 -137 -129 -217 -262 -217c-140 0 -262 74 -262 204c0 89 55 162 166 202zM492 713c-121 0 -177 -72 -177 -140
c0 -85 59 -132 184 -156c89 21 160 74 160 158c0 58 -42 138 -167 138zM484 34c135 0 201 82 201 157c0 107 -75 154 -210 180c-120 -23 -187 -90 -187 -171c0 -84 69 -166 196 -166zM922 -8c-25 0 -40 17 -40 46c0 27 15 46 40 46c28 0 40 -19 40 -46
c0 -30 -12 -46 -40 -46z" />
    <glyph glyph-name="Japan1.8070" unicode="&#x2490;" 
d="M675 365h-2c-39 -58 -111 -105 -204 -105c-133 0 -232 95 -232 243c0 139 90 257 243 257c158 0 258 -128 258 -312c0 -163 -74 -442 -422 -461l-5 54c167 -8 336 117 364 324zM478 712c-104 0 -178 -75 -178 -203c0 -133 77 -201 186 -201c117 0 190 101 190 147
c-1 162 -76 257 -198 257zM922 -8c-25 0 -40 17 -40 46c0 27 15 46 40 46c28 0 40 -19 40 -46c0 -30 -12 -46 -40 -46z" />
    <glyph glyph-name="Japan1.8071" unicode="&#x2474;" 
d="M179 842v-5c-64 -84 -103 -228 -103 -457c0 -164 20 -348 103 -457v-5h-38c-60 81 -103 230 -103 462s43 381 103 462h38zM821 -82v5c64 84 103 228 103 457c0 164 -20 348 -103 457v5h38c60 -81 103 -230 103 -462s-43 -381 -103 -462h-38zM495 29v637h-3l-112 -66
l-12 42l132 79h46v-692h-51z" />
    <glyph glyph-name="Japan1.8072" unicode="&#x2475;" 
d="M179 842v-5c-64 -84 -103 -228 -103 -457c0 -164 20 -348 103 -457v-5h-38c-60 81 -103 230 -103 462s43 381 103 462h38zM821 -82v5c64 84 103 228 103 457c0 164 -20 348 -103 457v5h38c60 -81 103 -230 103 -462s-43 -381 -103 -462h-38zM693 39h-389v33l65 69
c164 172 253 275 253 396c0 78 -33 150 -139 150c-62 0 -108 -34 -134 -56l-20 38c39 35 96 64 164 64c135 0 183 -102 183 -187c0 -134 -91 -247 -245 -407l-51 -52v-2h313v-46z" />
    <glyph glyph-name="Japan1.8073" unicode="&#x2476;" 
d="M179 842v-5c-64 -84 -103 -228 -103 -457c0 -164 20 -348 103 -457v-5h-38c-60 81 -103 230 -103 462s43 381 103 462h38zM821 -82v5c64 84 103 228 103 457c0 164 -20 348 -103 457v5h38c60 -81 103 -230 103 -462s-43 -381 -103 -462h-38zM309 71l19 43
c25 -17 80 -41 141 -41c132 0 167 91 167 155c0 111 -96 158 -194 157h-40v44h41c73 0 165 43 165 137c0 64 -35 121 -127 121c-50 0 -96 -23 -125 -46l-20 40c32 26 91 52 153 52c126 0 174 -82 174 -159c0 -70 -43 -131 -123 -162v-3c83 -16 151 -81 151 -180
c0 -102 -73 -202 -227 -202c-66 0 -126 23 -155 44z" />
    <glyph glyph-name="Japan1.8074" unicode="&#x2477;" 
d="M622 29h-51v209h-304v35l309 458h46v-449h100v-44h-100v-209zM331 282h241v268c0 35 1 68 3 101h-2c-19 -35 -36 -64 -54 -92l-188 -275v-2zM179 842v-5c-64 -84 -103 -228 -103 -457c0 -164 20 -348 103 -457v-5h-38c-60 81 -103 230 -103 462s43 381 103 462h38z
M821 -82v5c64 84 103 228 103 457c0 164 -20 348 -103 457v5h38c60 -81 103 -230 103 -462s-43 -381 -103 -462h-38z" />
    <glyph glyph-name="Japan1.8075" unicode="&#x2478;" 
d="M179 842v-5c-64 -84 -103 -228 -103 -457c0 -164 20 -348 103 -457v-5h-38c-60 81 -103 230 -103 462s43 381 103 462h38zM821 -82v5c64 84 103 228 103 457c0 164 -20 348 -103 457v5h38c60 -81 103 -230 103 -462s-43 -381 -103 -462h-38zM680 721v-46h-240l-32 -213
c14 2 28 4 54 4c109 0 223 -68 223 -210c0 -136 -100 -229 -223 -229c-64 0 -119 20 -147 42l19 42c25 -16 73 -38 130 -38c93 0 168 69 167 175c-1 104 -62 174 -188 174c-38 0 -66 -3 -87 -7l43 306h281z" />
    <glyph glyph-name="Japan1.8076" unicode="&#x2479;" 
d="M651 733v-49c-162 9 -274 -109 -299 -294l2 1c41 51 95 81 164 81c118 0 185 -96 185 -206c0 -126 -82 -239 -208 -239c-116 0 -197 105 -197 283c0 275 157 393 268 414c34 7 63 10 85 9zM503 71c87 0 146 80 146 193c-1 104 -58 165 -142 165c-87 0 -155 -71 -155 -118
c0 -147 51 -240 151 -240zM179 842v-5c-64 -84 -103 -228 -103 -457c0 -164 20 -348 103 -457v-5h-38c-60 81 -103 230 -103 462s43 381 103 462h38zM821 -82v5c64 84 103 228 103 457c0 164 -20 348 -103 457v5h38c60 -81 103 -230 103 -462s-43 -381 -103 -462h-38z" />
    <glyph glyph-name="Japan1.8077" unicode="&#x247a;" 
d="M179 842v-5c-64 -84 -103 -228 -103 -457c0 -164 20 -348 103 -457v-5h-38c-60 81 -103 230 -103 462s43 381 103 462h38zM821 -82v5c64 84 103 228 103 457c0 164 -20 348 -103 457v5h38c60 -81 103 -230 103 -462s-43 -381 -103 -462h-38zM323 721h383v-37l-293 -655
h-56l290 643v3h-324v46z" />
    <glyph glyph-name="Japan1.8078" unicode="&#x247b;" 
d="M428 400v2c-81 36 -113 97 -113 155c0 104 84 176 192 176c115 0 180 -77 180 -164c0 -56 -25 -121 -118 -164v-4c94 -38 143 -102 143 -180c0 -117 -100 -194 -213 -194c-121 0 -211 76 -211 182c0 88 53 152 140 191zM506 691c-92 0 -138 -62 -138 -126
c-1 -81 57 -122 147 -145c70 24 120 71 120 145c0 60 -35 126 -129 126zM342 219v-6c0 -77 59 -143 157 -143c101 0 159 63 159 143c0 95 -64 138 -171 169c-93 -28 -145 -89 -145 -163zM179 842v-5c-64 -84 -103 -228 -103 -457c0 -164 20 -348 103 -457v-5h-38
c-60 81 -103 230 -103 462s43 381 103 462h38zM821 -82v5c64 84 103 228 103 457c0 164 -20 348 -103 457v5h38c60 -81 103 -230 103 -462s-43 -381 -103 -462h-38z" />
    <glyph glyph-name="Japan1.8079" unicode="&#x247c;" 
d="M349 27v49c162 -9 274 109 299 294l-2 -1c-41 -51 -95 -81 -164 -81c-118 0 -185 96 -185 206c0 126 82 239 208 239c116 0 197 -105 197 -283c0 -275 -157 -393 -268 -414c-34 -7 -63 -10 -85 -9zM497 689c-87 0 -146 -80 -146 -193c1 -104 58 -165 142 -165
c87 0 155 71 155 118c0 147 -51 240 -151 240zM179 842v-5c-64 -84 -103 -228 -103 -457c0 -164 20 -348 103 -457v-5h-38c-60 81 -103 230 -103 462s43 381 103 462h38zM821 -82v5c64 84 103 228 103 457c0 164 -20 348 -103 457v5h38c60 -81 103 -230 103 -462
s-43 -381 -103 -462h-38z" />
    <glyph glyph-name="Japan1.8080" unicode="&#x247d;" 
d="M637 715c91 0 148 -119 148 -333c0 -244 -73 -337 -160 -337c-88 0 -150 114 -150 334c0 234 71 336 162 336zM630 93c78 0 105 145 105 288c0 157 -32 286 -105 286c-72 0 -105 -129 -105 -286c0 -159 33 -288 105 -288zM179 842v-5c-64 -84 -103 -228 -103 -457
c0 -164 20 -348 103 -457v-5h-38c-60 81 -103 230 -103 462s43 381 103 462h38zM821 -82v5c64 84 103 228 103 457c0 164 -20 348 -103 457v5h38c60 -81 103 -230 103 -462s-43 -381 -103 -462h-38zM299 47v614h-2l-100 -62l-10 39l120 75h40v-666h-48z" />
    <glyph glyph-name="Japan1.8081" unicode="&#x247e;" 
d="M179 842v-5c-64 -84 -103 -228 -103 -457c0 -164 20 -348 103 -457v-5h-38c-60 81 -103 230 -103 462s43 381 103 462h38zM821 -82v5c64 84 103 228 103 457c0 164 -20 348 -103 457v5h38c60 -81 103 -230 103 -462s-43 -381 -103 -462h-38zM332 47v614h-2l-101 -62
l-9 39l120 75h40v-666h-48zM687 47v614h-2l-100 -62l-9 39l119 75h40v-666h-48z" />
    <glyph glyph-name="Japan1.8082" unicode="&#x247f;" 
d="M179 842v-5c-64 -84 -103 -228 -103 -457c0 -164 20 -348 103 -457v-5h-38c-60 81 -103 230 -103 462s43 381 103 462h38zM821 -82v5c64 84 103 228 103 457c0 164 -20 348 -103 457v5h38c60 -81 103 -230 103 -462s-43 -381 -103 -462h-38zM299 47v614h-2l-100 -62
l-10 39l120 75h40v-666h-48zM775 55h-295v32l49 71c81 118 180 247 180 381c0 79 -29 130 -98 130c-48 0 -79 -27 -93 -37l-14 38c21 19 60 45 116 45c92 0 141 -73 141 -174c0 -125 -83 -252 -176 -378l-43 -60v-2h233v-46z" />
    <glyph glyph-name="Japan1.8083" unicode="&#x2480;" 
d="M179 842v-5c-64 -84 -103 -228 -103 -457c0 -164 20 -348 103 -457v-5h-38c-60 81 -103 230 -103 462s43 381 103 462h38zM821 -82v5c64 84 103 228 103 457c0 164 -20 348 -103 457v5h38c60 -81 103 -230 103 -462s-43 -381 -103 -462h-38zM299 47v614h-2l-100 -62
l-10 39l120 75h40v-666h-48zM472 78l16 43c20 -13 56 -30 99 -30c85 0 126 63 126 146c0 147 -125 147 -166 147v43h20c51 0 127 41 127 130c0 71 -34 112 -96 112c-35 0 -64 -18 -86 -35l-15 40c23 21 65 41 112 41c90 0 138 -68 138 -149c0 -64 -37 -124 -102 -154v-2
c61 -15 120 -69 120 -173c0 -103 -63 -192 -180 -192c-42 0 -88 15 -113 33z" />
    <glyph glyph-name="Japan1.8084" unicode="&#x2481;" 
d="M731 55h-46v188h-220v35l220 435h46v-426h74v-44h-74v-188zM518 287h167v221c0 45 1 85 4 128h-3c-24 -54 -37 -81 -54 -119l-114 -228v-2zM179 842v-5c-64 -84 -103 -228 -103 -457c0 -164 20 -348 103 -457v-5h-38c-60 81 -103 230 -103 462s43 381 103 462h38z
M821 -82v5c64 84 103 228 103 457c0 164 -20 348 -103 457v5h38c60 -81 103 -230 103 -462s-43 -381 -103 -462h-38zM299 47v614h-2l-100 -62l-10 39l120 75h40v-666h-48z" />
    <glyph glyph-name="Japan1.8085" unicode="&#x2482;" 
d="M179 842v-5c-64 -84 -103 -228 -103 -457c0 -164 20 -348 103 -457v-5h-38c-60 81 -103 230 -103 462s43 381 103 462h38zM821 -82v5c64 84 103 228 103 457c0 164 -20 348 -103 457v5h38c60 -81 103 -230 103 -462s-43 -381 -103 -462h-38zM299 47v614h-2l-100 -62
l-10 39l120 75h40v-666h-48zM506 417l43 288h215v-46h-176l-30 -199c7 2 18 2 26 2c55 0 176 -38 176 -196c0 -134 -77 -221 -183 -221c-38 0 -80 11 -105 30l15 42c18 -11 53 -26 89 -26c70 0 132 58 132 168s-62 161 -149 161c-25 0 -41 -2 -53 -3z" />
    <glyph glyph-name="Japan1.8086" unicode="&#x2483;" 
d="M750 715v-49c-135 0 -206 -132 -222 -273h2c27 36 64 64 115 64c84 0 139 -78 139 -192c0 -120 -61 -220 -154 -220c-102 0 -153 116 -153 261c0 276 142 409 273 409zM635 88c41 0 99 36 99 176c0 107 -44 151 -101 151c-68 0 -105 -72 -105 -97
c0 -159 44 -230 107 -230zM179 842v-5c-64 -84 -103 -228 -103 -457c0 -164 20 -348 103 -457v-5h-38c-60 81 -103 230 -103 462s43 381 103 462h38zM821 -82v5c64 84 103 228 103 457c0 164 -20 348 -103 457v5h38c60 -81 103 -230 103 -462s-43 -381 -103 -462h-38z
M299 47v614h-2l-100 -62l-10 39l120 75h40v-666h-48z" />
    <glyph glyph-name="Japan1.8087" unicode="&#x2484;" 
d="M179 842v-5c-64 -84 -103 -228 -103 -457c0 -164 20 -348 103 -457v-5h-38c-60 81 -103 230 -103 462s43 381 103 462h38zM821 -82v5c64 84 103 228 103 457c0 164 -20 348 -103 457v5h38c60 -81 103 -230 103 -462s-43 -381 -103 -462h-38zM299 47v614h-2l-100 -62
l-10 39l120 75h40v-666h-48zM485 705h293v-29l-214 -621h-48l206 602v2h-237v46z" />
    <glyph glyph-name="Japan1.8088" unicode="&#x2485;" 
d="M584 403v2c-62 37 -95 94 -95 150c0 98 69 160 147 160c94 0 138 -80 138 -151c0 -58 -28 -116 -98 -159v-3c72 -43 116 -102 116 -179c0 -99 -70 -178 -165 -178c-103 0 -161 83 -161 166c0 92 57 154 118 192zM635 674c-62 0 -97 -50 -97 -113c0 -76 49 -112 103 -139
c52 31 85 76 85 136c0 66 -31 116 -91 116zM628 86c68 0 114 47 114 132s-50 128 -119 165c-53 -28 -107 -83 -107 -164c0 -79 42 -133 112 -133zM179 842v-5c-64 -84 -103 -228 -103 -457c0 -164 20 -348 103 -457v-5h-38c-60 81 -103 230 -103 462s43 381 103 462h38z
M821 -82v5c64 84 103 228 103 457c0 164 -20 348 -103 457v5h38c60 -81 103 -230 103 -462s-43 -381 -103 -462h-38zM299 47v614h-2l-100 -62l-10 39l120 75h40v-666h-48z" />
    <glyph glyph-name="Japan1.8089" unicode="&#x2486;" 
d="M514 45v49c127 0 205 122 222 273h-2c-27 -36 -64 -64 -116 -64c-83 0 -139 78 -139 192c0 120 62 220 155 220c102 0 153 -116 153 -261c0 -273 -142 -409 -273 -409zM629 672c-56 0 -100 -63 -100 -172c0 -110 44 -155 102 -155c65 0 105 70 105 97
c0 159 -44 230 -107 230zM179 842v-5c-64 -84 -103 -228 -103 -457c0 -164 20 -348 103 -457v-5h-38c-60 81 -103 230 -103 462s43 381 103 462h38zM821 -82v5c64 84 103 228 103 457c0 164 -20 348 -103 457v5h38c60 -81 103 -230 103 -462s-43 -381 -103 -462h-38zM299 47
v614h-2l-100 -62l-10 39l120 75h40v-666h-48z" />
    <glyph glyph-name="Japan1.8090" unicode="&#x2487;" 
d="M657 45c-84 0 -139 114 -139 335c0 236 64 335 149 335c78 0 138 -105 138 -335c0 -246 -71 -335 -148 -335zM661 92c72 0 96 148 96 288c0 156 -29 288 -96 288c-68 0 -95 -132 -95 -288s28 -288 95 -288zM179 842v-5c-64 -84 -103 -228 -103 -457
c0 -164 20 -348 103 -457v-5h-38c-60 81 -103 230 -103 462s43 381 103 462h38zM821 -82v5c64 84 103 228 103 457c0 164 -20 348 -103 457v5h38c60 -81 103 -230 103 -462s-43 -381 -103 -462h-38zM455 55h-266v30l45 73c61 98 160 244 160 385c0 82 -33 127 -89 127
c-47 0 -72 -26 -82 -33l-13 38c14 14 49 40 103 40c82 0 131 -65 131 -172c0 -122 -69 -243 -153 -375l-41 -66v-2h205v-45z" />
    <glyph glyph-name="Japan1.8091" unicode="&#x3251;" 
d="M962 380c0 -257 -209 -462 -462 -462c-255 0 -462 207 -462 462s207 462 462 462s462 -207 462 -462zM500 814c-242 0 -434 -196 -434 -434c0 -240 194 -434 434 -434s434 194 434 434s-194 434 -434 434zM467 146h-244v29l42 50c82 102 147 180 147 264
c0 52 -22 93 -81 93c-38 0 -65 -19 -80 -31l-12 33c22 19 57 37 100 37c87 0 118 -66 118 -127c0 -95 -66 -175 -145 -269l-33 -39v-2h188v-38zM675 140v435h-1l-76 -45l-10 35l92 55h40v-480h-45z" />
    <glyph glyph-name="Japan1.8092" unicode="&#x2170;" 
d="M499 662c-30 0 -47 28 -47 51c0 27 21 52 49 52c27 0 47 -24 47 -52c0 -25 -20 -51 -49 -51zM529 -10h-59v561h59v-561z" />
    <glyph glyph-name="Japan1.8093" unicode="&#x2171;" 
d="M351 663c-29 0 -46 28 -46 51c0 26 21 51 48 51s47 -24 47 -51c0 -25 -20 -51 -49 -51zM648 663c-30 0 -47 28 -47 51c0 26 21 51 48 51s47 -24 47 -51c0 -25 -19 -51 -48 -51zM381 -10h-58v561h58v-561zM677 -10h-58v561h58v-561z" />
    <glyph glyph-name="Japan1.8094" unicode="&#x2172;" 
d="M291 664c-29 0 -47 27 -47 50c0 26 21 51 49 51c26 0 46 -24 46 -51c0 -25 -19 -50 -48 -50zM499 664c-29 0 -46 27 -46 50c0 26 21 51 48 51c26 0 46 -24 46 -51c0 -25 -19 -50 -48 -50zM707 664c-29 0 -46 27 -46 50c0 26 21 51 48 51c26 0 47 -24 47 -51
c0 -25 -20 -50 -49 -50zM320 -10h-57v561h57v-561zM528 -10h-57v561h57v-561zM736 -10h-57v561h57v-561z" />
    <glyph glyph-name="Japan1.8095" unicode="&#x2173;" 
d="M226 664c-32 0 -48 29 -48 50c0 26 22 51 48 51c27 0 47 -24 47 -51c0 -25 -20 -50 -47 -50zM254 -10h-57v561h57v-561zM356 551h63l130 -334c24 -63 40 -109 59 -159h1c18 47 37 98 63 159l132 334h62l-236 -561h-47z" />
    <glyph glyph-name="Japan1.8096" unicode="&#x2174;" 
d="M226 551h65l142 -341c26 -64 45 -111 63 -163h3c19 49 39 100 67 163l146 341h63l-256 -561h-48z" />
    <glyph glyph-name="Japan1.8097" unicode="&#x2175;" 
d="M776 664c-33 0 -49 29 -49 50c0 27 20 51 47 51c26 0 48 -25 48 -51c0 -25 -20 -50 -46 -50zM134 551h63l129 -334c24 -63 41 -109 59 -159h2c17 47 37 98 63 159l132 334h62l-236 -561h-47zM803 -10h-57v561h57v-561z" />
    <glyph glyph-name="Japan1.8098" unicode="&#x2176;" 
d="M672 666c-31 0 -48 26 -48 49c0 27 20 49 46 49c25 0 47 -23 47 -49c0 -25 -19 -49 -45 -49zM852 666c-35 0 -49 28 -49 49c0 27 20 49 46 49s47 -23 47 -49c0 -25 -19 -49 -44 -49zM96 551h62l122 -334c24 -64 40 -110 57 -160h1c18 47 36 98 60 160l128 334h60
l-226 -561h-48zM698 -10h-55v561h55v-561zM877 -10h-55v561h55v-561z" />
    <glyph glyph-name="Japan1.8099" unicode="&#x2177;" 
d="M590 667c-30 0 -46 27 -46 49c0 26 19 49 43 49c25 0 44 -24 44 -49c0 -24 -17 -49 -41 -49zM734 667c-29 0 -45 27 -45 49c0 26 19 49 43 49c25 0 44 -24 44 -49c0 -24 -18 -49 -42 -49zM879 667c-29 0 -45 27 -45 49c0 26 19 49 43 49s44 -24 44 -49
c0 -24 -18 -49 -42 -49zM80 551h54l109 -334c20 -64 34 -110 49 -160h1c15 48 31 98 53 160l112 334h53l-199 -561h-42zM613 -10h-50v561h50v-561zM758 -10h-50v561h50v-561zM903 -10h-50v561h50v-561z" />
    <glyph glyph-name="Japan1.8100" unicode="&#x2178;" 
d="M235 664c-32 0 -49 27 -49 50c0 27 20 51 46 51c27 0 48 -25 48 -51c0 -25 -18 -50 -45 -50zM262 -10h-57v561h57v-561zM381 551h63l98 -139c25 -35 43 -62 64 -94h4c21 32 42 63 66 98l95 135h59l-191 -269l208 -292h-64l-102 143c-27 39 -54 76 -77 111h-2
c-25 -36 -46 -67 -76 -107l-106 -147h-62l215 290z" />
    <glyph glyph-name="Japan1.8101" unicode="&#x2179;" 
d="M256 551h69l108 -139c27 -35 48 -63 71 -94h2c22 30 47 64 73 98l106 135h66l-215 -268l232 -293h-69l-113 143c-30 39 -58 76 -84 111h-3c-27 -36 -50 -67 -83 -108l-118 -146h-68l239 290z" />
    <glyph glyph-name="Japan1.8102" unicode="&#x3252;" 
d="M962 380c0 -257 -209 -462 -462 -462c-255 0 -462 207 -462 462s207 462 462 462s462 -207 462 -462zM500 814c-242 0 -434 -196 -434 -434c0 -240 194 -434 434 -434s434 194 434 434s-194 434 -434 434zM466 146h-243v29l42 50c82 102 146 180 146 264
c0 52 -21 93 -81 93c-37 0 -64 -19 -80 -31l-12 33c22 19 57 37 101 37c87 0 117 -66 117 -127c0 -95 -65 -175 -144 -269l-34 -39v-2h188v-38zM794 146h-243v29l41 50c82 102 146 180 146 264c0 52 -21 93 -81 93c-37 0 -64 -19 -79 -31l-12 33c21 19 56 37 100 37
c87 0 117 -66 117 -127c0 -95 -65 -175 -144 -269l-33 -39v-2h188v-38z" />
    <glyph glyph-name="Japan1.8103" unicode="&#x3253;" 
d="M962 380c0 -257 -209 -462 -462 -462c-255 0 -462 207 -462 462s207 462 462 462s462 -207 462 -462zM500 814c-242 0 -434 -196 -434 -434c0 -240 194 -434 434 -434s434 194 434 434s-194 434 -434 434zM466 146h-243v29l42 50c82 102 146 180 146 264
c0 52 -21 93 -81 93c-37 0 -64 -19 -80 -31l-12 33c22 19 57 37 101 37c87 0 117 -66 117 -127c0 -95 -65 -175 -144 -269l-34 -39v-2h188v-38zM541 164l14 36c17 -10 50 -22 87 -22c75 0 105 47 105 96c0 104 -101 104 -144 104v37h22c44 0 107 27 107 91
c0 45 -27 76 -81 76c-31 0 -58 -12 -77 -25l-13 34c20 15 58 30 98 30c81 0 118 -51 118 -108c0 -49 -28 -93 -82 -111v-2c53 -11 98 -52 98 -123s-51 -138 -153 -138c-39 0 -78 12 -99 25z" />
    <glyph glyph-name="Japan1.8104" unicode="&#x3254;" 
d="M962 380c0 -257 -209 -462 -462 -462c-255 0 -462 207 -462 462s207 462 462 462s462 -207 462 -462zM500 814c-242 0 -434 -196 -434 -434c0 -240 194 -434 434 -434s434 194 434 434s-194 434 -434 434zM748 140h-42v132h-186v31l186 317h42v-311h58v-37h-58v-132z
M562 309h144v180c0 27 2 54 4 80h-3c-14 -33 -24 -51 -37 -75l-108 -184v-1zM467 146h-244v29l42 50c82 102 147 180 147 264c0 52 -22 93 -81 93c-38 0 -65 -19 -80 -31l-12 33c22 19 57 37 100 37c87 0 118 -66 118 -127c0 -95 -66 -175 -145 -269l-33 -39v-2h188v-38z
" />
    <glyph glyph-name="Japan1.8105" unicode="&#x3255;" 
d="M962 380c0 -257 -209 -462 -462 -462c-255 0 -462 207 -462 462s207 462 462 462s462 -207 462 -462zM500 814c-242 0 -434 -196 -434 -434c0 -240 194 -434 434 -434s434 194 434 434s-194 434 -434 434zM467 146h-244v29l42 50c82 102 147 180 147 264
c0 52 -22 93 -81 93c-38 0 -65 -19 -80 -31l-12 33c22 19 57 37 100 37c87 0 118 -66 118 -127c0 -95 -66 -175 -145 -269l-33 -39v-2h188v-38zM781 614v-38h-146l-21 -138c9 2 16 2 28 2c66 0 140 -49 140 -143c0 -93 -64 -158 -147 -158c-37 0 -72 11 -91 25l13 35
c16 -10 45 -21 78 -21c56 0 102 42 102 110c0 93 -65 115 -118 115c-20 0 -37 -1 -48 -3l29 214h181z" />
    <glyph glyph-name="Japan1.8106" unicode="&#x3256;" 
d="M962 380c0 -257 -209 -462 -462 -462c-255 0 -462 207 -462 462s207 462 462 462s462 -207 462 -462zM500 814c-242 0 -434 -196 -434 -434c0 -240 194 -434 434 -434s434 194 434 434s-194 434 -434 434zM768 621v-41c-78 6 -162 -51 -179 -189h2c22 29 53 49 94 49
c71 0 115 -61 115 -140c0 -84 -50 -161 -132 -161c-77 0 -125 75 -125 191c0 203 119 298 225 291zM756 296c0 73 -36 108 -82 108c-43 0 -87 -32 -87 -78c0 -98 32 -151 86 -151c50 0 83 46 83 121zM467 146h-244v29l42 50c82 102 147 180 147 264c0 52 -22 93 -81 93
c-38 0 -65 -19 -80 -31l-12 33c22 19 57 37 100 37c87 0 118 -66 118 -127c0 -95 -66 -175 -145 -269l-33 -39v-2h188v-38z" />
    <glyph glyph-name="Japan1.8107" unicode="&#x3257;" 
d="M962 380c0 -257 -209 -462 -462 -462c-255 0 -462 207 -462 462s207 462 462 462s462 -207 462 -462zM500 814c-242 0 -434 -196 -434 -434c0 -240 194 -434 434 -434s434 194 434 434s-194 434 -434 434zM466 146h-243v29l42 50c82 102 146 180 146 264
c0 52 -21 93 -81 93c-37 0 -64 -19 -80 -31l-12 33c22 19 57 37 101 37c87 0 117 -66 117 -127c0 -95 -65 -175 -144 -269l-34 -39v-2h188v-38zM548 614h243v-29l-179 -445h-42l175 434v2h-197v38z" />
    <glyph glyph-name="Japan1.8108" unicode="&#x3258;" 
d="M620 395v1c-50 26 -74 67 -74 107c0 71 57 117 126 117c77 0 117 -54 117 -110c0 -39 -19 -82 -76 -112v-2c58 -28 91 -72 91 -127c0 -76 -62 -130 -138 -130c-83 0 -137 56 -137 121c0 64 41 107 91 135zM670 587c-55 0 -82 -39 -82 -81c0 -52 37 -78 88 -96
c43 19 71 51 71 95s-23 82 -77 82zM666 173c62 0 95 39 95 93c0 60 -42 92 -102 114c-39 -16 -87 -51 -87 -112c0 -54 34 -95 94 -95zM962 380c0 -257 -209 -462 -462 -462c-255 0 -462 207 -462 462s207 462 462 462s462 -207 462 -462zM500 814
c-242 0 -434 -196 -434 -434c0 -240 194 -434 434 -434s434 194 434 434s-194 434 -434 434zM466 146h-243v29l42 50c82 102 146 180 146 264c0 52 -21 93 -81 93c-37 0 -64 -19 -80 -31l-12 33c22 19 57 37 101 37c87 0 117 -66 117 -127c0 -95 -65 -175 -144 -269l-34 -39
v-2h188v-38z" />
    <glyph glyph-name="Japan1.8109" unicode="&#x3259;" 
d="M962 380c0 -257 -209 -462 -462 -462c-255 0 -462 207 -462 462s207 462 462 462s462 -207 462 -462zM500 814c-242 0 -434 -196 -434 -434c0 -240 194 -434 434 -434s434 194 434 434s-194 434 -434 434zM580 139v41c66 -5 160 37 179 189h-2c-22 -29 -53 -49 -94 -49
c-71 0 -115 61 -115 140c0 84 50 161 132 161c78 0 126 -75 126 -191c0 -196 -115 -298 -226 -291zM592 464c0 -73 36 -108 82 -108c43 0 87 32 87 78c0 98 -32 151 -86 151c-50 0 -83 -46 -83 -121zM467 146h-244v29l42 50c82 102 147 180 147 264c0 52 -22 93 -81 93
c-38 0 -65 -19 -80 -31l-12 33c22 19 57 37 100 37c87 0 118 -66 118 -127c0 -95 -66 -175 -145 -269l-33 -39v-2h188v-38z" />
    <glyph glyph-name="Japan1.8110" unicode="&#x325a;" 
d="M962 380c0 -257 -209 -462 -462 -462c-255 0 -462 207 -462 462s207 462 462 462s462 -207 462 -462zM500 814c-242 0 -434 -196 -434 -434c0 -240 194 -434 434 -434s434 194 434 434s-194 434 -434 434zM671 139c-86 0 -128 107 -128 239c0 164 60 243 136 243
c79 0 126 -84 126 -238c0 -171 -57 -244 -134 -244zM674 177c76 0 86 128 86 204c0 116 -25 202 -85 202c-42 0 -86 -48 -86 -208c0 -119 30 -198 85 -198zM218 164l13 36c17 -10 50 -22 86 -22c76 0 104 49 104 98c-1 69 -56 102 -121 102h-21v37h21c43 0 105 27 105 91
c0 45 -27 76 -79 76c-30 0 -58 -12 -76 -25l-13 34c21 15 58 30 97 30c80 0 116 -51 116 -108c0 -49 -27 -93 -81 -111v-2c52 -11 98 -52 98 -123s-51 -138 -152 -138c-39 0 -77 12 -97 25z" />
    <glyph glyph-name="Japan1.8111" unicode="&#x325b;" 
d="M962 380c0 -257 -209 -462 -462 -462c-255 0 -462 207 -462 462s207 462 462 462s462 -207 462 -462zM500 814c-242 0 -434 -196 -434 -434c0 -240 194 -434 434 -434s434 194 434 434s-194 434 -434 434zM223 164l12 36c17 -10 49 -22 86 -22c75 0 104 49 104 98
c-1 69 -56 102 -121 102h-21v37h21c43 0 105 27 105 91c0 45 -26 76 -80 76c-29 0 -56 -12 -75 -25l-13 34c20 15 57 30 97 30c80 0 116 -51 116 -108c0 -49 -28 -93 -81 -111v-2c52 -11 98 -52 98 -123s-51 -138 -152 -138c-38 0 -77 12 -96 25zM675 140v435h-1l-76 -45
l-10 35l92 55h40v-480h-45z" />
    <glyph glyph-name="Japan1.8112" unicode="&#x249c;" 
d="M676 414v-192c0 -39 2 -89 9 -127h-51l-7 82h-2c-24 -46 -79 -84 -159 -84c-98 0 -144 70 -144 138c0 117 100 184 300 184c0 39 0 157 -124 157c-44 0 -90 -15 -125 -40l-16 39c46 31 103 43 148 43c150 0 171 -111 171 -200zM623 262v113c-105 0 -249 -24 -249 -134
c0 -73 48 -106 98 -106c81 0 129 47 148 97c3 11 3 21 3 30zM179 842v-5c-64 -84 -103 -228 -103 -457c0 -164 20 -348 103 -457v-5h-38c-60 81 -103 230 -103 462s43 381 103 462h38zM821 -82v5c64 84 103 228 103 457c0 164 -20 348 -103 457v5h38
c60 -81 103 -230 103 -462s-43 -381 -103 -462h-38z" />
    <glyph glyph-name="Japan1.8113" unicode="&#x249d;" 
d="M327 132v617h53v-310h2c30 61 85 92 146 92c102 0 173 -96 173 -257c0 -183 -91 -265 -183 -265c-70 0 -113 32 -140 90h-3l-4 -88h-48c2 30 4 90 4 121zM380 326v-122c0 -46 37 -150 130 -150c90 0 138 99 138 219c0 112 -45 213 -137 213c-73 0 -131 -79 -131 -160z
M178 842v-5c-64 -84 -103 -228 -103 -457c0 -164 20 -348 103 -457v-5h-37c-60 81 -103 230 -103 462s43 381 103 462h37zM822 -82v5c64 84 103 228 103 457c0 164 -20 348 -103 457v5h37c60 -81 103 -230 103 -462s-43 -381 -103 -462h-37z" />
    <glyph glyph-name="Japan1.8114" unicode="&#x249e;" 
d="M178 842v-5c-64 -84 -103 -228 -103 -457c0 -164 20 -348 103 -457v-5h-37c-60 81 -103 230 -103 462s43 381 103 462h37zM822 -82v5c64 84 103 228 103 457c0 164 -20 348 -103 457v5h37c60 -81 103 -230 103 -462s-43 -381 -103 -462h-37zM658 165l15 -43
c-20 -11 -67 -29 -129 -29c-135 0 -225 101 -225 255c0 156 99 266 241 266c53 0 98 -15 115 -27l-17 -43c-21 12 -55 26 -103 26c-117 0 -183 -107 -183 -218c0 -131 74 -215 179 -215c49 0 84 15 107 28z" />
    <glyph glyph-name="Japan1.8115" unicode="&#x249f;" 
d="M619 749h53v-617c0 -31 2 -90 4 -121h-47l-4 89h-3c-23 -46 -67 -91 -142 -91c-102 0 -177 95 -177 255c0 174 84 266 185 266c62 0 105 -34 129 -76h2v295zM619 208v120c0 99 -61 158 -125 158c-89 0 -138 -98 -138 -219c0 -111 43 -213 134 -213c80 0 129 81 129 154z
M178 842v-5c-64 -84 -103 -228 -103 -457c0 -164 20 -348 103 -457v-5h-37c-60 81 -103 230 -103 462s43 381 103 462h37zM822 -82v5c64 84 103 228 103 457c0 164 -20 348 -103 457v5h37c60 -81 103 -230 103 -462s-43 -381 -103 -462h-37z" />
    <glyph glyph-name="Japan1.8116" unicode="&#x24a0;" 
d="M694 357h-338c-6 -152 81 -221 174 -221c66 0 100 16 126 30l12 -42c-23 -13 -68 -31 -146 -31c-137 0 -219 105 -219 250c0 171 93 271 211 271c149 0 181 -140 181 -224c0 -16 0 -24 -1 -33zM356 398h288c2 79 -32 174 -136 174c-95 0 -144 -94 -152 -174zM178 842v-5
c-64 -84 -103 -228 -103 -457c0 -164 20 -348 103 -457v-5h-37c-60 81 -103 230 -103 462s43 381 103 462h37zM822 -82v5c64 84 103 228 103 457c0 164 -20 348 -103 457v5h37c60 -81 103 -230 103 -462s-43 -381 -103 -462h-37z" />
    <glyph glyph-name="Japan1.8117" unicode="&#x24a1;" 
d="M178 842v-5c-64 -84 -103 -228 -103 -457c0 -164 20 -348 103 -457v-5h-37c-60 81 -103 230 -103 462s43 381 103 462h37zM822 -82v5c64 84 103 228 103 457c0 164 -20 348 -103 457v5h37c60 -81 103 -230 103 -462s-43 -381 -103 -462h-37zM483 11h-53v445h-75v42h75
c0 68 0 152 57 208c30 27 71 44 118 44c35 0 67 -10 82 -19l-16 -41c-15 8 -36 16 -67 16c-121 0 -121 -136 -121 -208h143v-42h-143v-445z" />
    <glyph glyph-name="Japan1.8118" unicode="&#x24a2;" 
d="M674 506v-294c0 -116 -5 -282 -203 -282c-48 0 -99 13 -130 35l16 43c28 -19 68 -34 120 -34c82 0 143 53 143 186v67h-2c-23 -47 -66 -79 -136 -79c-108 0 -178 101 -178 247c0 183 98 262 188 262c78 0 115 -46 132 -82h2l2 81h49c-1 -35 -3 -86 -3 -150zM620 341v127
c0 79 -55 144 -123 144c-84 0 -140 -88 -140 -213s54 -208 138 -208c62 0 125 58 125 150zM178 842v-5c-64 -84 -103 -228 -103 -457c0 -164 20 -348 103 -457v-5h-37c-60 81 -103 230 -103 462s43 381 103 462h37zM822 -82v5c64 84 103 228 103 457c0 164 -20 348 -103 457
v5h37c60 -81 103 -230 103 -462s-43 -381 -103 -462h-37z" />
    <glyph glyph-name="Japan1.8119" unicode="&#x24a3;" 
d="M178 842v-5c-64 -84 -103 -228 -103 -457c0 -164 20 -348 103 -457v-5h-37c-60 81 -103 230 -103 462s43 381 103 462h37zM822 -82v5c64 84 103 228 103 457c0 164 -20 348 -103 457v5h37c60 -81 103 -230 103 -462s-43 -381 -103 -462h-37zM326 11v738h54v-309h2
c24 46 79 91 150 91c48 0 152 -30 152 -199v-321h-54v317c0 81 -28 158 -115 158c-55 0 -135 -46 -135 -154v-321h-54z" />
    <glyph glyph-name="Japan1.8120" unicode="&#x24a4;" 
d="M178 842v-5c-64 -84 -103 -228 -103 -457c0 -164 20 -348 103 -457v-5h-37c-60 81 -103 230 -103 462s43 381 103 462h37zM822 -82v5c64 84 103 228 103 457c0 164 -20 348 -103 457v5h37c60 -81 103 -230 103 -462s-43 -381 -103 -462h-37zM499 639c-27 0 -42 25 -42 47
c0 26 20 48 43 48s43 -21 43 -48c0 -24 -19 -47 -44 -47zM526 25h-53v519h53v-519z" />
    <glyph glyph-name="Japan1.8121" unicode="&#x24a5;" 
d="M178 842v-5c-64 -84 -103 -228 -103 -457c0 -164 20 -348 103 -457v-5h-37c-60 81 -103 230 -103 462s43 381 103 462h37zM822 -82v5c64 84 103 228 103 457c0 164 -20 348 -103 457v5h37c60 -81 103 -230 103 -462s-43 -381 -103 -462h-37zM513 666c-26 0 -42 25 -42 47
c0 26 20 48 44 48c23 0 42 -21 42 -48c0 -24 -19 -47 -44 -47zM346 -59l-6 42c42 1 83 16 107 41c29 30 40 68 40 202v338h53v-372c0 -82 0 -246 -194 -251z" />
    <glyph glyph-name="Japan1.8122" unicode="&#x24a6;" 
d="M178 842v-5c-64 -84 -103 -228 -103 -457c0 -164 20 -348 103 -457v-5h-37c-60 81 -103 230 -103 462s43 381 103 462h37zM822 -82v5c64 84 103 228 103 457c0 164 -20 348 -103 457v5h37c60 -81 103 -230 103 -462s-43 -381 -103 -462h-37zM390 749v-471h2
c13 20 30 39 46 60l164 192h62l-192 -217l215 -302h-62l-189 267l-46 -54v-213h-53v738h53z" />
    <glyph glyph-name="Japan1.8123" unicode="&#x24a7;" 
d="M178 842v-5c-64 -84 -103 -228 -103 -457c0 -164 20 -348 103 -457v-5h-37c-60 81 -103 230 -103 462s43 381 103 462h37zM822 -82v5c64 84 103 228 103 457c0 164 -20 348 -103 457v5h37c60 -81 103 -230 103 -462s-43 -381 -103 -462h-37zM473 11v738h53v-738h-53z" />
    <glyph glyph-name="Japan1.8124" unicode="&#x24a8;" 
d="M178 842v-5c-64 -84 -103 -228 -103 -457c0 -164 20 -348 103 -457v-5h-37c-60 81 -103 230 -103 462s43 381 103 462h37zM822 -82v5c64 84 103 228 103 457c0 164 -20 348 -103 457v5h37c60 -81 103 -230 103 -462s-43 -381 -103 -462h-37zM261 94v394
c0 65 -2 88 -5 125h43l2 -66h4c17 38 50 67 103 67c37 0 84 -14 102 -70h3c19 48 62 70 114 70c63 0 112 -40 112 -151v-369h-50v344c0 59 -1 130 -79 130c-36 0 -75 -27 -84 -88c-2 -18 -2 -34 -2 -52v-334h-49v350c0 64 -11 124 -80 124c-41 0 -76 -29 -83 -97
c-1 -16 -1 -30 -1 -45v-332h-50z" />
    <glyph glyph-name="Japan1.8125" unicode="&#x24a9;" 
d="M178 842v-5c-64 -84 -103 -228 -103 -457c0 -164 20 -348 103 -457v-5h-37c-60 81 -103 230 -103 462s43 381 103 462h37zM822 -82v5c64 84 103 228 103 457c0 164 -20 348 -103 457v5h37c60 -81 103 -230 103 -462s-43 -381 -103 -462h-37zM321 94v390
c0 48 -2 79 -3 129h47l3 -92h2c26 54 82 92 153 92c50 0 156 -30 156 -198v-321h-54v316c0 81 -27 159 -117 159c-63 0 -133 -56 -133 -153v-322h-54z" />
    <glyph glyph-name="Japan1.8126" unicode="&#x24aa;" 
d="M500 93c-113 0 -198 96 -198 258c0 178 98 263 199 263c113 0 197 -92 197 -258c0 -190 -109 -263 -198 -263zM499 135c95 0 146 116 146 220c0 87 -36 216 -145 216c-106 0 -145 -123 -145 -218c0 -110 49 -218 144 -218zM178 842v-5c-64 -84 -103 -228 -103 -457
c0 -164 20 -348 103 -457v-5h-37c-60 81 -103 230 -103 462s43 381 103 462h37zM822 -82v5c64 84 103 228 103 457c0 164 -20 348 -103 457v5h37c60 -81 103 -230 103 -462s-43 -381 -103 -462h-37z" />
    <glyph glyph-name="Japan1.8127" unicode="&#x24ab;" 
d="M326 -59v549c0 71 -2 123 -4 166h51l3 -92h2c32 62 82 93 145 93c106 0 178 -97 178 -254c0 -186 -84 -267 -189 -267c-59 0 -106 30 -130 79h-3v-274h-53zM379 450v-114c0 -71 43 -155 129 -155c93 0 140 99 140 220c0 111 -46 212 -138 212c-57 0 -112 -51 -125 -121
c-3 -13 -6 -27 -6 -42zM178 842v-5c-64 -84 -103 -228 -103 -457c0 -164 20 -348 103 -457v-5h-37c-60 81 -103 230 -103 462s43 381 103 462h37zM822 -82v5c64 84 103 228 103 457c0 164 -20 348 -103 457v5h37c60 -81 103 -230 103 -462s-43 -381 -103 -462h-37z" />
    <glyph glyph-name="Japan1.8128" unicode="&#x24ac;" 
d="M620 -59v277h-2c-20 -43 -68 -82 -137 -82c-104 0 -182 93 -182 254c0 186 97 267 196 267c59 0 107 -32 131 -83l2 -1l2 83h49c-3 -33 -5 -84 -5 -150v-565h-54zM620 336v121c0 106 -68 156 -126 156c-92 0 -142 -95 -142 -219c0 -110 43 -213 140 -213
c68 0 128 68 128 155zM178 842v-5c-64 -84 -103 -228 -103 -457c0 -164 20 -348 103 -457v-5h-37c-60 81 -103 230 -103 462s43 381 103 462h37zM822 -82v5c64 84 103 228 103 457c0 164 -20 348 -103 457v5h37c60 -81 103 -230 103 -462s-43 -381 -103 -462h-37z" />
    <glyph glyph-name="Japan1.8129" unicode="&#x24ad;" 
d="M178 842v-5c-64 -84 -103 -228 -103 -457c0 -164 20 -348 103 -457v-5h-37c-60 81 -103 230 -103 462s43 381 103 462h37zM822 -82v5c64 84 103 228 103 457c0 164 -20 348 -103 457v5h37c60 -81 103 -230 103 -462s-43 -381 -103 -462h-37zM376 94v296
c0 74 0 154 -5 223h51l3 -154h4c39 98 103 155 198 155c15 0 29 -2 41 -5v-48c-12 4 -23 4 -36 4c-47 0 -134 0 -191 -161c-6 -14 -12 -39 -12 -61v-249h-53z" />
    <glyph glyph-name="Japan1.8130" unicode="&#x24ae;" 
d="M178 842v-5c-64 -84 -103 -228 -103 -457c0 -164 20 -348 103 -457v-5h-37c-60 81 -103 230 -103 462s43 381 103 462h37zM822 -82v5c64 84 103 228 103 457c0 164 -20 348 -103 457v5h37c60 -81 103 -230 103 -462s-43 -381 -103 -462h-37zM326 131l16 43
c36 -22 87 -39 142 -39c96 0 137 54 137 97c0 59 -44 83 -129 106c-121 34 -148 83 -148 140c0 64 55 136 178 136c52 0 98 -14 132 -34l-18 -40c-31 18 -67 32 -125 32c-71 0 -115 -45 -115 -88c0 -59 39 -79 125 -104c113 -32 152 -75 152 -149c0 -70 -62 -138 -194 -138
c-58 0 -111 15 -153 38z" />
    <glyph glyph-name="Japan1.8131" unicode="&#x24af;" 
d="M178 842v-5c-64 -84 -103 -228 -103 -457c0 -164 20 -348 103 -457v-5h-37c-60 81 -103 230 -103 462s43 381 103 462h37zM822 -82v5c64 84 103 228 103 457c0 164 -20 348 -103 457v5h37c60 -81 103 -230 103 -462s-43 -381 -103 -462h-37zM432 672l54 18v-110h160v-42
h-160v-321c0 -61 21 -106 81 -106c29 0 50 4 65 9l6 -39c-18 -7 -45 -14 -77 -14c-96 0 -129 69 -129 159v312h-92v42h92v92z" />
    <glyph glyph-name="Japan1.8132" unicode="&#x24b0;" 
d="M178 842v-5c-64 -84 -103 -228 -103 -457c0 -164 20 -348 103 -457v-5h-37c-60 81 -103 230 -103 462s43 381 103 462h37zM822 -82v5c64 84 103 228 103 457c0 164 -20 348 -103 457v5h37c60 -81 103 -230 103 -462s-43 -381 -103 -462h-37zM679 613v-385
c0 -46 2 -95 4 -134l-47 -1l-4 87h-1c-24 -40 -72 -87 -155 -87c-74 0 -155 40 -155 211v309h54v-299c0 -104 30 -176 114 -176c69 0 136 59 136 148v327h54z" />
    <glyph glyph-name="Japan1.8133" unicode="&#x24b1;" 
d="M178 842v-5c-64 -84 -103 -228 -103 -457c0 -164 20 -348 103 -457v-5h-37c-60 81 -103 230 -103 462s43 381 103 462h37zM822 -82v5c64 84 103 228 103 457c0 164 -20 348 -103 457v5h37c60 -81 103 -230 103 -462s-43 -381 -103 -462h-37zM305 613h56l99 -320
c13 -43 26 -88 37 -132h3c13 45 25 85 41 132l100 320h53l-175 -518h-44z" />
    <glyph glyph-name="Japan1.8134" unicode="&#x24b2;" 
d="M178 842v-5c-64 -84 -103 -228 -103 -457c0 -164 20 -348 103 -457v-5h-37c-60 81 -103 230 -103 462s43 381 103 462h37zM822 -82v5c64 84 103 228 103 457c0 164 -20 348 -103 457v5h37c60 -81 103 -230 103 -462s-43 -381 -103 -462h-37zM236 613h51l62 -264
c12 -50 25 -106 36 -162h3c12 57 23 113 34 160l63 266h34l61 -257c13 -53 25 -107 37 -169h4c12 58 22 104 36 164l58 262h46l-126 -519h-33l-73 292c-11 49 -17 88 -25 145h-4c-9 -59 -18 -102 -27 -149l-69 -288h-36z" />
    <glyph glyph-name="Japan1.8135" unicode="&#x24b3;" 
d="M178 842v-5c-64 -84 -103 -228 -103 -457c0 -164 20 -348 103 -457v-5h-37c-60 81 -103 230 -103 462s43 381 103 462h37zM822 -82v5c64 84 103 228 103 457c0 164 -20 348 -103 457v5h37c60 -81 103 -230 103 -462s-43 -381 -103 -462h-37zM328 613h57l117 -219h3
c17 33 33 64 51 96l66 123h54l-147 -254l151 -265h-57l-72 130l-52 100h-1c-17 -34 -34 -67 -52 -100l-72 -130h-54l152 263z" />
    <glyph glyph-name="Japan1.8136" unicode="&#x24b4;" 
d="M178 842v-5c-64 -84 -103 -228 -103 -457c0 -164 20 -348 103 -457v-5h-37c-60 81 -103 230 -103 462s43 381 103 462h37zM822 -82v5c64 84 103 228 103 457c0 164 -20 348 -103 457v5h37c60 -81 103 -230 103 -462s-43 -381 -103 -462h-37zM310 660h57l101 -322
c12 -38 24 -71 32 -103h2c9 30 23 67 36 106l97 319h55l-121 -355c-61 -164 -85 -240 -149 -304c-36 -37 -71 -55 -84 -60l-18 43c121 53 155 182 155 190c0 5 -2 13 -5 22z" />
    <glyph glyph-name="Japan1.8137" unicode="&#x24b5;" 
d="M178 842v-5c-64 -84 -103 -228 -103 -457c0 -164 20 -348 103 -457v-5h-37c-60 81 -103 230 -103 462s43 381 103 462h37zM822 -82v5c64 84 103 228 103 457c0 164 -20 348 -103 457v5h37c60 -81 103 -230 103 -462s-43 -381 -103 -462h-37zM330 103v32l229 351
c5 8 48 70 48 73h-256v45h319v-32l-231 -353c-14 -24 -29 -47 -46 -69v-3h277v-44h-340z" />
    <glyph glyph-name="Japan1.8184" 
d="M223 323v411h-1l-82 -45l-9 37l96 53h45v-456h-49zM241 -20h-47l492 800h48zM911 -13h-328v31l52 44c158 134 213 184 213 255c0 47 -26 99 -105 99c-46 0 -86 -24 -118 -52l-23 33c39 38 87 61 148 61c105 0 147 -76 147 -134c0 -92 -70 -155 -201 -263l-39 -31v-1h254
v-42z" />
    <glyph glyph-name="Japan1.8185" 
d="M843 -19h-48v116h-257v34l255 325h50v-318h83v-41h-83v-116zM593 138h203v203c0 20 0 40 1 60l-4 1c-13 -22 -24 -38 -35 -56l-165 -207v-1zM222 323v411h-1l-82 -45l-9 37l96 53h45v-456h-49zM252 -20h-47l491 800h48z" />
    <glyph glyph-name="Japan1.8224" unicode="&#x24ea;" 
d="M962 380c0 -257 -209 -462 -462 -462c-255 0 -462 207 -462 462s207 462 462 462s462 -207 462 -462zM500 814c-242 0 -434 -196 -434 -434c0 -240 194 -434 434 -434s434 194 434 434s-194 434 -434 434zM495 122c-117 0 -179 120 -179 254c0 176 92 263 190 263
c110 0 177 -89 177 -248c0 -175 -70 -269 -188 -269zM499 161c91 0 134 84 134 223c0 133 -39 215 -133 215c-48 0 -134 -37 -134 -226c0 -133 53 -212 133 -212z" />
    <glyph glyph-name="Japan1.8225" unicode="&#x216a;" 
d="M681 -10h-67l-114 184c-54 87 -89 142 -112 182h-1c-24 -44 -50 -89 -103 -181l-107 -185h-65l246 401l-226 378h66l122 -209c34 -57 55 -96 75 -133h2c20 37 40 74 75 132l122 210h65l-234 -378zM797 769h57v-779h-57v779z" />
    <glyph glyph-name="Japan1.8226" unicode="&#x216b;" 
d="M581 -10h-65l-102 182c-49 87 -80 142 -100 181h-2c-20 -43 -45 -88 -92 -180l-96 -183h-63l223 401l-204 378h63l110 -208c30 -57 49 -96 67 -132h1c18 36 36 73 67 131l109 209h64l-212 -377zM664 769h55v-779h-55v779zM853 769h55v-779h-55v779z" />
    <glyph glyph-name="Japan1.8227" 
d="M493 26c-132 0 -200 158 -200 350c0 246 101 356 213 356c116 0 201 -111 201 -346c0 -245 -87 -360 -214 -360zM498 72c114 0 154 144 154 310c0 175 -46 304 -153 304c-69 0 -151 -76 -151 -318c0 -178 57 -296 150 -296zM179 842v-5c-64 -84 -103 -228 -103 -457
c0 -164 20 -348 103 -457v-5h-38c-60 81 -103 230 -103 462s43 381 103 462h38zM821 -82v5c64 84 103 228 103 457c0 164 -20 348 -103 457v5h38c60 -81 103 -230 103 -462s-43 -381 -103 -462h-38z" />
    <glyph glyph-name="Japan1.8228" 
d="M726 767l39 -26l-62 -97c36 -61 56 -148 56 -264c0 -265 -107 -393 -258 -393c-67 0 -126 23 -173 80l-54 -87l-39 26l64 100c-36 63 -58 152 -58 273c0 261 128 381 259 381c68 0 128 -24 173 -77zM342 169l297 464c-32 50 -77 79 -139 79c-105 0 -196 -109 -196 -346
c0 -76 13 -145 38 -197zM660 581l-298 -465c33 -51 79 -81 135 -81c150 0 199 169 199 341c0 70 -7 141 -36 205z" />
    <glyph glyph-name="Japan1.8286" unicode="&#x2776;" 
d="M500 842c257 0 462 -209 462 -462c0 -255 -207 -462 -462 -462s-462 207 -462 462s207 462 462 462zM463 549v-433h100v526h-87l-129 -62l18 -78l96 47h2z" />
    <glyph glyph-name="Japan1.8287" unicode="&#x2777;" 
d="M500 842c257 0 462 -209 462 -462c0 -255 -207 -462 -462 -462s-462 207 -462 462s207 462 462 462zM314 119h372v85h-223v1l47 38c97 86 164 154 164 245c0 85 -59 161 -181 161c-69 0 -130 -25 -171 -58l32 -73c28 22 70 47 118 47c73 0 98 -43 98 -88
c0 -65 -56 -119 -191 -239l-65 -57v-62z" />
    <glyph glyph-name="Japan1.8288" unicode="&#x2778;" 
d="M500 842c257 0 462 -209 462 -462c0 -255 -207 -462 -462 -462s-462 207 -462 462s207 462 462 462zM339 226l-24 -78c30 -19 88 -39 157 -39c136 0 213 71 213 158c0 69 -53 118 -120 129v2c67 22 100 67 100 122c0 68 -57 129 -171 129c-67 0 -129 -22 -161 -42l24 -76
c23 16 69 34 115 34c61 0 87 -29 87 -62c0 -50 -58 -69 -106 -69h-50v-76h50c61 0 125 -27 125 -86c0 -36 -30 -79 -111 -79c-54 0 -107 21 -128 33z" />
    <glyph glyph-name="Japan1.8289" unicode="&#x2779;" 
d="M500 842c257 0 462 -209 462 -462c0 -255 -207 -462 -462 -462s-462 207 -462 462s207 462 462 462zM530 116h100v130h69v81h-69v315h-125l-224 -326v-70h249v-130zM530 474v-147h-149v2l105 147c16 28 30 54 44 85h3c-2 -30 -3 -60 -3 -87z" />
    <glyph glyph-name="Japan1.8290" unicode="&#x277a;" 
d="M500 842c257 0 462 -209 462 -462c0 -255 -207 -462 -462 -462s-462 207 -462 462s207 462 462 462zM664 554v85h-285l-34 -265c22 3 46 6 77 6c111 0 155 -40 155 -96c0 -71 -66 -93 -117 -93s-99 16 -123 29l-21 -79c29 -15 81 -32 148 -32c137 0 219 80 219 180
c0 123 -100 169 -204 169c-17 0 -29 -1 -42 -3l15 99h212z" />
    <glyph glyph-name="Japan1.8291" unicode="&#x277b;" 
d="M500 842c257 0 462 -209 462 -462c0 -255 -207 -462 -462 -462s-462 207 -462 462s207 462 462 462zM644 565v83c-16 1 -39 1 -64 -2c-166 -7 -282 -115 -282 -312c0 -130 69 -225 196 -225c117 0 200 88 200 189c0 95 -72 162 -168 162c-53 0 -92 -16 -120 -47h-2
c19 91 91 154 215 154c9 0 17 -1 25 -2zM499 186c-69 0 -95 64 -95 128c0 45 51 71 95 71c58 0 90 -43 90 -92c0 -56 -32 -107 -90 -107z" />
    <glyph glyph-name="Japan1.8292" unicode="&#x277c;" 
d="M500 842c257 0 462 -209 462 -462c0 -255 -207 -462 -462 -462s-462 207 -462 462s207 462 462 462zM700 639h-369v-85h258v-2l-232 -436h110l233 455v68z" />
    <glyph glyph-name="Japan1.8293" unicode="&#x277d;" 
d="M500 842c257 0 462 -209 462 -462c0 -255 -207 -462 -462 -462s-462 207 -462 462s207 462 462 462zM594 396v2c59 27 83 73 83 118c0 65 -54 133 -173 133c-108 0 -184 -61 -184 -145c0 -46 25 -90 82 -116v-2c-64 -25 -100 -70 -100 -132c0 -76 67 -145 195 -145
c117 0 202 62 202 157c0 66 -45 110 -105 130zM502 578c60 0 79 -43 79 -73c0 -40 -31 -68 -68 -77c-56 13 -92 38 -92 80c0 36 28 70 81 70zM500 181c-57 0 -92 40 -92 84c0 43 29 75 81 87c63 -14 104 -42 104 -95c0 -38 -34 -76 -93 -76z" />
    <glyph glyph-name="Japan1.8294" unicode="&#x277e;" 
d="M500 842c257 0 462 -209 462 -462c0 -255 -207 -462 -462 -462s-462 207 -462 462s207 462 462 462zM356 193v-83c16 -1 39 -1 64 2c166 7 282 115 282 312c0 130 -69 225 -196 225c-117 0 -200 -88 -200 -189c0 -95 72 -162 168 -162c53 0 92 16 120 47h2
c-19 -91 -91 -153 -215 -153c-9 0 -17 0 -25 1zM500 572c75 0 96 -72 96 -128c0 -45 -51 -71 -95 -71c-58 0 -90 43 -90 92c0 59 35 107 89 107z" />
    <glyph glyph-name="Japan1.8295" 
d="M493 -10h-59l-89 181c-42 86 -70 140 -87 179h-1c-18 -42 -39 -87 -80 -178l-82 -182h-59l195 400l-178 379h58l95 -205c26 -56 43 -96 59 -131c16 36 30 72 57 130l94 206h59l-184 -377zM557 769h51v-779h-51v779zM713 769h50v-779h-50v779zM870 769h50v-779h-50v779z
" />
    <glyph glyph-name="Japan1.8296" 
d="M440 -10h-57l-76 179c-36 82 -61 139 -75 177h-2c-15 -42 -32 -89 -67 -176l-71 -180h-56l169 401l-154 378h55l81 -203c23 -56 38 -93 50 -129h1c14 37 26 71 49 128l81 204h55l-160 -376zM467 769h51v-779h-51v779zM794 -10h-53l-192 779h55l102 -427
c26 -110 44 -191 62 -271h1c14 79 29 153 53 271l88 427h54z" />
    <glyph glyph-name="Japan1.8297" 
d="M484 -10h-62l-84 180c-41 86 -67 139 -84 178h-1c-18 -42 -37 -87 -76 -177l-80 -181h-60l188 400l-172 379h60l91 -205c25 -55 41 -94 56 -129h1c14 35 29 71 55 129l90 205h60l-179 -377zM770 -10h-56l-216 779h57l116 -427c29 -109 52 -196 71 -277h1
c18 81 36 160 64 277l99 427h57z" />
    <glyph glyph-name="Japan1.8298" unicode="&#x217a;" 
d="M766 664c-30 0 -46 27 -46 50c0 26 21 51 48 51c26 0 46 -24 46 -51c0 -25 -19 -50 -48 -50zM178 551h62l98 -139c25 -35 43 -62 64 -94h4c21 32 41 63 65 98l95 135h60l-192 -269l208 -292h-63l-102 143c-28 39 -53 76 -77 111h-3c-25 -36 -46 -67 -75 -107l-106 -147
h-63l215 290zM795 -10h-57v561h57v-561z" />
    <glyph glyph-name="Japan1.8299" unicode="&#x217b;" 
d="M667 666c-31 0 -48 26 -48 49c0 27 20 50 46 50s47 -24 47 -50c0 -25 -19 -49 -45 -49zM846 666c-31 0 -48 26 -48 49c0 27 20 50 46 50s47 -24 47 -50c0 -25 -19 -49 -45 -49zM124 551h63l93 -139l61 -94h3c20 32 39 63 62 98l90 135h60l-183 -269l199 -292h-64l-98 143
c-25 39 -50 76 -71 111h-3c-23 -36 -44 -67 -71 -107l-102 -147h-61l205 290zM694 -10h-56v561h56v-561zM873 -10h-56v561h56v-561z" />
    <glyph glyph-name="Japan1.8300" 
d="M585 667c-29 0 -45 27 -45 49c0 26 19 49 43 49c25 0 44 -24 44 -49c0 -24 -18 -49 -42 -49zM730 667c-29 0 -45 27 -45 49c0 26 19 49 43 49s44 -24 44 -49c0 -24 -18 -49 -42 -49zM875 667c-29 0 -45 27 -45 49c0 26 19 49 42 49c25 0 45 -24 45 -49
c0 -24 -18 -49 -42 -49zM89 551h61l87 -139c22 -35 38 -61 57 -94h3c19 33 37 63 58 98l85 135h57l-172 -269l187 -292h-60l-92 143c-25 39 -48 75 -68 110h-3c-22 -36 -40 -66 -66 -107l-96 -146h-59l194 290zM609 -10h-50v561h50v-561zM754 -10h-50v561h50v-561zM899 -10
h-50v561h50v-561z" />
    <glyph glyph-name="Japan1.8301" 
d="M503 667c-29 0 -45 27 -45 49c0 26 19 49 42 49c25 0 45 -24 45 -49c0 -24 -17 -49 -42 -49zM55 551h58l74 -137c19 -34 32 -61 48 -93h3c16 32 32 63 50 96l73 134h53l-149 -269l162 -292h-57l-78 140c-21 39 -41 75 -59 110h-2c-19 -37 -34 -66 -57 -106l-82 -144h-56
l169 290zM527 -10h-50v561h50v-561zM578 551h49l95 -329c18 -62 31 -107 44 -157h2c13 47 27 96 45 157l100 329h51l-175 -561h-44z" />
    <glyph glyph-name="Japan1.8302" 
d="M79 551h63l85 -139c21 -35 37 -61 55 -94h3c19 33 36 63 57 98l82 135h60l-170 -268l185 -293h-63l-90 143c-23 39 -46 75 -66 111h-3c-21 -37 -40 -67 -65 -108l-93 -146h-61l191 290zM515 551h58l104 -327c21 -62 35 -107 49 -157h2c14 48 30 96 50 157l111 327h54
l-196 -561h-44z" />
    <glyph glyph-name="Japan1.9780" unicode="&#x2189;" 
d="M215 388c-100 0 -177 73 -177 209c0 141 83 213 182 213c108 0 177 -71 177 -205c0 -137 -64 -217 -182 -217zM215 431c99 0 128 83 128 171c0 101 -39 164 -125 164c-74 0 -125 -63 -125 -164c0 -109 48 -171 122 -171zM804 810l-560 -860h-49l560 860h49zM614 -20
l15 40c22 -11 79 -27 138 -27c119 0 142 47 142 77c0 58 -60 82 -164 82h-47v42h48c65 -1 141 20 141 71c0 32 -27 64 -112 64c-50 0 -96 -17 -122 -32l-17 39c29 17 87 36 146 36c113 0 157 -53 157 -101c0 -44 -35 -82 -105 -96v-2c76 -3 128 -42 128 -103
c0 -67 -64 -120 -200 -120c-67 0 -122 17 -148 30z" />
    <glyph glyph-name="Japan1.9781" 
d="M224 389v373h-2l-98 -45l-14 39l118 53h47v-420h-51zM804 810l-560 -860h-49l560 860h49zM614 -20l15 40c22 -11 79 -27 138 -27c119 0 142 47 142 77c0 58 -60 82 -164 82h-47v42h48c65 -1 141 20 141 71c0 32 -27 64 -112 64c-50 0 -96 -17 -122 -32l-17 39
c29 17 87 36 146 36c113 0 157 -53 157 -101c0 -44 -35 -82 -105 -96v-2c76 -3 128 -42 128 -103c0 -67 -64 -120 -200 -120c-67 0 -122 17 -148 30z" />
    <glyph glyph-name="Japan1.9782" 
d="M376 396h-338v27l55 40c159 116 216 160 216 220c0 43 -23 84 -101 84c-50 0 -95 -24 -119 -48l-25 35c39 37 95 56 152 56c104 0 146 -65 146 -118c0 -77 -60 -128 -201 -231l-29 -20v-2h244v-43zM804 810l-560 -860h-49l560 860h49zM614 -20l15 40
c22 -11 79 -27 138 -27c119 0 142 47 142 77c0 58 -60 82 -164 82h-47v42h48c65 -1 141 20 141 71c0 32 -27 64 -112 64c-50 0 -96 -17 -122 -32l-17 39c29 17 87 36 146 36c113 0 157 -53 157 -101c0 -44 -35 -82 -105 -96v-2c76 -3 128 -42 128 -103
c0 -67 -64 -120 -200 -120c-67 0 -122 17 -148 30z" />
    <glyph glyph-name="Japan1.9783" 
d="M885 -50h-52v115h-253v37l245 268h60v-263h77v-42h-77v-115zM640 107h193v156c0 18 1 42 3 61h-2c-24 -28 -70 -80 -95 -107l-99 -108v-2zM38 419l15 39c22 -11 79 -27 137 -27c119 0 142 47 142 77c0 57 -59 82 -164 82h-46v41h47c65 -1 141 20 141 71
c0 33 -27 66 -112 66c-49 0 -96 -17 -122 -32l-17 38c29 17 87 36 147 36c112 0 156 -53 156 -101c0 -45 -35 -83 -105 -96v-3c76 -3 129 -41 129 -103c0 -66 -64 -118 -201 -118c-67 0 -122 17 -147 30zM804 810l-560 -860h-49l560 860h49z" />
    <glyph glyph-name="Japan1.9784" 
d="M224 389v373h-2l-98 -45l-14 39l118 53h47v-420h-51zM804 810l-560 -860h-49l560 860h49zM956 364v-43h-214l-21 -108c12 3 26 3 51 3c84 0 190 -29 190 -128c0 -86 -72 -138 -189 -138c-64 0 -112 15 -136 29l17 38c22 -11 65 -24 120 -24c78 0 135 35 135 91
c0 55 -43 91 -158 91c-34 0 -63 -3 -85 -7l35 196h255z" />
    <glyph glyph-name="Japan1.9785" unicode="&#x2156;" 
d="M376 396h-338v27l55 40c159 116 216 160 216 220c0 43 -23 84 -101 84c-50 0 -95 -24 -119 -48l-25 35c39 37 95 56 152 56c104 0 146 -65 146 -118c0 -77 -60 -128 -201 -231l-29 -20v-2h244v-43zM804 810l-560 -860h-49l560 860h49zM956 364v-43h-214l-21 -108
c12 3 26 3 51 3c84 0 190 -29 190 -128c0 -86 -72 -138 -189 -138c-64 0 -112 15 -136 29l17 38c22 -11 65 -24 120 -24c78 0 135 35 135 91c0 55 -43 91 -158 91c-34 0 -63 -3 -85 -7l35 196h255z" />
    <glyph glyph-name="Japan1.9786" unicode="&#x2157;" 
d="M38 419l16 41c22 -9 78 -26 136 -26c117 0 139 46 139 75c0 57 -58 80 -161 80h-47v43h48c64 0 138 20 138 69c0 32 -27 64 -109 64c-48 0 -94 -16 -119 -30l-20 39c29 18 87 36 147 36c112 0 156 -53 156 -101c0 -45 -35 -83 -105 -96v-2c76 -4 129 -41 129 -104
c0 -66 -64 -118 -201 -118c-67 0 -122 17 -147 30zM804 810l-560 -860h-49l560 860h49zM956 364v-43h-214l-21 -108c12 3 26 3 51 3c84 0 190 -29 190 -128c0 -86 -72 -138 -189 -138c-64 0 -112 15 -136 29l17 38c22 -11 65 -24 120 -24c78 0 135 35 135 91
c0 55 -43 91 -158 91c-34 0 -63 -3 -85 -7l35 196h255z" />
    <glyph glyph-name="Japan1.9787" unicode="&#x2158;" 
d="M342 388h-51v115h-253v36l244 269h60v-264h78v-41h-78v-115zM97 544h194v157c0 18 1 42 3 61h-2c-25 -29 -70 -80 -96 -108l-99 -107v-3zM804 810l-560 -860h-49l560 860h49zM956 364v-43h-214l-21 -108c12 3 26 3 51 3c84 0 190 -29 190 -128c0 -86 -72 -138 -189 -138
c-64 0 -112 15 -136 29l17 38c22 -11 65 -24 120 -24c78 0 135 35 135 91c0 55 -43 91 -158 91c-34 0 -63 -3 -85 -7l35 196h255z" />
    <glyph glyph-name="Japan1.9788" unicode="&#x2159;" 
d="M907 371v-42c-180 0 -243 -91 -251 -155h1c25 28 74 54 139 54c97 0 166 -50 166 -135c0 -78 -65 -143 -178 -143c-104 0 -182 61 -182 175c0 123 93 246 305 246zM788 -8c79 0 122 41 122 99c0 66 -52 96 -127 96c-77 0 -129 -51 -129 -76c0 -66 45 -119 134 -119z
M224 389v373h-2l-98 -45l-14 39l118 53h47v-420h-51zM804 810l-560 -860h-49l560 860h49z" />
    <glyph glyph-name="Japan1.9789" unicode="&#x215a;" 
d="M907 371v-42c-180 0 -243 -91 -251 -155h1c25 28 74 54 139 54c97 0 166 -50 166 -135c0 -78 -65 -143 -178 -143c-104 0 -182 61 -182 175c0 123 93 246 305 246zM788 -8c79 0 122 41 122 99c0 66 -52 96 -127 96c-77 0 -129 -51 -129 -76c0 -66 45 -119 134 -119z
M804 810l-560 -860h-49l560 860h49zM356 802v-43h-214l-21 -109c13 3 26 4 51 4c58 0 191 -19 191 -129c0 -85 -73 -138 -190 -138c-64 0 -112 15 -135 29l17 39c22 -12 65 -25 119 -25c78 0 136 35 136 91s-44 92 -159 92c-34 0 -62 -4 -85 -8l36 197h254z" />
    <glyph glyph-name="Japan1.9790" unicode="&#x2150;" 
d="M224 389v373h-2l-98 -45l-14 39l118 53h47v-420h-51zM804 810l-560 -860h-49l560 860h49zM623 364h339v-34l-221 -380h-60l220 369v2h-278v43z" />
    <glyph glyph-name="Japan1.9791" 
d="M376 396h-338v27l55 40c159 116 216 160 216 220c0 43 -23 84 -101 84c-50 0 -95 -24 -119 -48l-25 35c39 37 95 56 152 56c104 0 146 -65 146 -118c0 -77 -60 -128 -201 -231l-29 -20v-2h244v-43zM804 810l-560 -860h-49l560 860h49zM623 364h339v-34l-221 -380h-60
l220 369v2h-278v43z" />
    <glyph glyph-name="Japan1.9792" 
d="M38 419l15 39c22 -11 79 -27 137 -27c119 0 142 47 142 77c0 57 -59 82 -164 82h-46v41h47c65 -1 141 20 141 71c0 33 -27 66 -112 66c-49 0 -96 -17 -122 -32l-17 38c29 17 87 36 147 36c112 0 156 -53 156 -101c0 -45 -35 -83 -105 -96v-3c76 -3 129 -41 129 -103
c0 -66 -64 -118 -201 -118c-67 0 -122 17 -147 30zM804 810l-560 -860h-49l560 860h49zM623 364h339v-34l-221 -380h-60l220 369v2h-278v43z" />
    <glyph glyph-name="Japan1.9793" 
d="M342 388h-51v115h-253v36l244 269h60v-264h78v-41h-78v-115zM97 544h194v157c0 18 1 42 3 61h-2c-25 -29 -70 -80 -96 -108l-99 -107v-3zM804 810l-560 -860h-49l560 860h49zM623 364h339v-34l-221 -380h-60l220 369v2h-278v43z" />
    <glyph glyph-name="Japan1.9794" 
d="M804 810l-560 -860h-49l560 860h49zM356 802v-43h-214l-21 -109c13 3 26 4 51 4c58 0 191 -19 191 -129c0 -85 -73 -138 -190 -138c-64 0 -112 15 -135 29l17 39c22 -12 65 -25 119 -25c78 0 136 35 136 91s-44 92 -159 92c-34 0 -62 -4 -85 -8l36 197h254zM623 364h339
v-34l-221 -380h-60l220 369v2h-278v43z" />
    <glyph glyph-name="Japan1.9795" 
d="M342 810v-43c-177 0 -242 -89 -251 -155h1c26 28 75 54 139 54c97 0 167 -50 167 -135c0 -78 -66 -143 -179 -143c-104 0 -181 61 -181 175c0 81 38 146 90 185c66 52 165 62 214 62zM224 430c78 0 121 41 121 99c0 66 -52 96 -127 96s-129 -49 -129 -75
c0 -67 45 -120 135 -120zM804 810l-560 -860h-49l560 860h49zM623 364h339v-34l-221 -380h-60l220 369v2h-278v43z" />
    <glyph glyph-name="Japan1.9796" 
d="M704 171v2c-67 17 -91 53 -91 92c0 63 72 106 169 106c107 0 159 -48 159 -99c0 -33 -17 -82 -94 -98v-2c78 -14 115 -56 115 -104c0 -73 -85 -118 -186 -118c-108 0 -184 46 -184 110c0 49 37 92 112 111zM781 331c-84 0 -119 -32 -119 -64c0 -44 48 -65 127 -75
c64 9 103 35 103 76c0 28 -28 63 -111 63zM776 -9c88 0 133 33 133 70c0 50 -49 77 -145 89c-77 -11 -119 -45 -119 -85s48 -74 131 -74zM224 389v373h-2l-98 -45l-14 39l118 53h47v-420h-51zM804 810l-560 -860h-49l560 860h49z" />
    <glyph glyph-name="Japan1.9797" 
d="M704 171v2c-67 17 -91 53 -91 92c0 63 72 106 169 106c107 0 159 -48 159 -99c0 -33 -17 -82 -94 -98v-2c78 -14 115 -56 115 -104c0 -73 -85 -118 -186 -118c-108 0 -184 46 -184 110c0 49 37 92 112 111zM781 331c-84 0 -119 -32 -119 -64c0 -44 48 -65 127 -75
c64 9 103 35 103 76c0 28 -28 63 -111 63zM776 -9c88 0 133 33 133 70c0 50 -49 77 -145 89c-77 -11 -119 -45 -119 -85s48 -74 131 -74zM38 419l15 39c22 -11 79 -27 137 -27c119 0 142 47 142 77c0 57 -59 82 -164 82h-46v41h47c65 -1 141 20 141 71c0 33 -27 66 -112 66
c-49 0 -96 -17 -122 -32l-17 38c29 17 87 36 147 36c112 0 156 -53 156 -101c0 -45 -35 -83 -105 -96v-3c76 -3 129 -41 129 -103c0 -66 -64 -118 -201 -118c-67 0 -122 17 -147 30zM804 810l-560 -860h-49l560 860h49z" />
    <glyph glyph-name="Japan1.9798" 
d="M704 171v2c-67 17 -91 53 -91 92c0 63 72 106 169 106c107 0 159 -48 159 -99c0 -33 -17 -82 -94 -98v-2c78 -14 115 -56 115 -104c0 -73 -85 -118 -186 -118c-108 0 -184 46 -184 110c0 49 37 92 112 111zM781 331c-84 0 -119 -32 -119 -64c0 -44 48 -65 127 -75
c64 9 103 35 103 76c0 28 -28 63 -111 63zM776 -9c88 0 133 33 133 70c0 50 -49 77 -145 89c-77 -11 -119 -45 -119 -85s48 -74 131 -74zM804 810l-560 -860h-49l560 860h49zM356 803v-43h-214l-21 -109c13 3 26 4 51 4c58 0 191 -19 191 -129c0 -85 -73 -137 -190 -137
c-64 0 -112 14 -135 28l17 39c22 -12 65 -25 119 -25c78 0 136 35 136 91s-44 92 -159 92c-34 0 -62 -4 -85 -8l36 197h254z" />
    <glyph glyph-name="Japan1.9799" 
d="M704 171v2c-67 17 -91 53 -91 92c0 63 72 106 169 106c107 0 159 -48 159 -99c0 -33 -17 -82 -94 -98v-2c78 -14 115 -56 115 -104c0 -73 -85 -118 -186 -118c-108 0 -184 46 -184 110c0 49 37 92 112 111zM781 331c-84 0 -119 -32 -119 -64c0 -44 48 -65 127 -75
c64 9 103 35 103 76c0 28 -28 63 -111 63zM776 -9c88 0 133 33 133 70c0 50 -49 77 -145 89c-77 -11 -119 -45 -119 -85s48 -74 131 -74zM804 810l-560 -860h-49l560 860h49zM38 803h339v-34l-221 -380h-60l220 369v2h-278v43z" />
    <glyph glyph-name="Japan1.9800" unicode="&#x2151;" 
d="M658 -50v43c82 -5 234 33 251 155h-1c-26 -29 -75 -54 -139 -54c-97 0 -166 50 -166 135c0 77 65 142 178 142c104 0 181 -60 181 -175c0 -132 -101 -246 -304 -246zM776 330c-78 0 -121 -42 -121 -100c0 -66 52 -96 127 -96c77 0 129 51 129 76c0 67 -45 120 -135 120z
M224 389v374h-2l-98 -45l-14 39l118 53h47v-421h-51zM804 810l-560 -860h-49l560 860h49z" />
    <glyph glyph-name="Japan1.9801" 
d="M658 -50v43c82 -5 234 33 251 155h-1c-26 -29 -75 -54 -139 -54c-97 0 -166 50 -166 135c0 77 65 142 178 142c104 0 181 -60 181 -175c0 -132 -101 -246 -304 -246zM776 330c-78 0 -121 -42 -121 -100c0 -66 52 -96 127 -96c77 0 129 51 129 76c0 67 -45 120 -135 120z
M376 396h-338v27l55 40c159 116 216 160 216 220c0 43 -23 84 -101 84c-50 0 -95 -24 -119 -48l-25 35c39 37 95 56 152 56c104 0 146 -65 146 -118c0 -77 -60 -128 -201 -231l-29 -20v-2h244v-43zM804 810l-560 -860h-49l560 860h49z" />
    <glyph glyph-name="Japan1.9802" 
d="M342 388h-51v115h-253v36l244 269h60v-264h78v-41h-78v-115zM97 544h194v157c0 18 1 42 3 61h-2c-25 -29 -70 -80 -96 -108l-99 -107v-3zM658 -50v43c82 -5 234 33 251 155h-1c-26 -29 -75 -54 -139 -54c-97 0 -166 50 -166 135c0 77 65 142 178 142
c104 0 181 -60 181 -175c0 -132 -101 -246 -304 -246zM776 330c-78 0 -121 -42 -121 -100c0 -66 52 -96 127 -96c77 0 129 51 129 76c0 67 -45 120 -135 120zM804 810l-560 -860h-49l560 860h49z" />
    <glyph glyph-name="Japan1.9803" 
d="M658 -50v43c82 -5 234 33 251 155h-1c-26 -29 -75 -54 -139 -54c-97 0 -166 50 -166 135c0 77 65 142 178 142c104 0 181 -60 181 -175c0 -132 -101 -246 -304 -246zM776 330c-78 0 -121 -42 -121 -100c0 -66 52 -96 127 -96c77 0 129 51 129 76c0 67 -45 120 -135 120z
M804 810l-560 -860h-49l560 860h49zM356 802v-43h-214l-21 -109c13 3 26 4 51 4c58 0 191 -19 191 -129c0 -85 -73 -138 -190 -138c-64 0 -112 15 -135 29l17 39c22 -12 65 -25 119 -25c78 0 136 35 136 91s-44 92 -159 92c-34 0 -62 -4 -85 -8l36 197h254z" />
    <glyph glyph-name="Japan1.9804" 
d="M658 -50v43c82 -5 234 33 251 155h-1c-26 -29 -75 -54 -139 -54c-97 0 -166 50 -166 135c0 77 65 142 178 142c104 0 181 -60 181 -175c0 -132 -101 -246 -304 -246zM776 330c-78 0 -121 -42 -121 -100c0 -66 52 -96 127 -96c77 0 129 51 129 76c0 67 -45 120 -135 120z
M804 810l-560 -860h-49l560 860h49zM38 803h339v-34l-221 -380h-60l220 369v2h-278v43z" />
    <glyph glyph-name="Japan1.9805" 
d="M150 609v2c-67 18 -91 53 -91 93c0 62 72 106 169 106c106 0 159 -48 159 -99c0 -34 -17 -82 -94 -99v-2c78 -14 115 -55 115 -104c0 -72 -85 -117 -186 -117c-108 0 -184 46 -184 110c0 48 37 92 112 110zM227 770c-83 0 -119 -33 -119 -64c0 -44 47 -65 127 -75
c64 8 103 35 103 75c0 28 -29 64 -111 64zM222 429c88 0 133 33 133 70c0 51 -49 78 -145 89c-77 -10 -119 -45 -119 -84c0 -41 48 -75 131 -75zM658 -50v43c82 -5 234 33 251 155h-1c-26 -29 -75 -54 -139 -54c-97 0 -166 50 -166 135c0 77 65 142 178 142
c104 0 181 -60 181 -175c0 -132 -101 -246 -304 -246zM776 330c-78 0 -121 -42 -121 -100c0 -66 52 -96 127 -96c77 0 129 51 129 76c0 67 -45 120 -135 120zM804 810l-560 -860h-49l560 860h49z" />
    <glyph glyph-name="Japan1.9806" unicode="&#x2152;" 
d="M812 -50c-80 0 -143 67 -145 209c0 143 67 212 150 212c89 0 145 -68 145 -204c0 -140 -51 -217 -150 -217zM812 -9h1c69 0 101 65 101 172c0 104 -30 168 -99 168c-59 0 -100 -62 -100 -168c0 -112 39 -172 97 -172zM736 810l-560 -860h-49l560 860h49zM200 389v373h-2
l-97 -45l-13 39l115 53h46v-420h-49zM553 -50v371h-2l-63 -32l-12 42l81 40h44v-421h-48z" />
    <glyph glyph-name="Japan1.9807" 
d="M812 -50c-80 0 -143 67 -145 209c0 143 67 212 150 212c89 0 145 -68 145 -204c0 -140 -51 -217 -150 -217zM812 -9h1c69 0 101 65 101 172c0 104 -30 168 -99 168c-59 0 -100 -62 -100 -168c0 -112 39 -172 97 -172zM235 613v-3c69 -3 116 -41 116 -103
c0 -66 -57 -118 -180 -118c-61 0 -110 17 -133 30l16 38c19 -10 69 -26 121 -26c105 0 125 47 125 77c0 57 -52 82 -145 82h-42v41h44c56 -1 123 20 123 71c0 33 -24 66 -98 66c-43 0 -85 -17 -107 -31l-17 37c25 17 77 36 131 36c101 0 141 -53 141 -101
c0 -45 -32 -83 -95 -96zM736 810l-560 -860h-49l560 860h49zM553 -50v371h-2l-63 -32l-12 42l81 40h44v-421h-48z" />
    <glyph glyph-name="Japan1.9808" 
d="M812 -50c-80 0 -143 67 -145 209c0 143 67 212 150 212c89 0 145 -68 145 -204c0 -140 -51 -217 -150 -217zM812 -9h1c69 0 101 65 101 172c0 104 -30 168 -99 168c-59 0 -100 -62 -100 -168c0 -112 39 -172 97 -172zM736 810l-560 -860h-49l560 860h49zM38 803h308v-34
l-200 -380h-56l198 369v2h-250v43zM553 -50v371h-2l-63 -32l-12 42l81 40h44v-421h-48z" />
    <glyph glyph-name="Japan1.9809" 
d="M310 586h-2c-23 -28 -66 -54 -123 -54c-85 0 -147 50 -147 135c0 78 59 143 161 143c92 0 163 -61 163 -175c0 -126 -86 -246 -274 -246v42c159 0 214 91 222 155zM194 768c-69 0 -106 -41 -106 -99c0 -66 45 -96 112 -96c63 0 113 50 113 76c0 66 -41 119 -119 119z
M812 -50c-80 0 -143 67 -145 209c0 143 67 212 150 212c89 0 145 -68 145 -204c0 -140 -51 -217 -150 -217zM812 -9h1c69 0 101 65 101 172c0 104 -30 168 -99 168c-59 0 -100 -62 -100 -168c0 -112 39 -172 97 -172zM736 810l-560 -860h-49l560 860h49zM553 -50v371h-2
l-63 -32l-12 42l81 40h44v-421h-48z" />
    <glyph glyph-name="Japan1.9810" 
d="M200 389v374h-2l-97 -45l-13 39l115 53h46v-421h-49zM736 810l-560 -860h-49l560 860h49zM584 -50v371h-2l-63 -32l-12 42l81 40h44v-421h-48zM881 -50v371h-2l-63 -32l-13 42l82 40h44v-421h-48z" />
    <glyph glyph-name="Japan1.9811" 
d="M341 396h-303v27l50 40c142 116 191 160 191 220c0 43 -21 84 -90 84c-44 0 -84 -24 -105 -48l-23 35c35 37 86 56 137 56c94 0 131 -65 131 -118c0 -77 -51 -125 -178 -231l-26 -20v-2h216v-43zM738 810l-560 -860h-49l560 860h49zM584 -50v371h-2l-63 -32l-12 42l81 40
h44v-421h-48zM881 -50v371h-2l-63 -32l-13 42l82 40h44v-421h-48z" />
    <glyph glyph-name="Japan1.9812" 
d="M38 419l16 38c19 -10 69 -26 121 -26c105 0 125 47 125 77c0 57 -52 82 -145 82h-42v41h44c56 -1 123 20 123 71c0 33 -24 66 -98 66c-43 0 -85 -17 -107 -31l-17 37c25 17 77 36 131 36c101 0 141 -53 141 -101c0 -45 -32 -83 -95 -96v-3c69 -3 116 -41 116 -103
c0 -66 -57 -118 -180 -118c-61 0 -110 17 -133 30zM736 810l-560 -860h-49l560 860h49zM584 -50v371h-2l-63 -32l-12 42l81 40h44v-421h-48zM881 -50v371h-2l-63 -32l-13 42l82 40h44v-421h-48z" />
    <glyph glyph-name="Japan1.9813" 
d="M311 389l-49 -1v115h-224v37l220 269h53v-265h71v-41h-71v-114zM93 544h169v157c0 18 1 37 3 56h-1c-23 -30 -59 -74 -81 -102l-90 -108v-3zM738 810l-560 -860h-50l561 860h49zM584 -50v371h-2l-63 -32l-12 42l81 40h44v-421h-48zM881 -50v371h-2l-63 -32l-13 42l82 40
h44v-421h-48z" />
    <glyph glyph-name="Japan1.9814" 
d="M736 810l-560 -860h-49l560 860h49zM325 803v-43h-194l-18 -109c11 3 23 4 45 4c66 0 173 -26 173 -129c0 -85 -66 -137 -172 -137c-57 0 -100 14 -121 28l15 39c20 -12 59 -25 108 -25c68 0 119 35 119 91s-38 92 -140 92c-30 0 -56 -4 -77 -8l32 197h230zM584 -50v371
h-2l-63 -32l-12 42l81 40h44v-421h-48zM881 -50v371h-2l-63 -32l-13 42l82 40h44v-421h-48z" />
    <glyph glyph-name="Japan1.9815" 
d="M311 810v-43c-69 5 -207 -31 -222 -155h2c23 29 66 54 123 54c85 0 148 -50 148 -135c0 -77 -59 -142 -161 -142c-93 0 -163 60 -163 175c0 135 95 246 273 246zM205 430c69 0 106 42 106 100c0 66 -45 96 -112 96c-65 0 -112 -51 -112 -76c0 -67 40 -120 118 -120z
M736 810l-560 -860h-49l560 860h49zM584 -50v371h-2l-63 -32l-12 42l81 40h44v-421h-48zM881 -50v371h-2l-63 -32l-13 42l82 40h44v-421h-48z" />
    <glyph glyph-name="Japan1.9816" 
d="M736 810l-560 -860h-49l560 860h49zM38 803h308v-34l-200 -380h-56l198 369v2h-250v43zM584 -50v371h-2l-63 -32l-12 42l81 40h44v-421h-48zM881 -50v371h-2l-63 -32l-13 42l82 40h44v-421h-48z" />
    <glyph glyph-name="Japan1.9817" 
d="M139 609v2c-61 18 -82 53 -82 93c0 62 65 106 152 106c96 0 143 -48 143 -99c0 -34 -15 -82 -84 -99v-2c70 -14 103 -55 103 -104c0 -72 -77 -117 -167 -117c-97 0 -166 46 -166 110c0 48 33 92 101 110zM208 770c-72 0 -104 -33 -104 -64c0 -44 42 -65 111 -75
c55 8 90 35 90 75c0 28 -25 64 -97 64zM204 429c76 0 116 34 116 70c0 51 -43 78 -127 89c-68 -10 -104 -45 -104 -84c0 -41 42 -75 115 -75zM737 810l-560 -860h-50l561 860h49zM584 -50v371h-2l-63 -32l-12 42l81 40h44v-421h-48zM881 -50v371h-2l-63 -32l-13 42l82 40h44
v-421h-48z" />
    <glyph glyph-name="Japan1.9818" 
d="M88 389v42c159 0 214 91 222 155h-2c-23 -28 -66 -54 -123 -54c-85 0 -147 50 -147 135c0 78 59 143 161 143c92 0 163 -61 163 -175c0 -126 -86 -246 -274 -246zM194 768c-69 0 -106 -41 -106 -99c0 -66 45 -96 112 -96c63 0 113 50 113 76c0 66 -41 119 -119 119z
M736 810l-560 -860h-49l560 860h49zM584 -50v371h-2l-63 -32l-12 42l81 40h44v-421h-48zM881 -50v371h-2l-63 -32l-13 42l82 40h44v-421h-48z" />
    <glyph glyph-name="Japan1.9819" 
d="M341 389c-97 0 -126 123 -126 208c0 144 59 213 130 213c77 0 125 -68 125 -205c0 -139 -43 -216 -129 -216zM342 429c54 0 80 65 80 172c0 105 -23 168 -78 168c-47 0 -79 -62 -79 -168c0 -112 30 -172 77 -172zM114 389v370h-2l-62 -32l-13 43l81 40h44v-421h-48z
M804 810l-560 -860h-49l560 860h49zM634 -50v371h-2l-63 -32l-13 42l82 40h44v-421h-48zM884 -50v371h-2l-63 -32l-12 42l81 40h44v-421h-48z" />
    <glyph glyph-name="Japan1.9820" 
d="M200 389v373h-2l-97 -45l-13 39l115 53h46v-420h-49zM738 810l-560 -860h-49l560 860h49zM584 -50v371h-2l-63 -32l-12 42l81 40h44v-421h-48zM962 -50h-260v27l38 36c127 118 166 167 166 229c0 44 -18 86 -74 86c-31 0 -61 -22 -80 -46l-25 32c31 38 74 57 118 57
c79 0 111 -66 111 -120c0 -78 -41 -131 -151 -232l-24 -21v-1h181v-47z" />
    <glyph glyph-name="Japan1.9821" 
d="M738 810l-560 -860h-49l560 860h49zM325 803v-43h-194l-18 -109c11 3 23 4 45 4c66 0 173 -26 173 -129c0 -85 -66 -137 -172 -137c-57 0 -100 14 -121 28l15 39c20 -12 59 -25 108 -25c68 0 119 35 119 91s-38 92 -140 92c-30 0 -56 -4 -77 -8l32 197h230zM584 -50v371
h-2l-63 -32l-12 42l81 40h44v-421h-48zM962 -50h-260v27l38 36c127 118 166 167 166 229c0 44 -18 86 -74 86c-31 0 -61 -22 -80 -46l-25 32c31 38 74 57 118 57c79 0 111 -66 111 -120c0 -78 -41 -131 -151 -232l-24 -21v-1h181v-47z" />
    <glyph glyph-name="Japan1.9822" 
d="M738 810l-560 -860h-49l560 860h49zM38 803h308v-34l-200 -380h-56l198 369v2h-250v43zM584 -50v371h-2l-63 -32l-12 42l81 40h44v-421h-48zM962 -50h-260v27l38 36c127 118 166 167 166 229c0 44 -18 86 -74 86c-31 0 -61 -22 -80 -46l-25 32c31 38 74 57 118 57
c79 0 111 -66 111 -120c0 -78 -41 -131 -151 -232l-24 -21v-1h181v-47z" />
    <glyph glyph-name="Japan1.9823" 
d="M115 389v371h-2l-63 -32l-12 42l81 40h44v-421h-48zM779 810l-560 -860h-49l560 860h49zM363 389v371h-2l-63 -32l-13 42l81 40h45v-421h-48zM595 -50v371h-2l-63 -32l-13 42l82 40h44v-421h-48zM962 -50h-253v29l36 36c125 117 161 166 161 227c0 44 -18 86 -72 86
c-30 0 -58 -20 -76 -43l-24 32c30 36 71 54 113 54c78 0 109 -67 109 -118c0 -78 -39 -132 -149 -234l-22 -21v-1h177v-47z" />
    <glyph glyph-name="Japan1.9824" 
d="M665 -50c-39 0 -86 24 -86 209c0 152 30 212 88 212c59 0 85 -59 85 -204c0 -149 -22 -217 -87 -217zM666 -9c30 0 43 43 43 172c0 114 -8 168 -43 168c-31 0 -43 -53 -43 -168c0 -122 11 -172 43 -172zM876 -50c-39 0 -86 24 -86 209c0 152 31 212 88 212
c59 0 85 -59 85 -204c0 -149 -22 -217 -87 -217zM877 -9c30 0 43 43 43 172c0 114 -8 168 -42 168c-31 0 -44 -53 -44 -168c0 -122 12 -172 43 -172zM665 810l-559 -860h-50l561 860h48zM167 389v374h-2l-89 -41l-13 39l107 49h44v-421h-47zM489 -50v371h-2l-63 -32l-13 42
l82 40h39v-421h-43z" />
    <glyph glyph-name="Japan1.9825" 
d="M498 461c-93 0 -164 65 -164 188c0 129 77 193 168 193c99 0 164 -63 164 -185c0 -124 -59 -196 -168 -196zM498 500c92 0 118 77 118 154c0 91 -36 149 -115 149c-68 0 -117 -57 -117 -149c0 -100 46 -154 114 -154zM942 398v-36h-884v36h884zM338 -54l17 36
c19 -10 71 -24 124 -24c107 0 129 41 129 68c0 51 -54 72 -148 72h-44v39h44c59 0 127 19 127 65c0 29 -24 57 -100 57c-45 0 -89 -15 -112 -28l-17 36c27 15 81 32 136 32c103 0 144 -47 144 -92c0 -40 -32 -74 -97 -87v-2c70 -3 118 -37 118 -93c0 -60 -58 -107 -185 -107
c-61 0 -112 14 -136 28z" />
    <glyph glyph-name="Japan1.9826" 
d="M489 461v340h-2l-91 -40l-12 34l108 47h46v-381h-49zM942 398v-36h-884v36h884zM656 -76h-312v23l51 37c142 108 197 147 197 200c0 38 -22 74 -93 74c-45 0 -86 -21 -108 -43l-24 33c37 34 88 51 141 51c96 0 134 -58 134 -106c0 -47 -9 -87 -205 -226v-2h219v-41z" />
    <glyph glyph-name="Japan1.9827" 
d="M489 461v340h-2l-91 -40l-12 34l108 47h46v-381h-49zM942 398v-36h-884v36h884zM338 -54l17 36c19 -10 71 -24 124 -24c107 0 129 41 129 68c0 51 -54 72 -148 72h-44v39h44c59 0 127 19 127 65c0 29 -24 57 -100 57c-45 0 -89 -15 -112 -28l-17 36c27 15 81 32 136 32
c103 0 144 -47 144 -92c0 -40 -32 -74 -97 -87v-2c70 -3 118 -37 118 -93c0 -60 -58 -107 -185 -107c-61 0 -112 14 -136 28z" />
    <glyph glyph-name="Japan1.9828" 
d="M656 467h-312v23l51 38c142 108 197 146 197 199c0 39 -22 75 -93 75c-45 0 -86 -22 -108 -44l-24 34c37 33 88 50 141 50c96 0 134 -58 134 -106c0 -40 0 -81 -205 -226v-2h219v-41zM942 398v-36h-884v36h884zM338 -54l17 36c19 -10 71 -24 124 -24c107 0 129 41 129 68
c0 51 -54 72 -148 72h-44v39h44c59 0 127 19 127 65c0 29 -24 57 -100 57c-45 0 -89 -15 -112 -28l-17 36c27 15 81 32 136 32c103 0 144 -47 144 -92c0 -40 -32 -74 -97 -87v-2c70 -3 118 -37 118 -93c0 -60 -58 -107 -185 -107c-61 0 -112 14 -136 28z" />
    <glyph glyph-name="Japan1.9829" 
d="M602 -82h-49v100h-234v33l226 238h57v-232h72v-39h-72v-100zM380 57h173v126c0 16 1 46 3 62h-3c-21 -25 -62 -68 -85 -93l-88 -93v-2zM489 461v340h-2l-91 -40l-12 34l108 47h46v-381h-49zM942 398v-36h-884v36h884z" />
    <glyph glyph-name="Japan1.9830" 
d="M602 -82h-49v100h-234v33l226 238h57v-232h72v-39h-72v-100zM380 57h173v126c0 16 1 46 3 62h-3c-21 -25 -62 -68 -85 -93l-88 -93v-2zM344 489l17 36c19 -10 71 -24 124 -24c107 0 129 42 129 68c0 51 -54 73 -148 73h-44v39h44c59 -1 127 18 127 64
c0 29 -24 57 -100 57c-45 0 -89 -15 -112 -28l-17 36c27 15 81 32 136 32c103 0 144 -47 144 -92c0 -40 -32 -74 -97 -86v-2c70 -3 118 -38 118 -93c0 -61 -58 -108 -185 -108c-61 0 -112 15 -136 28zM942 398v-36h-884v36h884z" />
    <glyph glyph-name="Japan1.9831" 
d="M489 461v340h-2l-91 -40l-12 34l108 47h46v-381h-49zM942 398v-36h-884v36h884zM643 292v-41h-198l-19 -95c11 2 24 4 47 4c58 0 176 -17 176 -119c0 -77 -67 -123 -175 -123c-59 0 -103 12 -125 26l16 36c20 -11 61 -22 111 -22c69 0 122 31 122 81c0 49 -40 81 -144 81
c-30 0 -58 -3 -79 -7l33 179h235z" />
    <glyph glyph-name="Japan1.9832" 
d="M656 467h-312v23l51 38c142 108 197 146 197 199c0 39 -22 75 -93 75c-45 0 -86 -22 -108 -44l-24 34c37 33 88 50 141 50c96 0 134 -58 134 -106c0 -40 0 -81 -205 -226v-2h219v-41zM942 398v-36h-884v36h884zM643 292v-41h-198l-19 -95c11 2 24 4 47 4
c58 0 176 -17 176 -119c0 -77 -67 -123 -175 -123c-59 0 -103 12 -125 26l16 36c20 -11 61 -22 111 -22c69 0 122 31 122 81c0 49 -40 81 -144 81c-30 0 -58 -3 -79 -7l33 179h235z" />
    <glyph glyph-name="Japan1.9833" 
d="M344 489l17 36c19 -10 71 -24 124 -24c107 0 129 42 129 68c0 51 -54 73 -148 73h-44v39h44c59 -1 127 18 127 64c0 29 -24 57 -100 57c-45 0 -89 -15 -112 -28l-17 36c27 15 81 32 136 32c103 0 144 -47 144 -92c0 -40 -32 -74 -97 -86v-2c70 -3 118 -38 118 -93
c0 -61 -58 -108 -185 -108c-61 0 -112 15 -136 28zM942 398v-36h-884v36h884zM643 292v-41h-198l-19 -95c11 2 24 4 47 4c58 0 176 -17 176 -119c0 -77 -67 -123 -175 -123c-59 0 -103 12 -125 26l16 36c20 -11 61 -22 111 -22c69 0 122 31 122 81c0 49 -40 81 -144 81
c-30 0 -58 -3 -79 -7l33 179h235z" />
    <glyph glyph-name="Japan1.9834" 
d="M602 461h-49v100h-234v33l226 239h57v-233h72v-39h-72v-100zM380 600h173v126c0 16 1 46 3 63h-3c-21 -26 -62 -69 -85 -94l-88 -93v-2zM942 398v-36h-884v36h884zM643 292v-41h-198l-19 -95c11 2 24 4 47 4c58 0 176 -17 176 -119c0 -77 -67 -123 -175 -123
c-59 0 -103 12 -125 26l16 36c20 -11 61 -22 111 -22c69 0 122 31 122 81c0 49 -40 81 -144 81c-30 0 -58 -3 -79 -7l33 179h235z" />
    <glyph glyph-name="Japan1.9835" 
d="M615 299v-40c-178 0 -223 -92 -229 -139h1c23 25 66 50 125 50c90 0 154 -46 154 -123c0 -70 -61 -129 -165 -129c-95 0 -167 54 -167 157c0 110 80 224 281 224zM505 -43c71 0 111 37 111 89c0 59 -48 85 -117 85c-65 0 -116 -41 -116 -68c0 -58 41 -106 122 -106z
M942 398v-36h-884v36h884zM489 461v340h-2l-91 -40l-12 34l108 47h46v-381h-49z" />
    <glyph glyph-name="Japan1.9836" 
d="M615 299v-40c-178 0 -223 -92 -229 -139h1c23 25 66 50 125 50c90 0 154 -46 154 -123c0 -70 -61 -129 -165 -129c-95 0 -167 54 -167 157c0 110 80 224 281 224zM505 -43c71 0 111 37 111 89c0 59 -48 85 -117 85c-65 0 -116 -41 -116 -68c0 -58 41 -106 122 -106z
M942 398v-36h-884v36h884zM643 835v-41h-198l-19 -95c11 2 24 4 47 4c62 0 176 -20 176 -118c0 -77 -67 -124 -175 -124c-59 0 -103 12 -125 26l16 36c20 -10 61 -22 111 -22c69 0 122 31 122 82c0 49 -40 81 -144 81c-30 0 -58 -4 -79 -8l33 179h235z" />
    <glyph glyph-name="Japan1.9837" 
d="M489 461v340h-2l-91 -40l-12 34l108 47h46v-381h-49zM942 398v-36h-884v36h884zM343 292h314v-31l-202 -343h-58l200 332v1h-254v41z" />
    <glyph glyph-name="Japan1.9838" 
d="M656 467h-312v23l51 38c142 108 197 146 197 199c0 39 -22 75 -93 75c-45 0 -86 -22 -108 -44l-24 34c37 33 88 50 141 50c96 0 134 -58 134 -106c0 -40 0 -81 -205 -226v-2h219v-41zM942 398v-36h-884v36h884zM343 292h314v-31l-202 -343h-58l200 332v1h-254v41z" />
    <glyph glyph-name="Japan1.9839" 
d="M344 489l17 36c19 -10 71 -24 124 -24c107 0 129 42 129 68c0 51 -54 73 -148 73h-44v39h44c59 -1 127 18 127 64c0 29 -24 57 -100 57c-45 0 -89 -15 -112 -28l-17 36c27 15 81 32 136 32c103 0 144 -47 144 -92c0 -40 -32 -74 -97 -86v-2c70 -3 118 -38 118 -93
c0 -61 -58 -108 -185 -108c-61 0 -112 15 -136 28zM942 398v-36h-884v36h884zM343 292h314v-31l-202 -343h-58l200 332v1h-254v41z" />
    <glyph glyph-name="Japan1.9840" 
d="M602 461h-49v100h-234v33l226 239h57v-233h72v-39h-72v-100zM380 600h173v126c0 16 1 46 3 63h-3c-21 -26 -62 -69 -85 -94l-88 -93v-2zM942 398v-36h-884v36h884zM343 292h314v-31l-202 -343h-58l200 332v1h-254v41z" />
    <glyph glyph-name="Japan1.9841" 
d="M643 835v-41h-198l-19 -95c11 2 24 4 47 4c62 0 176 -20 176 -118c0 -77 -67 -124 -175 -124c-59 0 -103 12 -125 26l16 36c20 -10 61 -22 111 -22c69 0 122 31 122 82c0 49 -40 81 -144 81c-30 0 -58 -4 -79 -8l33 179h235zM942 398v-36h-884v36h884zM343 292h314v-31
l-202 -343h-58l200 332v1h-254v41z" />
    <glyph glyph-name="Japan1.9842" 
d="M615 842v-40c-177 0 -223 -92 -229 -138h1c23 25 66 49 125 49c90 0 154 -46 154 -123c0 -70 -61 -129 -165 -129c-95 0 -167 54 -167 158c0 107 78 223 281 223zM505 500c71 0 111 37 111 89c0 59 -48 86 -117 86c-64 0 -116 -42 -116 -69c0 -58 41 -106 122 -106z
M942 398v-36h-884v36h884zM343 292h314v-31l-202 -343h-58l200 332v1h-254v41z" />
    <glyph glyph-name="Japan1.9843" 
d="M433 118v1c-62 15 -85 48 -85 84c0 57 67 96 157 96c98 0 147 -43 147 -90c0 -29 -16 -74 -87 -88v-2c72 -13 106 -51 106 -95c0 -66 -79 -106 -172 -106c-99 0 -170 42 -170 100c0 43 35 82 104 100zM504 261c-76 0 -108 -29 -108 -56c0 -40 43 -57 115 -67
c59 8 94 31 94 67c0 25 -26 56 -101 56zM499 -44c80 0 121 29 121 62c0 45 -45 69 -132 79c-69 -9 -107 -39 -107 -75s43 -66 118 -66zM489 461v340h-2l-91 -40l-12 34l108 47h46v-381h-49zM942 398v-36h-884v36h884z" />
    <glyph glyph-name="Japan1.9844" 
d="M433 118v1c-62 15 -85 48 -85 84c0 57 67 96 157 96c98 0 147 -43 147 -90c0 -29 -16 -74 -87 -88v-2c72 -13 106 -51 106 -95c0 -66 -79 -106 -172 -106c-99 0 -170 42 -170 100c0 43 35 82 104 100zM504 261c-76 0 -108 -29 -108 -56c0 -40 43 -57 115 -67
c59 8 94 31 94 67c0 25 -26 56 -101 56zM499 -44c80 0 121 29 121 62c0 45 -45 69 -132 79c-69 -9 -107 -39 -107 -75s43 -66 118 -66zM344 489l17 36c19 -10 71 -24 124 -24c107 0 129 42 129 68c0 51 -54 73 -148 73h-44v39h44c59 -1 127 18 127 64c0 29 -24 57 -100 57
c-45 0 -89 -15 -112 -28l-17 36c27 15 81 32 136 32c103 0 144 -47 144 -92c0 -40 -32 -74 -97 -86v-2c70 -3 118 -38 118 -93c0 -61 -58 -108 -185 -108c-61 0 -112 15 -136 28zM942 398v-36h-884v36h884z" />
    <glyph glyph-name="Japan1.9845" 
d="M433 118v1c-62 15 -85 48 -85 84c0 57 67 96 157 96c98 0 147 -43 147 -90c0 -29 -16 -74 -87 -88v-2c72 -13 106 -51 106 -95c0 -66 -79 -106 -172 -106c-99 0 -170 42 -170 100c0 43 35 82 104 100zM504 261c-76 0 -108 -29 -108 -56c0 -40 43 -57 115 -67
c59 8 94 31 94 67c0 25 -26 56 -101 56zM499 -44c80 0 121 29 121 62c0 45 -45 69 -132 79c-69 -9 -107 -39 -107 -75s43 -66 118 -66zM643 835v-41h-198l-19 -95c11 2 24 4 47 4c62 0 176 -20 176 -118c0 -77 -67 -124 -175 -124c-59 0 -103 12 -125 26l16 36
c20 -10 61 -22 111 -22c69 0 122 31 122 82c0 49 -40 81 -144 81c-30 0 -58 -4 -79 -8l33 179h235zM942 398v-36h-884v36h884z" />
    <glyph glyph-name="Japan1.9846" 
d="M433 118v1c-62 15 -85 48 -85 84c0 57 67 96 157 96c98 0 147 -43 147 -90c0 -29 -16 -74 -87 -88v-2c72 -13 106 -51 106 -95c0 -66 -79 -106 -172 -106c-99 0 -170 42 -170 100c0 43 35 82 104 100zM504 261c-76 0 -108 -29 -108 -56c0 -40 43 -57 115 -67
c59 8 94 31 94 67c0 25 -26 56 -101 56zM499 -44c80 0 121 29 121 62c0 45 -45 69 -132 79c-69 -9 -107 -39 -107 -75s43 -66 118 -66zM343 835h314v-31l-202 -343h-58l200 332v1h-254v41zM942 398v-36h-884v36h884z" />
    <glyph glyph-name="Japan1.9847" 
d="M385 -82v40c179 0 223 94 229 138h-1c-23 -25 -66 -49 -125 -49c-90 0 -154 46 -154 123c0 70 61 129 165 129c95 0 167 -54 167 -158c0 -107 -78 -223 -281 -223zM495 260c-72 0 -111 -37 -111 -89c0 -59 48 -86 116 -86c66 0 117 42 117 69c0 58 -41 106 -122 106z
M489 461v340h-2l-91 -40l-12 34l108 47h46v-381h-49zM942 398v-36h-884v36h884z" />
    <glyph glyph-name="Japan1.9848" 
d="M385 -82v40c179 0 223 94 229 138h-1c-23 -25 -66 -49 -125 -49c-90 0 -154 46 -154 123c0 70 61 129 165 129c95 0 167 -54 167 -158c0 -107 -78 -223 -281 -223zM495 260c-72 0 -111 -37 -111 -89c0 -59 48 -86 116 -86c66 0 117 42 117 69c0 58 -41 106 -122 106z
M656 467h-312v23l51 38c142 108 197 146 197 199c0 39 -22 75 -93 75c-45 0 -86 -22 -108 -44l-24 34c37 33 88 50 141 50c96 0 134 -58 134 -106c0 -40 0 -81 -205 -226v-2h219v-41zM942 398v-36h-884v36h884z" />
    <glyph glyph-name="Japan1.9849" 
d="M602 461h-49v100h-234v33l226 239h57v-233h72v-39h-72v-100zM380 600h173v126c0 16 1 46 3 63h-3c-21 -26 -62 -69 -85 -94l-88 -93v-2zM385 -82v40c179 0 223 94 229 138h-1c-23 -25 -66 -49 -125 -49c-90 0 -154 46 -154 123c0 70 61 129 165 129
c95 0 167 -54 167 -158c0 -107 -78 -223 -281 -223zM495 260c-72 0 -111 -37 -111 -89c0 -59 48 -86 116 -86c66 0 117 42 117 69c0 58 -41 106 -122 106zM942 398v-36h-884v36h884z" />
    <glyph glyph-name="Japan1.9850" 
d="M385 -82v40c179 0 223 94 229 138h-1c-23 -25 -66 -49 -125 -49c-90 0 -154 46 -154 123c0 70 61 129 165 129c95 0 167 -54 167 -158c0 -107 -78 -223 -281 -223zM495 260c-72 0 -111 -37 -111 -89c0 -59 48 -86 116 -86c66 0 117 42 117 69c0 58 -41 106 -122 106z
M643 835v-41h-198l-19 -95c11 2 24 4 47 4c62 0 176 -20 176 -118c0 -77 -67 -124 -175 -124c-59 0 -103 12 -125 26l16 36c20 -10 61 -22 111 -22c69 0 122 31 122 82c0 49 -40 81 -144 81c-30 0 -58 -4 -79 -8l33 179h235zM942 398v-36h-884v36h884z" />
    <glyph glyph-name="Japan1.9851" 
d="M385 -82v40c179 0 223 94 229 138h-1c-23 -25 -66 -49 -125 -49c-90 0 -154 46 -154 123c0 70 61 129 165 129c95 0 167 -54 167 -158c0 -107 -78 -223 -281 -223zM495 260c-72 0 -111 -37 -111 -89c0 -59 48 -86 116 -86c66 0 117 42 117 69c0 58 -41 106 -122 106z
M343 835h314v-31l-202 -343h-58l200 332v1h-254v41zM942 398v-36h-884v36h884z" />
    <glyph glyph-name="Japan1.9852" 
d="M433 661v1c-62 16 -85 48 -85 84c0 57 67 96 157 96c98 0 147 -43 147 -90c0 -29 -16 -74 -87 -88v-2c72 -13 106 -51 106 -95c0 -66 -79 -106 -172 -106c-99 0 -170 42 -170 100c0 43 35 83 104 100zM504 804c-76 0 -108 -29 -108 -56c0 -39 43 -57 115 -67
c59 8 94 31 94 67c0 25 -26 56 -101 56zM499 500c80 0 121 28 121 61c0 46 -45 70 -132 79c-69 -8 -107 -39 -107 -75s43 -65 118 -65zM385 -82v40c179 0 223 94 229 138h-1c-23 -25 -66 -49 -125 -49c-90 0 -154 46 -154 123c0 70 61 129 165 129c95 0 167 -54 167 -158
c0 -107 -78 -223 -281 -223zM495 260c-72 0 -111 -37 -111 -89c0 -59 48 -86 116 -86c66 0 117 42 117 69c0 58 -41 106 -122 106zM942 398v-36h-884v36h884z" />
    <glyph glyph-name="Japan1.9853" 
d="M599 -82c-93 0 -164 65 -164 188c0 128 77 193 168 193c99 0 163 -64 163 -185c0 -124 -58 -196 -167 -196zM599 -43c92 0 118 77 118 154c0 91 -36 149 -115 149c-68 0 -117 -57 -117 -149c0 -100 46 -154 114 -154zM489 461v340h-2l-91 -40l-12 34l108 47h46v-381h-49z
M942 398v-36h-884v36h884zM319 -82v340h-2l-91 -40l-12 34l108 47h45v-381h-48z" />
    <glyph glyph-name="Japan1.9854" 
d="M599 -82c-93 0 -164 65 -164 188c0 128 77 193 168 193c99 0 163 -64 163 -185c0 -124 -58 -196 -167 -196zM599 -43c92 0 118 77 118 154c0 91 -36 149 -115 149c-68 0 -117 -57 -117 -149c0 -100 46 -154 114 -154zM344 489l17 36c19 -10 71 -24 124 -24
c107 0 129 42 129 68c0 51 -54 73 -148 73h-44v39h44c59 -1 127 18 127 64c0 29 -24 57 -100 57c-45 0 -89 -15 -112 -28l-17 36c27 15 81 32 136 32c103 0 144 -47 144 -92c0 -40 -32 -74 -97 -86v-2c70 -3 118 -38 118 -93c0 -61 -58 -108 -185 -108
c-61 0 -112 15 -136 28zM942 398v-36h-884v36h884zM319 -82v340h-2l-91 -40l-12 34l108 47h45v-381h-48z" />
    <glyph glyph-name="Japan1.9855" 
d="M599 -82c-93 0 -164 65 -164 188c0 128 77 193 168 193c99 0 163 -64 163 -185c0 -124 -58 -196 -167 -196zM599 -43c92 0 118 77 118 154c0 91 -36 149 -115 149c-68 0 -117 -57 -117 -149c0 -100 46 -154 114 -154zM343 835h314v-31l-202 -343h-58l200 332v1h-254v41z
M942 398v-36h-884v36h884zM319 -82v340h-2l-91 -40l-12 34l108 47h45v-381h-48z" />
    <glyph glyph-name="Japan1.9856" 
d="M385 461v40c180 0 223 94 229 139h-1c-23 -25 -66 -50 -125 -50c-90 0 -154 46 -154 123c0 70 61 129 165 129c95 0 167 -54 167 -157c0 -110 -80 -224 -281 -224zM495 803c-72 0 -111 -37 -111 -89c0 -59 48 -85 116 -85c67 0 117 41 117 68c0 58 -41 106 -122 106z
M599 -82c-93 0 -164 65 -164 188c0 128 77 193 168 193c99 0 163 -64 163 -185c0 -124 -58 -196 -167 -196zM599 -43c92 0 118 77 118 154c0 91 -36 149 -115 149c-68 0 -117 -57 -117 -149c0 -100 46 -154 114 -154zM942 398v-36h-884v36h884zM319 -82v340h-2l-91 -40
l-12 34l108 47h45v-381h-48z" />
    <glyph glyph-name="Japan1.9857" 
d="M489 461v340h-2l-91 -40l-12 34l108 47h46v-381h-49zM942 398v-36h-884v36h884zM324 -82v340h-2l-90 -40l-12 34l108 47h45v-381h-49zM676 -82v340h-2l-90 -40l-13 34l109 47h45v-381h-49z" />
    <glyph glyph-name="Japan1.9858" 
d="M656 467h-312v23l51 38c142 108 197 146 197 199c0 39 -22 75 -93 75c-45 0 -86 -22 -108 -44l-24 34c37 33 88 50 141 50c96 0 134 -58 134 -106c0 -40 0 -81 -205 -226v-2h219v-41zM942 398v-36h-884v36h884zM324 -82v340h-2l-90 -40l-12 34l108 47h45v-381h-49z
M676 -82v340h-2l-90 -40l-13 34l109 47h45v-381h-49z" />
    <glyph glyph-name="Japan1.9859" 
d="M344 489l17 36c19 -10 71 -24 124 -24c107 0 129 42 129 68c0 51 -54 73 -148 73h-44v39h44c59 -1 127 18 127 64c0 29 -24 57 -100 57c-45 0 -89 -15 -112 -28l-17 36c27 15 81 32 136 32c103 0 144 -47 144 -92c0 -40 -32 -74 -97 -86v-2c70 -3 118 -38 118 -93
c0 -61 -58 -108 -185 -108c-61 0 -112 15 -136 28zM942 398v-36h-884v36h884zM324 -82v340h-2l-90 -40l-12 34l108 47h45v-381h-49zM676 -82v340h-2l-90 -40l-13 34l109 47h45v-381h-49z" />
    <glyph glyph-name="Japan1.9860" 
d="M602 461h-49v100h-234v33l226 239h57v-233h72v-39h-72v-100zM380 600h173v126c0 16 1 46 3 63h-3c-21 -26 -62 -69 -85 -94l-88 -93v-2zM942 398v-36h-884v36h884zM324 -82v340h-2l-90 -40l-12 34l108 47h45v-381h-49zM676 -82v340h-2l-90 -40l-13 34l109 47h45v-381h-49
z" />
    <glyph glyph-name="Japan1.9861" 
d="M643 835v-41h-198l-19 -95c11 2 24 4 47 4c62 0 176 -20 176 -118c0 -77 -67 -124 -175 -124c-59 0 -103 12 -125 26l16 36c20 -10 61 -22 111 -22c69 0 122 31 122 82c0 49 -40 81 -144 81c-30 0 -58 -4 -79 -8l33 179h235zM942 398v-36h-884v36h884zM324 -82v340h-2
l-90 -40l-12 34l108 47h45v-381h-49zM676 -82v340h-2l-90 -40l-13 34l109 47h45v-381h-49z" />
    <glyph glyph-name="Japan1.9862" 
d="M615 842v-40c-177 0 -223 -92 -229 -138h1c23 25 66 49 125 49c90 0 154 -46 154 -123c0 -70 -61 -129 -165 -129c-95 0 -167 54 -167 158c0 107 78 223 281 223zM505 500c71 0 111 37 111 89c0 59 -48 86 -117 86c-64 0 -116 -42 -116 -69c0 -58 41 -106 122 -106z
M942 398v-36h-884v36h884zM324 -82v340h-2l-90 -40l-12 34l108 47h45v-381h-49zM676 -82v340h-2l-90 -40l-13 34l109 47h45v-381h-49z" />
    <glyph glyph-name="Japan1.9863" 
d="M343 835h314v-31l-202 -343h-58l200 332v1h-254v41zM942 398v-36h-884v36h884zM324 -82v340h-2l-90 -40l-12 34l108 47h45v-381h-49zM676 -82v340h-2l-90 -40l-13 34l109 47h45v-381h-49z" />
    <glyph glyph-name="Japan1.9864" 
d="M433 661v1c-62 16 -85 48 -85 84c0 57 67 96 157 96c98 0 147 -43 147 -90c0 -29 -16 -74 -87 -88v-2c72 -13 106 -51 106 -95c0 -66 -79 -106 -172 -106c-99 0 -170 42 -170 100c0 43 35 83 104 100zM504 804c-76 0 -108 -29 -108 -56c0 -39 43 -57 115 -67
c59 8 94 31 94 67c0 25 -26 56 -101 56zM499 500c80 0 121 28 121 61c0 46 -45 70 -132 79c-69 -8 -107 -39 -107 -75s43 -65 118 -65zM942 398v-36h-884v36h884zM324 -82v340h-2l-90 -40l-12 34l108 47h45v-381h-49zM676 -82v340h-2l-90 -40l-13 34l109 47h45v-381h-49z
" />
    <glyph glyph-name="Japan1.9865" 
d="M385 461v40c180 0 223 94 229 139h-1c-23 -25 -66 -50 -125 -50c-90 0 -154 46 -154 123c0 70 61 129 165 129c95 0 167 -54 167 -157c0 -110 -80 -224 -281 -224zM495 803c-72 0 -111 -37 -111 -89c0 -59 48 -85 116 -85c67 0 117 41 117 68c0 58 -41 106 -122 106z
M942 398v-36h-884v36h884zM324 -82v340h-2l-90 -40l-12 34l108 47h45v-381h-49zM676 -82v340h-2l-90 -40l-13 34l109 47h45v-381h-49z" />
    <glyph glyph-name="Japan1.9866" 
d="M599 461c-93 0 -164 65 -164 188c0 129 77 193 168 193c99 0 163 -63 163 -185c0 -124 -58 -196 -167 -196zM599 500c92 0 118 77 118 154c0 91 -36 149 -115 149c-68 0 -117 -57 -117 -149c0 -100 46 -154 114 -154zM319 461v340h-2l-91 -40l-12 34l108 47h45v-381h-48z
M942 398v-36h-884v36h884zM324 -82v340h-2l-90 -40l-12 34l108 47h45v-381h-49zM676 -82v340h-2l-90 -40l-13 34l109 47h45v-381h-49z" />
    <glyph glyph-name="Japan1.9867" 
d="M489 461v340h-2l-91 -40l-12 34l108 47h46v-381h-49zM942 398v-36h-884v36h884zM319 -82v340h-2l-90 -40l-13 34l109 47h45v-381h-49zM768 -76h-312v23l51 37c142 108 197 147 197 200c0 38 -22 74 -93 74c-45 0 -86 -21 -108 -43l-24 33c37 34 88 51 141 51
c96 0 134 -58 134 -106c0 -47 -9 -87 -205 -226v-2h219v-41z" />
    <glyph glyph-name="Japan1.9868" 
d="M643 835v-41h-198l-19 -95c11 2 24 4 47 4c62 0 176 -20 176 -118c0 -77 -67 -124 -175 -124c-59 0 -103 12 -125 26l16 36c20 -10 61 -22 111 -22c69 0 122 31 122 82c0 49 -40 81 -144 81c-30 0 -58 -4 -79 -8l33 179h235zM942 398v-36h-884v36h884zM319 -82v340h-2
l-90 -40l-13 34l109 47h45v-381h-49zM768 -76h-312v23l51 37c142 108 197 147 197 200c0 38 -22 74 -93 74c-45 0 -86 -21 -108 -43l-24 33c37 34 88 51 141 51c96 0 134 -58 134 -106c0 -47 -9 -87 -205 -226v-2h219v-41z" />
    <glyph glyph-name="Japan1.9869" 
d="M343 835h314v-31l-202 -343h-58l200 332v1h-254v41zM942 398v-36h-884v36h884zM319 -82v340h-2l-90 -40l-13 34l109 47h45v-381h-49zM768 -76h-312v23l51 37c142 108 197 147 197 200c0 38 -22 74 -93 74c-45 0 -86 -21 -108 -43l-24 33c37 34 88 51 141 51
c96 0 134 -58 134 -106c0 -47 -9 -87 -205 -226v-2h219v-41z" />
    <glyph glyph-name="Japan1.9870" 
d="M316 461v340h-2l-90 -40l-13 34l108 47h46v-381h-49zM668 461v340h-2l-90 -40l-13 34l108 47h46v-381h-49zM942 398v-36h-884v36h884zM319 -82v340h-2l-90 -40l-13 34l109 47h45v-381h-49zM768 -76h-312v23l51 37c142 108 197 147 197 200c0 38 -22 74 -93 74
c-45 0 -86 -21 -108 -43l-24 33c37 34 88 51 141 51c96 0 134 -58 134 -106c0 -47 -9 -87 -205 -226v-2h219v-41z" />
    <glyph glyph-name="Japan1.9871" 
d="M457 -82c-81 0 -121 71 -121 188c0 132 50 193 124 193c79 0 120 -60 120 -185c0 -128 -38 -196 -123 -196zM456 -43c49 0 76 36 76 154c0 94 -18 149 -74 149c-49 0 -74 -55 -74 -149c0 -103 24 -154 72 -154zM753 -82c-81 0 -121 71 -121 188c0 132 50 193 124 193
c79 0 120 -60 120 -185c0 -128 -37 -196 -123 -196zM753 -43c52 0 75 45 75 154c0 94 -17 149 -74 149c-48 0 -74 -55 -74 -149c0 -103 24 -154 73 -154zM489 461v340h-2l-91 -40l-12 34l108 47h46v-381h-49zM942 398v-36h-884v36h884zM210 -82v340h-2l-85 -38l-13 34
l104 45h44v-381h-48z" />
    <glyph glyph-name="Japan1.9872" 
d="M500 -13c-121 0 -212 129 -212 382c0 271 107 390 215 390c129 0 209 -122 209 -380c0 -265 -92 -392 -212 -392zM499 35c108 0 158 140 158 336c0 201 -42 340 -156 340c-70 0 -158 -84 -158 -348c0 -191 54 -328 156 -328z" />
    <glyph glyph-name="Japan1.9873" 
d="M516 -11v710h-2l-138 -83l-20 41l164 101h51v-769h-55z" />
    <glyph glyph-name="Japan1.9874" 
d="M710 0h-420v35l65 75c197 232 281 341 281 455c0 78 -38 147 -132 147c-63 0 -118 -46 -149 -92l-33 34c44 62 106 105 189 105c129 0 180 -95 180 -182c0 -146 -92 -257 -274 -468l-48 -57v-3h341v-49z" />
    <glyph glyph-name="Japan1.9875" 
d="M342 659l-23 40c50 39 107 60 173 60c138 0 188 -95 188 -180c0 -87 -48 -151 -144 -184v-2c103 -15 175 -83 175 -185c0 -111 -66 -221 -237 -221c-66 0 -135 22 -185 65l24 44c44 -37 98 -61 167 -61c137 0 175 102 175 171c0 115 -96 161 -226 161h-40v45h41
c91 0 196 50 196 159c0 72 -37 142 -138 142c-57 0 -102 -20 -146 -54z" />
    <glyph glyph-name="Japan1.9876" 
d="M641 -11h-52v201h-320v37l323 531h49v-521h90v-47h-90v-201zM329 237h260v325c1 33 2 83 5 116h-3c-21 -39 -41 -77 -57 -106l-205 -332v-3z" />
    <glyph glyph-name="Japan1.9877" 
d="M696 747v-49h-261l-36 -236c16 3 32 4 63 4c129 0 238 -82 238 -228c0 -149 -108 -251 -240 -251c-70 0 -130 24 -160 47l20 43c28 -19 79 -43 143 -43c104 0 183 82 182 194c-1 115 -68 194 -204 194c-40 0 -73 -4 -96 -8l46 333h305z" />
    <glyph glyph-name="Japan1.9878" 
d="M649 759l4 -51c-22 -1 -48 -3 -75 -10c-132 -34 -216 -172 -230 -314h2c31 52 86 101 165 101c123 0 197 -102 197 -238c0 -128 -69 -260 -208 -260c-117 0 -216 107 -216 311c0 311 192 461 361 461zM509 32c89 0 148 85 148 213s-65 196 -155 196
c-87 0 -159 -89 -159 -153c0 -146 56 -256 166 -256z" />
    <glyph glyph-name="Japan1.9879" 
d="M293 747h413v-43l-286 -715h-57l286 707v2h-356v49z" />
    </font>
</defs>
</svg>
