<?xml version="1.0" standalone="no"?>
<!DOCTYPE svg PUBLIC "-//W3C//DTD SVG 1.1//EN" "http://www.w3.org/Graphics/SVG/1.1/DTD/svg11.dtd" >
<svg>
<metadata>
Created by FontForge 20120731 at Mon Nov 25 07:00:08 2019
 By www
</metadata>
<defs>
<font id="KozGoPro-Bold-AlphaNum" horiz-adv-x="1000" vert-adv-y="1000" >
  <font-face 
    font-family="(null)"
    font-weight="700"
    font-stretch="normal"
    units-per-em="1000"
    panose-1="2 0 8 3 0 0 0 0 0 0"
    ascent="800"
    descent="-200"
    x-height="557"
    cap-height="769"
    bbox="9 -93 979 854"
    underline-thickness="50"
    underline-position="-100"
    stemh="37"
    stemv="97"
    unicode-range="U+2156-32BF"
  />
    <missing-glyph />
    <glyph glyph-name="Japan1.7555" unicode="&#x2460;" 
d="M972 380c0 -262 -214 -472 -472 -472c-260 0 -472 212 -472 472s212 472 472 472s472 -212 472 -472zM500 815c-242 0 -435 -197 -435 -435c0 -240 195 -435 435 -435s435 195 435 435s-195 435 -435 435zM457 121v411h-1l-97 -46l-20 92l134 61h102v-518h-118z" />
    <glyph glyph-name="Japan1.7556" unicode="&#x2461;" 
d="M972 380c0 -262 -214 -472 -472 -472c-260 0 -472 212 -472 472s212 472 472 472s472 -212 472 -472zM500 815c-242 0 -435 -197 -435 -435c0 -240 195 -435 435 -435s435 195 435 435s-195 435 -435 435zM684 123h-368v75l66 60c119 106 170 158 171 215
c0 39 -26 74 -87 74c-43 0 -83 -21 -111 -41l-32 87c40 30 101 52 168 52c124 0 182 -73 182 -160c0 -91 -59 -151 -150 -223l-49 -37v-2h210v-100z" />
    <glyph glyph-name="Japan1.7557" unicode="&#x2462;" 
d="M972 380c0 -262 -214 -472 -472 -472c-260 0 -472 212 -472 472s212 472 472 472s472 -212 472 -472zM500 815c-242 0 -435 -197 -435 -435c0 -240 195 -435 435 -435s435 195 435 435s-195 435 -435 435zM318 150l23 93c22 -13 72 -32 119 -32c68 0 96 33 96 67
c0 52 -55 73 -109 73h-46v87h45c43 0 94 15 94 58c0 29 -23 53 -76 53c-42 0 -85 -16 -107 -30l-24 88c31 19 93 38 158 38c114 0 173 -60 173 -128c0 -54 -32 -97 -94 -118v-2c64 -13 111 -61 111 -125c0 -88 -77 -157 -212 -157c-67 0 -123 17 -151 35z" />
    <glyph glyph-name="Japan1.7558" unicode="&#x2463;" 
d="M972 380c0 -262 -214 -472 -472 -472c-260 0 -472 212 -472 472s212 472 472 472s472 -212 472 -472zM500 815c-242 0 -435 -197 -435 -435c0 -240 195 -435 435 -435s435 195 435 435s-195 435 -435 435zM629 121h-114v121h-233v79l204 318h143v-306h62v-91h-62v-121z
M383 333h132v120c0 26 1 67 3 96l-2 1c-15 -31 -34 -67 -51 -97l-82 -118v-2z" />
    <glyph glyph-name="Japan1.7559" unicode="&#x2464;" 
d="M972 380c0 -262 -214 -472 -472 -472c-260 0 -472 212 -472 472s212 472 472 472s472 -212 472 -472zM500 815c-242 0 -435 -197 -435 -435c0 -240 195 -435 435 -435s435 195 435 435s-195 435 -435 435zM662 637v-100h-198l-11 -78c11 2 22 3 34 3
c81 0 196 -37 196 -167c0 -96 -83 -180 -221 -180c-63 0 -115 15 -143 28l21 92c24 -11 69 -26 115 -26c53 0 103 27 103 77c0 55 -42 86 -143 86c-27 0 -49 -2 -69 -5l31 270h285z" />
    <glyph glyph-name="Japan1.7560" unicode="&#x2465;" 
d="M972 380c0 -262 -214 -472 -472 -472c-260 0 -472 212 -472 472s212 472 472 472s472 -212 472 -472zM500 815c-242 0 -435 -197 -435 -435c0 -240 195 -435 435 -435s435 195 435 435s-195 435 -435 435zM641 645v-95c-15 1 -30 0 -51 -2c-64 -4 -139 -26 -164 -121h3
c29 28 65 40 110 40c89 0 158 -64 158 -165c0 -100 -78 -187 -193 -187c-132 0 -201 95 -201 224c0 146 80 293 280 304c17 2 39 2 58 2zM506 195c49 0 75 50 75 103c-1 43 -25 92 -80 92c-15 0 -84 -7 -84 -82c0 -20 9 -113 89 -113z" />
    <glyph glyph-name="Japan1.7561" unicode="&#x2466;" 
d="M972 380c0 -262 -214 -472 -472 -472c-260 0 -472 212 -472 472s212 472 472 472s472 -212 472 -472zM500 815c-242 0 -435 -197 -435 -435c0 -240 195 -435 435 -435s435 195 435 435s-195 435 -435 435zM325 637h365v-78l-215 -438h-128l215 414v2h-237v100z" />
    <glyph glyph-name="Japan1.7562" unicode="&#x2467;" 
d="M396 387v2c-52 26 -75 68 -75 112c0 87 79 144 183 144c120 0 174 -66 174 -131c0 -41 -21 -87 -77 -113v-2c54 -19 96 -62 96 -127c0 -98 -83 -157 -200 -157c-125 0 -193 66 -193 144c0 60 33 103 92 128zM502 571c-48 0 -71 -30 -71 -68c0 -36 33 -62 82 -75
c32 8 59 36 59 72c0 33 -19 71 -70 71zM420 271v-2c0 -40 31 -80 82 -80c54 0 80 37 80 73c0 50 -39 81 -94 93c-42 -12 -68 -42 -68 -84zM972 380c0 -262 -214 -472 -472 -472c-260 0 -472 212 -472 472s212 472 472 472s472 -212 472 -472zM500 815
c-242 0 -435 -197 -435 -435c0 -240 195 -435 435 -435s435 195 435 435s-195 435 -435 435z" />
    <glyph glyph-name="Japan1.7563" unicode="&#x2468;" 
d="M972 380c0 -262 -214 -472 -472 -472c-260 0 -472 212 -472 472s212 472 472 472s472 -212 472 -472zM500 815c-242 0 -435 -197 -435 -435c0 -240 195 -435 435 -435s435 195 435 435s-195 435 -435 435zM359 115v95c15 -1 30 0 51 2c91 5 146 48 163 121h-3
c-28 -28 -65 -40 -110 -40c-89 0 -157 64 -157 165c0 100 78 187 193 187c131 0 201 -95 201 -224c0 -159 -92 -296 -280 -304c-17 -2 -39 -2 -58 -2zM495 565h-1c-50 0 -75 -50 -75 -103c0 -43 25 -92 80 -92c37 0 66 21 78 46c4 7 6 18 6 36c-3 56 -28 113 -88 113z" />
    <glyph glyph-name="Japan1.7564" unicode="&#x2469;" 
d="M972 379c0 -262 -214 -472 -472 -472c-260 0 -472 212 -472 472s212 472 472 472s472 -212 472 -472zM500 814c-242 0 -435 -197 -435 -435c0 -240 195 -435 435 -435s435 195 435 435s-195 435 -435 435zM645 131c-112 0 -150 125 -151 245c0 136 49 251 154 251
c121 0 148 -135 148 -244c0 -173 -67 -252 -151 -252zM646 216c33 0 51 38 51 164c0 105 -12 162 -49 162c-55 0 -55 -120 -55 -178c0 -105 19 -148 53 -148zM295 136v392h-1l-82 -41l-16 79l109 56h91v-486h-101z" />
    <glyph glyph-name="Japan1.7565" unicode="&#x246a;" 
d="M972 380c0 -262 -214 -472 -472 -472c-260 0 -472 212 -472 472s212 472 472 472s472 -212 472 -472zM500 815c-242 0 -435 -197 -435 -435c0 -240 195 -435 435 -435s435 195 435 435s-195 435 -435 435zM299 137v392h-2l-81 -41l-18 79l110 56h91v-486h-100zM631 137
v392h-1l-82 -41l-17 79l110 56h90v-486h-100z" />
    <glyph glyph-name="Japan1.7566" unicode="&#x246b;" 
d="M972 380c0 -262 -214 -472 -472 -472c-260 0 -472 212 -472 472s212 472 472 472s472 -212 472 -472zM500 815c-242 0 -435 -197 -435 -435c0 -240 195 -435 435 -435s435 195 435 435s-195 435 -435 435zM296 137v392h-2l-81 -41l-17 79l110 56h90v-486h-100zM777 139
h-283v68l51 60c79 92 125 147 125 210c0 36 -21 66 -68 66c-32 0 -59 -13 -79 -27l-18 79c26 17 71 33 115 33c116 0 150 -78 150 -142c0 -92 -61 -160 -130 -227l-30 -30v-2h167v-88z" />
    <glyph glyph-name="Japan1.7567" unicode="&#x246c;" 
d="M972 380c0 -262 -214 -472 -472 -472c-260 0 -472 212 -472 472s212 472 472 472s472 -212 472 -472zM500 815c-242 0 -435 -197 -435 -435c0 -240 195 -435 435 -435s435 195 435 435s-195 435 -435 435zM296 137v392h-2l-81 -41l-17 79l110 56h90v-486h-100zM503 156
l14 81c21 -13 53 -21 81 -21c58 0 80 35 80 67c0 74 -84 74 -117 74v74c27 0 103 0 103 60c0 32 -21 54 -62 54c-24 0 -49 -8 -69 -20l-13 75c21 14 65 28 108 28c94 0 137 -59 137 -118c0 -49 -29 -89 -74 -108v-1c52 -17 88 -61 88 -122c0 -72 -57 -147 -173 -147
c-44 0 -81 12 -103 24z" />
    <glyph glyph-name="Japan1.7568" unicode="&#x246d;" 
d="M972 380c0 -262 -214 -472 -472 -472c-260 0 -472 212 -472 472s212 472 472 472s472 -212 472 -472zM500 815c-242 0 -435 -197 -435 -435c0 -240 195 -435 435 -435s435 195 435 435s-195 435 -435 435zM742 136h-89v112h-182v69l175 304h96v-291h52v-82h-52v-112z
M553 330h100v110c0 23 1 50 4 73h-2c-10 -24 -19 -42 -33 -67l-69 -115v-1zM296 137v392h-2l-81 -41l-17 79l110 56h90v-486h-100z" />
    <glyph glyph-name="Japan1.7569" unicode="&#x246e;" 
d="M972 380c0 -262 -214 -472 -472 -472c-260 0 -472 212 -472 472s212 472 472 472s472 -212 472 -472zM500 815c-242 0 -435 -197 -435 -435c0 -240 195 -435 435 -435s435 195 435 435s-195 435 -435 435zM295 137v392h-1l-82 -41l-16 79l109 56h91v-486h-101zM762 621
v-88h-137l-10 -82h19c60 0 140 -42 140 -147c0 -94 -65 -172 -177 -172c-39 0 -78 11 -98 22l16 79c19 -9 46 -17 76 -17c52 0 82 32 82 78c0 61 -48 85 -109 85c-15 0 -28 -1 -40 -2l26 244h212z" />
    <glyph glyph-name="Japan1.7570" unicode="&#x246f;" 
d="M972 380c0 -262 -214 -472 -472 -472c-260 0 -472 212 -472 472s212 472 472 472s472 -212 472 -472zM500 815c-242 0 -435 -197 -435 -435c0 -240 195 -435 435 -435s435 195 435 435s-195 435 -435 435zM756 628v-83c-117 0 -148 -78 -158 -130h2c19 24 47 40 82 40
c71 0 117 -62 117 -150c0 -81 -48 -173 -149 -173c-93 0 -155 74 -155 201c0 128 58 258 204 289c26 5 45 5 57 6zM650 200c43 0 54 50 54 108c-1 36 -16 79 -55 79c-21 0 -39 -12 -50 -31c-3 -6 -6 -22 -6 -48c0 -57 18 -108 57 -108zM295 137v392h-1l-82 -41l-16 79
l109 56h91v-486h-101z" />
    <glyph glyph-name="Japan1.7571" unicode="&#x2470;" 
d="M972 380c0 -262 -214 -472 -472 -472c-260 0 -472 212 -472 472s212 472 472 472s472 -212 472 -472zM500 815c-242 0 -435 -197 -435 -435c0 -240 195 -435 435 -435s435 195 435 435s-195 435 -435 435zM295 137v392h-1l-82 -41l-16 79l109 56h91v-486h-101zM509 621
h279v-68l-164 -416h-98l160 394v2h-177v88z" />
    <glyph glyph-name="Japan1.7572" unicode="&#x2471;" 
d="M568 392l-1 2c-45 26 -62 67 -62 104c0 80 65 130 146 130c74 0 134 -46 134 -121c0 -29 -10 -74 -67 -106v-2c50 -22 80 -67 80 -123c0 -94 -74 -144 -155 -144c-84 0 -152 48 -152 135c0 56 31 100 77 125zM650 566c-39 0 -53 -33 -53 -64c0 -35 20 -62 61 -77
c25 9 42 41 42 74c0 31 -12 67 -50 67zM646 194c47 0 61 44 61 78c0 50 -35 82 -72 94c-33 -17 -51 -53 -51 -91c0 -43 21 -81 62 -81zM972 380c0 -262 -214 -472 -472 -472c-260 0 -472 212 -472 472s212 472 472 472s472 -212 472 -472zM500 815
c-242 0 -435 -197 -435 -435c0 -240 195 -435 435 -435s435 195 435 435s-195 435 -435 435zM295 137v392h-1l-82 -41l-16 79l109 56h91v-486h-101z" />
    <glyph glyph-name="Japan1.7573" unicode="&#x2472;" 
d="M972 380c0 -262 -214 -472 -472 -472c-260 0 -472 212 -472 472s212 472 472 472s472 -212 472 -472zM500 815c-242 0 -435 -197 -435 -435c0 -240 195 -435 435 -435s435 195 435 435s-195 435 -435 435zM538 132v83c13 0 29 2 45 5c47 8 98 42 114 125h-3
c-19 -24 -47 -40 -81 -40c-72 0 -117 62 -117 150c0 81 47 173 149 173c92 0 155 -74 155 -201c0 -160 -87 -264 -204 -289c-27 -5 -46 -5 -58 -6zM645 560c-24 0 -54 -9 -54 -108c0 -36 15 -79 55 -79c21 0 39 12 49 31c4 6 7 22 7 48c0 57 -19 108 -57 108zM295 137v392
h-1l-82 -41l-16 79l109 56h91v-486h-101z" />
    <glyph glyph-name="Japan1.7574" unicode="&#x2473;" 
d="M972 380c0 -262 -214 -472 -472 -472c-260 0 -472 212 -472 472s212 472 472 472s472 -212 472 -472zM500 815c-242 0 -435 -197 -435 -435c0 -240 195 -435 435 -435s435 195 435 435s-195 435 -435 435zM673 132c-118 0 -148 136 -148 245c0 136 47 251 150 251
c119 0 143 -135 143 -245c0 -173 -65 -251 -145 -251zM673 217c31 0 46 38 46 163c0 104 -10 163 -45 163c-50 0 -50 -117 -50 -173c0 -108 16 -153 49 -153zM469 139h-259v71l47 64c63 85 107 144 107 206c0 43 -26 64 -60 64c-27 0 -51 -10 -69 -21l-14 79
c23 14 63 26 100 26c119 0 143 -83 143 -139c0 -97 -58 -161 -120 -229l-29 -30v-3h154v-88z" />
    <glyph glyph-name="Japan1.7575" unicode="&#x2160;" 
d="M425 774h150v-777h-150v777z" />
    <glyph glyph-name="Japan1.7576" unicode="&#x2161;" 
d="M269 774h146v-777h-146v777zM585 774h146v-777h-146v777z" />
    <glyph glyph-name="Japan1.7577" unicode="&#x2162;" 
d="M180 774h141v-777h-141v777zM429 774h142v-777h-142v777zM678 774h142v-777h-142v777z" />
    <glyph glyph-name="Japan1.7578" unicode="&#x2163;" 
d="M119 774h142v-777h-142v777zM691 -3h-163l-218 777h157l86 -362c23 -97 41 -181 60 -271h4c18 90 38 174 62 269l90 364h154z" />
    <glyph glyph-name="Japan1.7579" unicode="&#x2164;" 
d="M582 -3h-178l-254 777h165l107 -370c28 -99 51 -185 74 -278h3c23 92 48 180 79 276l110 372h162z" />
    <glyph glyph-name="Japan1.7580" unicode="&#x2165;" 
d="M458 -3h-163l-218 777h158l86 -362c22 -97 40 -181 59 -271h3c19 90 39 174 63 269l90 364h154zM739 774h142v-777h-142v777z" />
    <glyph glyph-name="Japan1.7581" unicode="&#x2166;" 
d="M378 -3h-153l-196 777h143l79 -353c20 -93 37 -176 54 -263h2c15 87 31 167 52 261l73 355h139zM583 774h134v-777h-134v777zM798 774h134v-777h-134v777z" />
    <glyph glyph-name="Japan1.7582" unicode="&#x2167;" 
d="M373 774h233v-777h-109v759l-166 -759h-134l-173 777h132l66 -353c17 -93 30 -175 44 -262h3c13 87 25 166 42 260zM772 -3h-109v777h109v-777zM829 -3v777h109v-777h-109z" />
    <glyph glyph-name="Japan1.7583" unicode="&#x2168;" 
d="M106 774h142v-777h-142v777zM921 -3h-163l-80 166c-29 61 -51 105 -69 149h-2c-18 -44 -36 -84 -64 -148l-74 -167h-159l216 393l-205 384h161l80 -171l56 -129h1c18 45 33 81 53 128l76 172h159l-207 -378z" />
    <glyph glyph-name="Japan1.7584" unicode="&#x2169;" 
d="M844 -3h-176l-95 166c-37 62 -59 106 -82 149h-2c-19 -44 -41 -85 -76 -148l-87 -167h-172l245 395l-233 382h175l93 -174c27 -50 46 -88 66 -130h3c20 47 37 82 61 130l91 174h173l-236 -378z" />
    <glyph glyph-name="Japan1.8061" 
d="M437 -14c-213 0 -296 187 -296 395c0 227 104 391 297 391c199 0 296 -162 296 -390s-95 -396 -297 -396zM303 380v-9c0 -171 53 -266 133 -266c108 0 136 143 136 275c0 176 -46 273 -134 273c-83 0 -135 -97 -135 -273zM885 -10c-48 0 -85 37 -85 92s37 93 86 93
c51 0 86 -37 86 -93c0 -52 -31 -92 -87 -92z" />
    <glyph glyph-name="Japan1.8062" unicode="&#x2488;" 
d="M411 -3v611h-3l-163 -77l-41 121l231 109h131v-764h-155zM885 -10c-48 0 -85 37 -85 92s37 93 86 93c51 0 86 -37 86 -93c0 -52 -31 -92 -87 -92z" />
    <glyph glyph-name="Japan1.8063" unicode="&#x2489;" 
d="M248 557l-65 115c62 59 137 100 262 100c161 0 257 -96 257 -236c0 -133 -98 -235 -227 -343l-79 -60v-2h323v-131h-562v95l100 84c191 163 282 248 282 344c0 65 -47 114 -122 114c-55 0 -115 -27 -169 -80zM885 -10c-48 0 -85 37 -85 92s37 93 86 93
c51 0 86 -37 86 -93c0 -52 -31 -92 -87 -92z" />
    <glyph glyph-name="Japan1.8064" unicode="&#x248a;" 
d="M217 584l-41 117c49 37 146 71 251 71c165 0 256 -86 256 -191c0 -84 -47 -151 -150 -183v-2c97 -12 178 -79 178 -183c0 -128 -116 -227 -315 -227c-105 0 -193 30 -243 68l40 121c33 -24 111 -62 195 -62c102 0 153 51 153 108c0 81 -85 112 -169 112h-85v116h83
c69 0 149 31 149 104c0 51 -42 92 -124 92c-72 0 -146 -36 -178 -61zM885 -10c-48 0 -85 37 -85 92s37 93 86 93c51 0 86 -37 86 -93c0 -52 -31 -92 -87 -92z" />
    <glyph glyph-name="Japan1.8065" unicode="&#x248b;" 
d="M652 -3h-159v171h-369v104l312 489h216v-474h103v-119h-103v-171zM285 287h208v217c0 49 2 97 4 149h-5c-25 -52 -50 -100 -78 -150l-129 -214v-2zM885 -10c-48 0 -85 37 -85 92s37 93 86 93c51 0 86 -37 86 -93c0 -52 -31 -92 -87 -92z" />
    <glyph glyph-name="Japan1.8066" unicode="&#x248c;" 
d="M201 366l50 392h432v-131h-321l-19 -134c19 2 40 4 62 4c136 0 310 -50 310 -249c0 -140 -123 -262 -332 -262c-98 0 -180 25 -223 49l32 127c36 -21 111 -51 187 -51c79 0 168 39 168 130c0 80 -59 139 -227 139c-49 0 -82 -4 -119 -14zM885 -10c-48 0 -85 37 -85 92
s37 93 86 93c51 0 86 -37 86 -93c0 -52 -31 -92 -87 -92z" />
    <glyph glyph-name="Japan1.8067" unicode="&#x248d;" 
d="M312 440h3c39 38 95 64 173 64c133 0 249 -88 249 -249c0 -153 -123 -269 -286 -269c-210 0 -310 156 -310 333c0 250 162 452 465 452c13 0 24 -1 35 -2l13 -120c-12 1 -26 2 -41 2c-147 0 -274 -78 -301 -211zM435 389c-81 0 -137 -66 -137 -116
c4 -91 53 -168 149 -168c76 0 125 58 125 138c0 84 -49 146 -137 146zM885 -10c-48 0 -85 37 -85 92s37 93 86 93c51 0 86 -37 86 -93c0 -52 -31 -92 -87 -92z" />
    <glyph glyph-name="Japan1.8068" unicode="&#x248e;" 
d="M160 758h555v-103l-333 -655h-176l334 625v2h-380v131zM885 -10c-48 0 -85 37 -85 92s37 93 86 93c51 0 86 -37 86 -93c0 -52 -31 -92 -87 -92z" />
    <glyph glyph-name="Japan1.8069" unicode="&#x248f;" 
d="M286 387v3c-80 37 -118 99 -118 166c0 128 117 216 274 216c192 0 261 -111 261 -196c0 -69 -38 -134 -118 -170v-2c82 -27 150 -89 150 -187c0 -137 -120 -231 -302 -231c-199 0 -292 110 -292 211c0 91 52 154 145 190zM438 661c-81 0 -116 -48 -116 -98
c0 -57 53 -93 130 -111c52 12 99 51 99 106c0 48 -32 103 -113 103zM436 99c82 0 130 48 130 103c0 73 -55 114 -144 132c-74 -14 -116 -60 -116 -119c-1 -59 49 -116 130 -116zM885 -10c-48 0 -85 37 -85 92s37 93 86 93c51 0 86 -37 86 -93c0 -52 -31 -92 -87 -92z" />
    <glyph glyph-name="Japan1.8070" unicode="&#x2490;" 
d="M565 318h-3c-39 -38 -95 -64 -173 -64c-133 0 -249 88 -249 249c0 153 123 269 286 269c214 0 310 -160 310 -333c0 -241 -154 -452 -466 -452c-12 0 -23 1 -34 2l-14 120c13 -1 27 -2 42 -2c147 0 274 78 301 211zM430 653c-77 0 -125 -59 -125 -138
c0 -84 48 -146 137 -146c80 0 137 65 137 116c-4 91 -53 168 -149 168zM885 -10c-48 0 -85 37 -85 92s37 93 86 93c51 0 86 -37 86 -93c0 -52 -31 -92 -87 -92z" />
    <glyph glyph-name="Japan1.8071" unicode="&#x2474;" 
d="M214 852v-5c-64 -86 -109 -240 -109 -467c0 -239 50 -387 109 -467v-5h-76c-64 85 -110 242 -110 472s46 387 110 472h76zM786 -92v5c64 86 109 240 109 467c0 239 -50 387 -109 467v5h76c64 -85 110 -242 110 -472s-46 -387 -110 -472h-76zM469 36v565h-2l-125 -63
l-23 101l163 82h113v-685h-126z" />
    <glyph glyph-name="Japan1.8072" unicode="&#x2475;" 
d="M214 852v-5c-64 -86 -109 -240 -109 -467c0 -239 50 -387 109 -467v-5h-76c-64 85 -110 242 -110 472s46 387 110 472h76zM786 -92v5c64 86 109 240 109 467c0 239 -50 387 -109 467v5h76c64 -85 110 -242 110 -472s-46 -387 -110 -472h-76zM715 39h-430v84l77 80
c132 134 207 221 207 314c0 59 -31 106 -108 106c-54 0 -99 -26 -129 -48l-33 98c42 31 111 59 187 59c151 0 216 -97 216 -204c0 -123 -91 -228 -191 -324l-53 -51v-2h257v-112z" />
    <glyph glyph-name="Japan1.8073" unicode="&#x2476;" 
d="M214 852v-5c-64 -86 -109 -240 -109 -467c0 -239 50 -387 109 -467v-5h-76c-64 85 -110 242 -110 472s46 387 110 472h76zM786 -92v5c64 86 109 240 109 467c0 239 -50 387 -109 467v5h76c64 -85 110 -242 110 -472s-46 -387 -110 -472h-76zM287 69l26 102
c27 -16 82 -37 136 -37c88 0 127 51 127 106c0 79 -71 112 -147 112h-44v97h42c56 1 127 25 127 93c0 47 -32 84 -98 84c-46 0 -93 -20 -121 -37l-25 96c35 24 104 47 177 47c134 0 201 -79 201 -167c0 -71 -40 -128 -115 -157v-3c77 -17 138 -79 138 -171
c0 -111 -91 -206 -253 -206c-73 0 -136 20 -171 41z" />
    <glyph glyph-name="Japan1.8074" unicode="&#x2477;" 
d="M649 36h-122v173h-282v88l258 427h146v-413h89v-102h-89v-173zM380 311h149v160c0 35 2 72 5 108h-3c-17 -37 -33 -69 -53 -104l-98 -162v-2zM214 852v-5c-64 -86 -109 -240 -109 -467c0 -239 50 -387 109 -467v-5h-76c-64 85 -110 242 -110 472s46 387 110 472h76z
M786 -92v5c64 86 109 240 109 467c0 239 -50 387 -109 467v5h76c64 -85 110 -242 110 -472s-46 -387 -110 -472h-76z" />
    <glyph glyph-name="Japan1.8075" unicode="&#x2478;" 
d="M214 852v-5c-64 -86 -109 -240 -109 -467c0 -239 50 -387 109 -467v-5h-76c-64 85 -110 242 -110 472s46 387 110 472h76zM786 -92v5c64 86 109 240 109 467c0 239 -50 387 -109 467v5h76c64 -85 110 -242 110 -472s-46 -387 -110 -472h-76zM688 721v-112h-224l-17 -130
c10 1 22 2 34 2c103 0 225 -60 225 -215c0 -131 -98 -238 -255 -238c-66 0 -126 17 -158 35l24 102c27 -14 75 -31 126 -31c70 0 130 43 130 121c-1 84 -60 128 -170 128c-31 0 -53 -2 -75 -5l41 343h319z" />
    <glyph glyph-name="Japan1.8076" unicode="&#x2479;" 
d="M671 732v-108c-177 8 -247 -99 -264 -198h2c30 33 72 53 129 53c108 0 190 -83 190 -209s-90 -242 -230 -242c-148 0 -225 122 -225 287c0 223 110 396 326 414c25 4 52 4 72 3zM505 125c55 0 91 56 91 134c0 83 -40 126 -93 126c-42 0 -74 -22 -88 -49
c-5 -11 -8 -23 -8 -51c0 -92 31 -160 98 -160zM214 852v-5c-64 -86 -109 -240 -109 -467c0 -239 50 -387 109 -467v-5h-76c-64 85 -110 242 -110 472s46 387 110 472h76zM786 -92v5c64 86 109 240 109 467c0 239 -50 387 -109 467v5h76c64 -85 110 -242 110 -472
s-46 -387 -110 -472h-76z" />
    <glyph glyph-name="Japan1.8077" unicode="&#x247a;" 
d="M214 852v-5c-64 -86 -109 -240 -109 -467c0 -239 50 -387 109 -467v-5h-76c-64 85 -110 242 -110 472s46 387 110 472h76zM786 -92v5c64 86 109 240 109 467c0 239 -50 387 -109 467v5h76c64 -85 110 -242 110 -472s-46 -387 -110 -472h-76zM298 721h426v-86l-261 -599
h-136l259 570v3h-288v112z" />
    <glyph glyph-name="Japan1.8078" unicode="&#x247b;" 
d="M388 394l-1 2c-67 36 -96 94 -96 151c0 112 95 185 215 185c133 0 203 -81 203 -170c0 -54 -26 -115 -101 -154v-3c71 -31 123 -91 123 -175c0 -124 -101 -202 -235 -202c-144 0 -228 84 -228 188c0 83 48 143 120 178zM504 642c-61 0 -87 -46 -87 -90
c0 -53 40 -86 97 -105c41 13 72 53 72 101c0 46 -23 94 -82 94zM501 119c64 0 99 48 99 103c0 68 -48 107 -111 127c-28 -10 -88 -40 -88 -121c0 -57 38 -109 100 -109zM214 852v-5c-64 -86 -109 -240 -109 -467c0 -239 50 -387 109 -467v-5h-76c-64 85 -110 242 -110 472
s46 387 110 472h76zM786 -92v5c64 86 109 240 109 467c0 239 -50 387 -109 467v5h76c64 -85 110 -242 110 -472s-46 -387 -110 -472h-76z" />
    <glyph glyph-name="Japan1.8079" unicode="&#x247c;" 
d="M329 28v108c177 -8 247 99 264 198h-2c-30 -33 -72 -53 -129 -53c-108 0 -190 83 -190 209s90 242 230 242c148 0 225 -122 225 -287c0 -223 -110 -396 -326 -414c-25 -4 -52 -4 -72 -3zM495 635c-55 0 -91 -56 -91 -134c0 -83 40 -126 93 -126c42 0 74 22 88 49
c5 11 8 23 8 51c0 92 -31 160 -98 160zM214 852v-5c-64 -86 -109 -240 -109 -467c0 -239 50 -387 109 -467v-5h-76c-64 85 -110 242 -110 472s46 387 110 472h76zM786 -92v5c64 86 109 240 109 467c0 239 -50 387 -109 467v5h76c64 -85 110 -242 110 -472
s-46 -387 -110 -472h-76z" />
    <glyph glyph-name="Japan1.8080" unicode="&#x247d;" 
d="M639 713c146 0 159 -189 159 -327c0 -257 -92 -339 -163 -339c-150 0 -167 223 -167 328c0 182 53 338 171 338zM634 163h1c35 0 51 79 51 217c0 134 -16 217 -52 217c-53 0 -53 -167 -53 -228c0 -133 18 -206 53 -206zM214 852v-5c-64 -86 -109 -240 -109 -467
c0 -239 50 -387 109 -467v-5h-76c-64 85 -110 242 -110 472s46 387 110 472h76zM786 -92v5c64 86 109 240 109 467c0 239 -50 387 -109 467v5h76c64 -85 110 -242 110 -472s-46 -387 -110 -472h-76zM272 53v545h-2l-75 -40l-10 94l96 55h103v-654h-112z" />
    <glyph glyph-name="Japan1.8081" unicode="&#x247e;" 
d="M214 852v-5c-64 -86 -109 -240 -109 -467c0 -239 50 -387 109 -467v-5h-76c-64 85 -110 242 -110 472s46 387 110 472h76zM786 -92v5c64 86 109 240 109 467c0 239 -50 387 -109 467v5h76c64 -85 110 -242 110 -472s-46 -387 -110 -472h-76zM293 53v545h-2l-75 -40
l-11 94l97 55h102v-654h-111zM637 53v545h-2l-75 -40l-11 94l97 55h102v-654h-111z" />
    <glyph glyph-name="Japan1.8082" unicode="&#x247f;" 
d="M214 852v-5c-64 -86 -109 -240 -109 -467c0 -239 50 -387 109 -467v-5h-76c-64 85 -110 242 -110 472s46 387 110 472h76zM786 -92v5c64 86 109 240 109 467c0 239 -50 387 -109 467v5h76c64 -85 110 -242 110 -472s-46 -387 -110 -472h-76zM272 53v545h-2l-75 -40
l-10 94l96 55h103v-654h-112zM777 55h-307v90l55 88c67 109 127 194 126 288c0 48 -26 86 -75 86c-31 0 -57 -10 -78 -21l-9 101c23 12 68 26 108 26c117 0 174 -73 174 -181c0 -134 -79 -240 -153 -325l-30 -36v-2h189v-114z" />
    <glyph glyph-name="Japan1.8083" unicode="&#x2480;" 
d="M214 852v-5c-64 -86 -109 -240 -109 -467c0 -239 50 -387 109 -467v-5h-76c-64 85 -110 242 -110 472s46 387 110 472h76zM786 -92v5c64 86 109 240 109 467c0 239 -50 387 -109 467v5h76c64 -85 110 -242 110 -472s-46 -387 -110 -472h-76zM272 53v545h-2l-75 -40
l-10 94l96 55h103v-654h-112zM474 70l12 104c28 -17 56 -21 79 -21c68 0 96 47 96 94c0 104 -90 104 -127 104v94c66 0 108 28 108 85c0 45 -26 75 -71 75c-19 0 -38 -3 -63 -20l-11 99c22 14 68 29 110 29c114 0 161 -79 161 -157c0 -64 -36 -116 -85 -142v-2
c61 -27 103 -85 103 -168c0 -92 -65 -197 -208 -197c-43 0 -80 11 -104 23z" />
    <glyph glyph-name="Japan1.8084" unicode="&#x2481;" 
d="M758 55h-102v152h-200v88l214 412h88v-396h61v-104h-61v-152zM559 311h99v125c0 25 1 62 5 93h-2c-8 -23 -18 -43 -30 -70l-72 -147v-1zM214 852v-5c-64 -86 -109 -240 -109 -467c0 -239 50 -387 109 -467v-5h-76c-64 85 -110 242 -110 472s46 387 110 472h76zM786 -92v5
c64 86 109 240 109 467c0 239 -50 387 -109 467v5h76c64 -85 110 -242 110 -472s-46 -387 -110 -472h-76zM272 53v545h-2l-75 -40l-10 94l96 55h103v-654h-112z" />
    <glyph glyph-name="Japan1.8085" unicode="&#x2482;" 
d="M214 852v-5c-64 -86 -109 -240 -109 -467c0 -239 50 -387 109 -467v-5h-76c-64 85 -110 242 -110 472s46 387 110 472h76zM786 -92v5c64 86 109 240 109 467c0 239 -50 387 -109 467v5h76c64 -85 110 -242 110 -472s-46 -387 -110 -472h-76zM272 53v545h-2l-75 -40
l-10 94l96 55h103v-654h-112zM502 384l32 321h235v-113h-138l-13 -120c70 0 157 -59 157 -192c0 -130 -75 -233 -206 -233c-34 0 -78 11 -98 22l16 103c24 -11 45 -17 71 -17c70 0 97 49 97 110c0 95 -73 119 -123 119c-4 0 -25 1 -30 0z" />
    <glyph glyph-name="Japan1.8086" unicode="&#x2483;" 
d="M762 713v-109c-33 -2 -46 -3 -67 -9c-59 -14 -102 -95 -113 -168l3 1c21 23 47 38 89 38c79 0 138 -78 138 -191c0 -101 -55 -228 -181 -228c-99 0 -164 96 -164 265c0 163 55 270 109 325c76 76 151 76 186 76zM642 138c27 0 57 31 57 131c0 67 -22 113 -59 113
c-24 0 -44 -20 -54 -44c-3 -11 -4 -22 -4 -47c0 -92 22 -153 60 -153zM214 852v-5c-64 -86 -109 -240 -109 -467c0 -239 50 -387 109 -467v-5h-76c-64 85 -110 242 -110 472s46 387 110 472h76zM786 -92v5c64 86 109 240 109 467c0 239 -50 387 -109 467v5h76
c64 -85 110 -242 110 -472s-46 -387 -110 -472h-76zM272 53v545h-2l-75 -40l-10 94l96 55h103v-654h-112z" />
    <glyph glyph-name="Japan1.8087" unicode="&#x2484;" 
d="M214 852v-5c-64 -86 -109 -240 -109 -467c0 -239 50 -387 109 -467v-5h-76c-64 85 -110 242 -110 472s46 387 110 472h76zM786 -92v5c64 86 109 240 109 467c0 239 -50 387 -109 467v5h76c64 -85 110 -242 110 -472s-46 -387 -110 -472h-76zM272 53v545h-2l-75 -40
l-10 94l96 55h103v-654h-112zM485 705h304v-87l-176 -563h-110l166 534v2h-184v114z" />
    <glyph glyph-name="Japan1.8088" unicode="&#x2485;" 
d="M551 403v2c-58 39 -75 96 -75 141c0 105 79 167 169 167c57 0 151 -42 151 -159c0 -28 -4 -93 -87 -143v-2c68 -35 96 -102 96 -172c0 -131 -93 -190 -173 -190c-75 0 -172 47 -172 180c0 78 41 140 91 176zM644 632c-52 0 -57 -62 -57 -84c0 -45 16 -80 63 -101
c30 13 43 59 43 98c0 41 -9 87 -49 87zM635 128c47 0 62 46 62 106c0 67 -42 110 -76 126c-36 -31 -50 -78 -50 -125c0 -57 17 -107 64 -107zM214 852v-5c-64 -86 -109 -240 -109 -467c0 -239 50 -387 109 -467v-5h-76c-64 85 -110 242 -110 472s46 387 110 472h76zM786 -92
v5c64 86 109 240 109 467c0 239 -50 387 -109 467v5h76c64 -85 110 -242 110 -472s-46 -387 -110 -472h-76zM272 53v545h-2l-75 -40l-10 94l96 55h103v-654h-112z" />
    <glyph glyph-name="Japan1.8089" unicode="&#x2486;" 
d="M518 47v109c32 2 45 3 67 9c56 13 100 94 112 168l-3 -1c-20 -23 -47 -38 -89 -38c-79 0 -138 78 -138 191c0 101 55 228 182 228c99 0 163 -96 163 -265c0 -163 -54 -270 -109 -325c-74 -76 -154 -76 -185 -76zM637 622c-33 0 -57 -48 -57 -127c0 -69 22 -117 59 -117
c24 0 44 20 53 44c4 12 5 24 5 53c0 89 -22 147 -60 147zM214 852v-5c-64 -86 -109 -240 -109 -467c0 -239 50 -387 109 -467v-5h-76c-64 85 -110 242 -110 472s46 387 110 472h76zM786 -92v5c64 86 109 240 109 467c0 239 -50 387 -109 467v5h76c64 -85 110 -242 110 -472
s-46 -387 -110 -472h-76zM272 53v545h-2l-75 -40l-10 94l96 55h103v-654h-112z" />
    <glyph glyph-name="Japan1.8090" unicode="&#x2487;" 
d="M666 47h-1c-123 0 -152 174 -152 328c0 186 49 338 158 338c138 0 146 -194 146 -328c0 -262 -90 -338 -151 -338zM665 157c35 0 48 80 48 223c0 138 -14 223 -48 223c-49 0 -49 -176 -49 -235c0 -135 17 -211 49 -211zM214 852v-5c-64 -86 -109 -240 -109 -467
c0 -239 50 -387 109 -467v-5h-76c-64 85 -110 242 -110 472s46 387 110 472h76zM786 -92v5c64 86 109 240 109 467c0 239 -50 387 -109 467v5h76c64 -85 110 -242 110 -472s-46 -387 -110 -472h-76zM467 55h-282v85l51 87c57 100 115 198 115 300c0 51 -27 86 -70 86
c-30 0 -52 -10 -70 -17l-7 95c18 9 59 22 95 22c105 0 163 -70 163 -179c0 -126 -66 -221 -136 -328l-27 -42v-2h168v-107z" />
    <glyph glyph-name="Japan1.8091" unicode="&#x3251;" 
d="M972 380c0 -262 -214 -472 -472 -472c-260 0 -472 212 -472 472s212 472 472 472s472 -212 472 -472zM500 815c-242 0 -435 -197 -435 -435c0 -240 195 -435 435 -435s435 195 435 435s-195 435 -435 435zM469 139h-259v71l47 64c63 85 107 144 107 206
c0 43 -26 64 -60 64c-27 0 -51 -10 -69 -21l-14 79c23 14 63 26 100 26c119 0 143 -83 143 -139c0 -97 -58 -161 -120 -229l-29 -30v-3h154v-88zM642 137v390h-1l-78 -40l-17 82l105 54h91v-486h-100z" />
    <glyph glyph-name="Japan1.8092" unicode="&#x2170;" 
d="M500 641c-60 0 -87 43 -87 85c0 49 34 86 87 86s87 -37 87 -86c0 -47 -34 -85 -87 -85zM575 -3h-150v563h150v-563z" />
    <glyph glyph-name="Japan1.8093" unicode="&#x2171;" 
d="M342 645c-59 0 -85 43 -85 84c0 47 34 83 85 83s85 -36 85 -83c0 -46 -34 -84 -85 -84zM658 645c-58 0 -84 43 -84 84c0 47 33 83 85 83c51 0 84 -36 84 -83c0 -46 -33 -84 -85 -84zM414 -3h-145v563h145v-563zM731 -3h-145v563h145v-563z" />
    <glyph glyph-name="Japan1.8094" unicode="&#x2172;" 
d="M259 649c-55 0 -83 41 -83 81c0 46 33 82 84 82c50 0 83 -36 83 -82c0 -45 -33 -81 -84 -81zM500 649c-57 0 -83 41 -83 81c0 46 33 82 83 82c51 0 83 -36 83 -82c0 -45 -32 -81 -83 -81zM740 649c-53 0 -83 38 -83 81c0 46 33 82 84 82c50 0 83 -36 83 -82
c0 -45 -33 -81 -84 -81zM330 -3h-142v563h142v-563zM571 -3h-142v563h142v-563zM811 -3h-141v563h141v-563z" />
    <glyph glyph-name="Japan1.8095" unicode="&#x2173;" 
d="M208 649c-57 0 -83 41 -83 81c0 46 33 82 83 82c51 0 83 -36 83 -82c0 -45 -32 -81 -83 -81zM279 -3h-142v563h142v-563zM346 560h160l81 -262c15 -47 27 -89 39 -134h3c11 45 23 87 38 134l80 262h156l-217 -563h-127z" />
    <glyph glyph-name="Japan1.8096" unicode="&#x2174;" 
d="M203 560h165l94 -276c17 -51 29 -96 40 -142h4c10 46 23 91 40 142l91 276h159l-237 -563h-122z" />
    <glyph glyph-name="Japan1.8097" unicode="&#x2175;" 
d="M792 649c-57 0 -83 41 -83 81c0 46 32 82 83 82c50 0 83 -36 83 -82c0 -45 -32 -81 -83 -81zM97 560h160l81 -262c14 -47 27 -89 38 -134h4c11 45 23 87 37 134l81 262h156l-217 -563h-127zM863 -3h-142v563h142v-563z" />
    <glyph glyph-name="Japan1.8098" unicode="&#x2176;" 
d="M643 658c-52 0 -79 37 -79 77c0 44 31 77 78 77s79 -33 79 -77c0 -43 -30 -77 -78 -77zM858 658c-52 0 -80 36 -80 77c0 44 31 77 78 77c48 0 79 -33 79 -77c0 -43 -30 -77 -77 -77zM40 560h152l76 -262c14 -47 26 -89 37 -134h3c11 45 22 87 36 134l76 262h148
l-205 -563h-121zM709 -3h-134v563h134v-563zM923 -3h-134v563h134v-563z" />
    <glyph glyph-name="Japan1.8099" unicode="&#x2177;" 
d="M553 665c-43 0 -66 36 -66 74c0 41 27 73 65 73c40 0 66 -32 66 -73s-26 -74 -65 -74zM716 665c-43 0 -65 36 -65 74c0 41 26 73 65 73s65 -32 65 -73s-25 -74 -65 -74zM880 665c-44 0 -66 36 -66 74c0 41 26 73 65 73c40 0 66 -32 66 -73s-26 -74 -65 -74zM371 560h236
v-563h-109v554l-179 -554h-106l-177 563h133l68 -262c12 -47 22 -89 32 -134h3c9 45 19 87 31 134zM771 -3h-109v563h109v-563zM934 -3h-109v563h109v-563z" />
    <glyph glyph-name="Japan1.8100" unicode="&#x2178;" 
d="M211 649c-58 0 -84 41 -84 81c0 46 33 82 83 82c51 0 83 -36 83 -82c0 -45 -32 -81 -82 -81zM281 -3h-142v563h142v-563zM360 560h159l59 -102c18 -31 36 -65 52 -96h3c14 31 34 70 50 99l55 99h152l-178 -268l184 -295h-159l-63 109l-54 100h-3c-16 -34 -34 -67 -51 -98
l-63 -111h-152l187 289z" />
    <glyph glyph-name="Japan1.8101" unicode="&#x2179;" 
d="M215 560h172l64 -102c19 -30 39 -66 55 -96h3c16 30 38 70 55 99l61 99h163l-194 -268l200 -295h-171l-68 109c-19 30 -40 67 -58 100h-3c-19 -34 -38 -69 -57 -99l-68 -110h-164l204 289z" />
    <glyph glyph-name="Japan1.8102" unicode="&#x3252;" 
d="M972 380c0 -262 -214 -472 -472 -472c-260 0 -472 212 -472 472s212 472 472 472s472 -212 472 -472zM500 815c-242 0 -435 -197 -435 -435c0 -240 195 -435 435 -435s435 195 435 435s-195 435 -435 435zM468 139h-258v71l47 64c63 85 107 144 107 206
c0 43 -27 64 -61 64c-26 0 -50 -10 -68 -21l-14 79c23 14 63 26 100 26c119 0 142 -83 142 -139c0 -97 -57 -161 -119 -229l-29 -30v-3h153v-88zM796 139h-258v71l47 64c64 86 107 145 107 208c0 33 -20 62 -61 62c-26 0 -50 -10 -68 -21l-14 79c23 14 63 26 100 26
c119 0 142 -83 142 -139c0 -97 -58 -161 -119 -229l-29 -30v-3h153v-88z" />
    <glyph glyph-name="Japan1.8103" unicode="&#x3253;" 
d="M972 380c0 -262 -214 -472 -472 -472c-260 0 -472 212 -472 472s212 472 472 472s472 -212 472 -472zM500 815c-242 0 -435 -197 -435 -435c0 -240 195 -435 435 -435s435 195 435 435s-195 435 -435 435zM468 139h-258v71l47 64c63 85 107 144 107 206
c0 43 -27 64 -61 64c-26 0 -50 -10 -68 -21l-14 79c23 14 63 26 100 26c119 0 142 -83 142 -139c0 -97 -57 -161 -119 -229l-29 -30v-3h153v-88zM532 151l11 81c25 -13 52 -17 74 -17c60 0 81 34 81 63c0 77 -81 77 -114 77v74c49 0 101 11 101 62c0 31 -23 54 -63 54
c-20 0 -39 -3 -61 -16l-11 76c20 11 60 23 98 23c96 0 137 -60 137 -118c0 -48 -30 -88 -70 -106v-2c51 -19 85 -63 85 -123c0 -66 -55 -147 -175 -147c-40 0 -73 9 -93 19z" />
    <glyph glyph-name="Japan1.8104" unicode="&#x3254;" 
d="M972 380c0 -262 -214 -472 -472 -472c-260 0 -472 212 -472 472s212 472 472 472s472 -212 472 -472zM500 815c-242 0 -435 -197 -435 -435c0 -240 195 -435 435 -435s435 195 435 435s-195 435 -435 435zM769 137h-89v110h-181v71l168 305h102v-296h46v-80h-46v-110z
M589 327h91v114c0 21 4 55 6 76h-2c-9 -22 -19 -43 -31 -67l-64 -120v-3zM469 139h-259v71l47 64c63 85 107 144 107 206c0 43 -26 64 -60 64c-27 0 -51 -10 -69 -21l-14 79c23 14 63 26 100 26c119 0 143 -83 143 -139c0 -97 -58 -161 -120 -229l-29 -30v-3h154v-88z" />
    <glyph glyph-name="Japan1.8105" unicode="&#x3255;" 
d="M972 380c0 -262 -214 -472 -472 -472c-260 0 -472 212 -472 472s212 472 472 472s472 -212 472 -472zM500 815c-242 0 -435 -197 -435 -435c0 -240 195 -435 435 -435s435 195 435 435s-195 435 -435 435zM469 139h-259v71l47 64c63 85 107 144 107 206
c0 43 -26 64 -60 64c-27 0 -51 -10 -69 -21l-14 79c23 14 63 26 100 26c119 0 143 -83 143 -139c0 -97 -58 -161 -120 -229l-29 -30v-3h154v-88zM785 621v-88h-129l-9 -83h16c47 0 131 -43 131 -146c0 -93 -64 -172 -175 -172c-34 0 -71 9 -90 19l15 80c21 -9 42 -15 68 -15
c59 0 82 34 82 76c0 67 -59 86 -108 86c-11 0 -23 0 -31 -1l24 244h206z" />
    <glyph glyph-name="Japan1.8106" unicode="&#x3256;" 
d="M972 380c0 -262 -214 -472 -472 -472c-260 0 -472 212 -472 472s212 472 472 472s472 -212 472 -472zM500 815c-242 0 -435 -197 -435 -435c0 -240 195 -435 435 -435s435 195 435 435s-195 435 -435 435zM766 628v-83c-54 -2 -115 -5 -143 -127h2c16 17 39 29 68 29
c67 0 117 -59 117 -143c0 -76 -47 -172 -154 -172c-83 0 -138 71 -138 200c0 121 47 201 93 244c56 52 123 52 155 52zM715 293c0 46 -15 86 -51 86c-43 0 -48 -34 -48 -90c0 -54 20 -89 48 -89c39 0 51 48 51 93zM469 139h-259v71l47 64c63 85 107 144 107 206
c0 43 -26 64 -60 64c-27 0 -51 -10 -69 -21l-14 79c23 14 63 26 100 26c119 0 143 -83 143 -139c0 -97 -58 -161 -120 -229l-29 -30v-3h154v-88z" />
    <glyph glyph-name="Japan1.8107" unicode="&#x3257;" 
d="M972 380c0 -262 -214 -472 -472 -472c-260 0 -472 212 -472 472s212 472 472 472s472 -212 472 -472zM500 815c-242 0 -435 -197 -435 -435c0 -240 195 -435 435 -435s435 195 435 435s-195 435 -435 435zM468 139h-258v71l47 64c63 85 107 144 107 206
c0 43 -27 64 -61 64c-26 0 -50 -10 -68 -21l-14 79c23 14 63 26 100 26c119 0 142 -83 142 -139c0 -97 -57 -161 -119 -229l-29 -30v-3h153v-88zM538 621h264v-70l-147 -414h-94l141 393v3h-164v88z" />
    <glyph glyph-name="Japan1.8108" unicode="&#x3258;" 
d="M591 393v1c-46 27 -61 69 -61 104c0 79 67 127 148 127c61 0 133 -37 133 -119c0 -24 -6 -71 -69 -105v-2c53 -23 79 -71 79 -125c0 -97 -78 -142 -153 -142s-152 39 -152 134c0 56 32 101 75 127zM677 566c-56 0 -56 -56 -56 -66c0 -33 17 -62 64 -78c25 13 41 44 41 76
c0 30 -9 68 -49 68zM671 194c43 0 59 33 59 77c0 49 -39 81 -74 91c-26 -16 -47 -44 -47 -85c0 -43 18 -83 62 -83zM972 380c0 -262 -214 -472 -472 -472c-260 0 -472 212 -472 472s212 472 472 472s472 -212 472 -472zM500 815c-242 0 -435 -197 -435 -435
c0 -240 195 -435 435 -435s435 195 435 435s-195 435 -435 435zM468 139h-258v71l47 64c63 85 107 144 107 206c0 43 -27 64 -61 64c-26 0 -50 -10 -68 -21l-14 79c23 14 63 26 100 26c119 0 142 -83 142 -139c0 -97 -57 -161 -119 -229l-29 -30v-3h153v-88z" />
    <glyph glyph-name="Japan1.8109" unicode="&#x3259;" 
d="M570 132v83c52 2 118 5 143 127h-2c-16 -17 -38 -29 -67 -29c-67 0 -117 59 -117 143c0 76 47 172 153 172c84 0 139 -71 139 -200c0 -121 -47 -201 -93 -244c-56 -52 -124 -52 -156 -52zM622 467c0 -45 15 -86 50 -86c45 0 49 38 49 90c0 54 -20 89 -48 89
c-39 0 -51 -48 -51 -93zM469 139h-259v71l47 64c63 85 107 144 107 206c0 43 -26 64 -60 64c-27 0 -51 -10 -69 -21l-14 79c23 14 63 26 100 26c119 0 143 -83 143 -139c0 -97 -58 -161 -120 -229l-29 -30v-3h154v-88zM972 380c0 -262 -214 -472 -472 -472
c-260 0 -472 212 -472 472s212 472 472 472s472 -212 472 -472zM500 815c-242 0 -435 -197 -435 -435c0 -240 195 -435 435 -435s435 195 435 435s-195 435 -435 435z" />
    <glyph glyph-name="Japan1.8110" unicode="&#x325a;" 
d="M972 380c0 -262 -214 -472 -472 -472c-260 0 -472 212 -472 472s212 472 472 472s472 -212 472 -472zM500 815c-242 0 -435 -197 -435 -435c0 -240 195 -435 435 -435s435 195 435 435s-195 435 -435 435zM673 132h-1c-116 0 -146 134 -147 244c0 133 45 252 150 252
c129 0 143 -147 143 -243c0 -182 -72 -253 -145 -253zM673 217c30 0 46 34 46 163c0 107 -9 163 -45 163c-42 0 -50 -71 -50 -174c0 -114 16 -152 49 -152zM212 151l11 81c21 -13 46 -17 67 -17c55 0 73 36 73 65c0 59 -45 75 -102 75v74c45 0 89 13 89 62
c0 31 -21 54 -56 54c-18 0 -35 -3 -54 -16l-10 76c18 11 56 23 91 23c91 0 130 -60 130 -118c0 -48 -28 -88 -67 -106v-2c49 -19 81 -63 81 -123c0 -66 -52 -147 -165 -147c-38 0 -69 9 -88 19z" />
    <glyph glyph-name="Japan1.8111" unicode="&#x325b;" 
d="M972 380c0 -262 -214 -472 -472 -472c-260 0 -472 212 -472 472s212 472 472 472s472 -212 472 -472zM500 815c-242 0 -435 -197 -435 -435c0 -240 195 -435 435 -435s435 195 435 435s-195 435 -435 435zM213 151l11 81c21 -13 46 -17 67 -17c55 0 74 36 74 65
c0 58 -47 75 -103 75v74c45 0 89 13 89 62c0 31 -21 54 -56 54c-18 0 -35 -3 -54 -16l-10 76c18 11 56 23 92 23c91 0 129 -60 129 -118c0 -48 -28 -88 -67 -106v-2c49 -19 81 -63 81 -123c0 -66 -52 -147 -165 -147c-38 0 -68 9 -88 19zM642 137v390h-1l-78 -40l-17 82
l105 54h91v-486h-100z" />
    <glyph glyph-name="Japan1.8112" unicode="&#x249c;" 
d="M698 410v-192c0 -42 2 -87 8 -125h-117l-8 60h-2c-31 -42 -77 -65 -134 -65c-89 0 -147 68 -147 156c0 135 126 195 271 195v10c0 40 -24 87 -90 87c-47 0 -85 -13 -121 -34l-25 86c35 21 100 42 171 42c172 0 194 -119 194 -220zM574 259v98c-68 0 -158 -19 -158 -98
c0 -56 38 -79 69 -79c30 0 89 17 89 79zM214 852v-5c-64 -86 -109 -240 -109 -467c0 -239 50 -387 109 -467v-5h-76c-64 85 -110 242 -110 472s46 387 110 472h76zM786 -92v5c64 86 109 240 109 467c0 239 -50 387 -109 467v5h76c64 -85 110 -242 110 -472
s-46 -387 -110 -472h-76z" />
    <glyph glyph-name="Japan1.8113" unicode="&#x249d;" 
d="M312 157v598h123v-281h3c27 42 64 68 119 68c104 0 154 -114 154 -258c0 -186 -76 -284 -175 -284c-49 0 -82 18 -112 73h-2l-7 -68h-107c3 46 4 105 4 152zM435 342v-144c0 -25 17 -93 71 -93c56 0 82 66 82 171c0 96 -26 161 -82 161c-45 0 -71 -56 -71 -95zM211 852
v-5c-64 -86 -110 -240 -110 -467c0 -239 50 -387 110 -467v-5h-73c-64 85 -110 242 -110 472s46 387 110 472h73zM789 -92v5c64 86 110 240 110 467c0 239 -50 387 -110 467v5h73c64 -85 110 -242 110 -472s-46 -387 -110 -472h-73z" />
    <glyph glyph-name="Japan1.8114" unicode="&#x249e;" 
d="M211 852v-5c-64 -86 -110 -240 -110 -467c0 -239 50 -387 110 -467v-5h-73c-64 85 -110 242 -110 472s46 387 110 472h73zM789 -92v5c64 86 110 240 110 467c0 239 -50 387 -110 467v5h73c64 -85 110 -242 110 -472s-46 -387 -110 -472h-73zM668 207l14 -98
c-20 -10 -64 -21 -117 -21c-152 0 -250 98 -250 265c0 161 105 277 272 277c41 0 81 -10 101 -18l-20 -100c-21 9 -45 15 -83 15c-92 0 -147 -73 -147 -168c0 -105 60 -168 146 -168c32 0 62 7 84 16z" />
    <glyph glyph-name="Japan1.8115" unicode="&#x249f;" 
d="M564 755h123v-598c0 -47 2 -105 4 -152h-106l-7 66h-3c-20 -39 -63 -71 -117 -71c-113 0 -168 120 -168 268c0 183 82 274 174 274c52 0 83 -26 98 -58h2v271zM564 195v139c0 90 -49 103 -68 103c-58 0 -83 -76 -83 -169c0 -103 32 -163 81 -163c52 0 70 57 70 90z
M211 852v-5c-64 -86 -110 -240 -110 -467c0 -239 50 -387 110 -467v-5h-73c-64 85 -110 242 -110 472s46 387 110 472h73zM789 -92v5c64 86 110 240 110 467c0 239 -50 387 -110 467v5h73c64 -85 110 -242 110 -472s-46 -387 -110 -472h-73z" />
    <glyph glyph-name="Japan1.8116" unicode="&#x24a0;" 
d="M704 317h-293c0 -92 60 -132 136 -132c51 0 89 10 118 21l18 -92c-35 -15 -92 -26 -156 -26c-151 0 -236 97 -236 259c0 179 99 283 225 283c129 0 192 -99 192 -247c0 -34 -1 -52 -4 -66zM411 406h184c1 67 -21 131 -87 131s-94 -72 -97 -131zM211 852v-5
c-64 -86 -110 -240 -110 -467c0 -239 50 -387 110 -467v-5h-73c-64 85 -110 242 -110 472s46 387 110 472h73zM789 -92v5c64 86 110 240 110 467c0 239 -50 387 -110 467v5h73c64 -85 110 -242 110 -472s-46 -387 -110 -472h-73z" />
    <glyph glyph-name="Japan1.8117" unicode="&#x24a1;" 
d="M211 852v-5c-64 -86 -110 -240 -110 -467c0 -239 50 -387 110 -467v-5h-73c-64 85 -110 242 -110 472s46 387 110 472h73zM789 -92v5c64 86 110 240 110 467c0 239 -50 387 -110 467v5h73c64 -85 110 -242 110 -472s-46 -387 -110 -472h-73zM529 5h-123v433h-73v90h73v16
c0 211 153 216 186 216c38 0 68 -7 87 -14l-15 -99c-14 6 -31 10 -53 10c-82 0 -82 -83 -82 -129h110v-90h-110v-433z" />
    <glyph glyph-name="Japan1.8118" unicode="&#x24a2;" 
d="M688 502v-303c0 -110 -9 -276 -230 -276c-48 0 -95 9 -132 27l24 98c28 -15 62 -25 106 -25c74 0 108 50 108 139v38h-2c-20 -36 -58 -58 -104 -58c-119 0 -168 128 -168 256c0 177 83 277 180 277c49 0 85 -27 106 -67h2l6 61h108c-3 -49 -4 -106 -4 -167zM564 334v140
c0 52 -25 93 -64 93c-59 0 -87 -73 -87 -166c0 -102 34 -159 84 -159c30 0 67 28 67 92zM211 852v-5c-64 -86 -110 -240 -110 -467c0 -239 50 -387 110 -467v-5h-73c-64 85 -110 242 -110 472s46 387 110 472h73zM789 -92v5c64 86 110 240 110 467c0 239 -50 387 -110 467v5
h73c64 -85 110 -242 110 -472s-46 -387 -110 -472h-73z" />
    <glyph glyph-name="Japan1.8119" unicode="&#x24a3;" 
d="M211 852v-5c-64 -86 -110 -240 -110 -467c0 -239 50 -387 110 -467v-5h-73c-64 85 -110 242 -110 472s46 387 110 472h73zM789 -92v5c64 86 110 240 110 467c0 239 -50 387 -110 467v5h73c64 -85 110 -242 110 -472s-46 -387 -110 -472h-73zM313 5v750h123v-282h3
c15 24 55 69 122 69c88 0 136 -75 136 -216v-321h-123v322c0 55 -12 108 -63 108c-58 0 -75 -69 -75 -103v-327h-123z" />
    <glyph glyph-name="Japan1.8120" unicode="&#x24a4;" 
d="M211 852v-5c-64 -86 -110 -240 -110 -467c0 -239 50 -387 110 -467v-5h-73c-64 85 -110 242 -110 472s46 387 110 472h73zM789 -92v5c64 86 110 240 110 467c0 239 -50 387 -110 467v5h73c64 -85 110 -242 110 -472s-46 -387 -110 -472h-73zM499 604c-42 0 -74 36 -74 80
c0 50 35 82 75 82c41 0 75 -32 75 -82c0 -47 -34 -80 -76 -80zM561 -5h-123v531h123v-531z" />
    <glyph glyph-name="Japan1.8121" unicode="&#x24a5;" 
d="M211 852v-5c-64 -86 -110 -240 -110 -467c0 -239 50 -387 110 -467v-5h-73c-64 85 -110 242 -110 472s46 387 110 472h73zM789 -92v5c64 86 110 240 110 467c0 239 -50 387 -110 467v5h73c64 -85 110 -242 110 -472s-46 -387 -110 -472h-73zM526 651c-43 0 -74 36 -74 80
c0 51 35 82 75 82s74 -32 74 -82c0 -47 -34 -80 -75 -80zM355 -68l-10 100c112 10 120 60 120 194v345h123v-373c0 -129 -24 -262 -233 -266z" />
    <glyph glyph-name="Japan1.8122" unicode="&#x24a6;" 
d="M211 852v-5c-64 -86 -110 -240 -110 -467c0 -239 50 -387 110 -467v-5h-73c-64 85 -110 242 -110 472s46 387 110 472h73zM789 -92v5c64 86 110 240 110 467c0 239 -50 387 -110 467v5h73c64 -85 110 -242 110 -472s-46 -387 -110 -472h-73zM448 755v-457h2
c11 29 21 52 31 74l88 165h132l-139 -223l147 -309h-137l-96 229l-28 -48v-181h-124v750h124z" />
    <glyph glyph-name="Japan1.8123" unicode="&#x24a7;" 
d="M211 852v-5c-64 -86 -110 -240 -110 -467c0 -239 50 -387 110 -467v-5h-73c-64 85 -110 242 -110 472s46 387 110 472h73zM789 -92v5c64 86 110 240 110 467c0 239 -50 387 -110 467v5h73c64 -85 110 -242 110 -472s-46 -387 -110 -472h-73zM438 5v750h123v-750h-123z
" />
    <glyph glyph-name="Japan1.8124" unicode="&#x24a8;" 
d="M211 852v-5c-64 -86 -110 -240 -110 -467c0 -239 50 -387 110 -467v-5h-73c-64 85 -110 242 -110 472s46 387 110 472h73zM789 -92v5c64 86 110 240 110 467c0 239 -50 387 -110 467v5h73c64 -85 110 -242 110 -472s-46 -387 -110 -472h-73zM258 93v385
c0 51 -2 96 -4 147h94l6 -56h1c25 43 60 61 93 61c49 0 79 -21 91 -59h3c5 13 33 59 99 59c82 0 101 -68 101 -176v-361h-105v321c0 69 -4 105 -37 105c-49 0 -49 -74 -49 -94v-332h-103v322c0 71 -6 104 -37 104c-39 0 -48 -51 -48 -95v-331h-105z" />
    <glyph glyph-name="Japan1.8125" unicode="&#x24a9;" 
d="M211 852v-5c-64 -86 -110 -240 -110 -467c0 -239 50 -387 110 -467v-5h-73c-64 85 -110 242 -110 472s46 387 110 472h73zM789 -92v5c64 86 110 240 110 467c0 239 -50 387 -110 467v5h73c64 -85 110 -242 110 -472s-46 -387 -110 -472h-73zM308 93v378
c0 54 -2 102 -3 154h106l6 -69h2c29 48 77 75 132 75c90 0 141 -72 141 -198v-340h-124v332c0 48 -13 99 -62 99c-53 0 -75 -61 -75 -107v-324h-123z" />
    <glyph glyph-name="Japan1.8126" unicode="&#x24aa;" 
d="M501 88c-138 0 -218 104 -218 269c0 185 105 273 220 273c132 0 214 -104 214 -269c0 -213 -126 -273 -216 -273zM502 184c69 0 92 97 92 176c0 77 -22 174 -92 174c-75 0 -96 -95 -96 -174c0 -96 27 -176 96 -176zM211 852v-5c-64 -86 -110 -240 -110 -467
c0 -239 50 -387 110 -467v-5h-73c-64 85 -110 242 -110 472s46 387 110 472h73zM789 -92v5c64 86 110 240 110 467c0 239 -50 387 -110 467v5h73c64 -85 110 -242 110 -472s-46 -387 -110 -472h-73z" />
    <glyph glyph-name="Japan1.8127" unicode="&#x24ab;" 
d="M312 -68v568c0 63 -2 106 -4 169h109l7 -69h2c23 47 65 75 119 75c117 0 166 -125 166 -270c0 -188 -81 -273 -175 -273c-46 0 -79 27 -97 57h-4v-257h-123zM435 474v-140c0 -38 17 -96 69 -96c59 0 84 77 84 167c0 103 -30 164 -82 164c-48 0 -71 -55 -71 -95zM211 852
v-5c-64 -86 -110 -240 -110 -467c0 -239 50 -387 110 -467v-5h-73c-64 85 -110 242 -110 472s46 387 110 472h73zM789 -92v5c64 86 110 240 110 467c0 239 -50 387 -110 467v5h73c64 -85 110 -242 110 -472s-46 -387 -110 -472h-73z" />
    <glyph glyph-name="Japan1.8128" unicode="&#x24ac;" 
d="M564 -68v259h-2c-21 -34 -58 -59 -108 -59c-104 0 -165 117 -165 260c0 181 82 283 184 283c41 0 82 -20 105 -68l2 -1l6 63h106c-2 -46 -5 -104 -5 -165v-572h-123zM564 330v145c0 83 -52 94 -68 94c-53 0 -84 -63 -84 -166c0 -97 29 -165 84 -165c36 0 68 38 68 92z
M211 852v-5c-64 -86 -110 -240 -110 -467c0 -239 50 -387 110 -467v-5h-73c-64 85 -110 242 -110 472s46 387 110 472h73zM789 -92v5c64 86 110 240 110 467c0 239 -50 387 -110 467v5h73c64 -85 110 -242 110 -472s-46 -387 -110 -472h-73z" />
    <glyph glyph-name="Japan1.8129" unicode="&#x24ad;" 
d="M211 852v-5c-64 -86 -110 -240 -110 -467c0 -239 50 -387 110 -467v-5h-73c-64 85 -110 242 -110 472s46 387 110 472h73zM789 -92v5c64 86 110 240 110 467c0 239 -50 387 -110 467v5h73c64 -85 110 -242 110 -472s-46 -387 -110 -472h-73zM366 93v347
c0 66 -1 127 -4 185h113l5 -107h5c29 76 90 112 149 112c17 0 27 -1 40 -3v-126c-15 4 -29 4 -48 4c-112 0 -137 -109 -137 -147v-265h-123z" />
    <glyph glyph-name="Japan1.8130" unicode="&#x24ae;" 
d="M211 852v-5c-64 -86 -110 -240 -110 -467c0 -239 50 -387 110 -467v-5h-73c-64 85 -110 242 -110 472s46 387 110 472h73zM789 -92v5c64 86 110 240 110 467c0 239 -50 387 -110 467v5h73c64 -85 110 -242 110 -472s-46 -387 -110 -472h-73zM305 127l26 93
c38 -22 97 -37 151 -37c62 0 90 28 90 56c0 32 -25 50 -95 72c-124 39 -159 97 -159 154c0 91 77 165 208 165c58 0 102 -9 142 -32l-27 -91c-36 16 -74 28 -124 28c-53 0 -82 -21 -82 -49c0 -36 25 -49 100 -74c114 -37 154 -89 154 -161c0 -95 -77 -163 -222 -163
c-64 0 -121 14 -162 39z" />
    <glyph glyph-name="Japan1.8131" unicode="&#x24af;" 
d="M211 852v-5c-64 -86 -110 -240 -110 -467c0 -239 50 -387 110 -467v-5h-73c-64 85 -110 242 -110 472s46 387 110 472h73zM789 -92v5c64 86 110 240 110 467c0 239 -50 387 -110 467v5h73c64 -85 110 -242 110 -472s-46 -387 -110 -472h-73zM403 668l123 40v-135h129v-91
h-129v-251c0 -62 23 -90 68 -90c22 0 36 2 51 6l2 -99c-20 -7 -53 -10 -92 -10c-134 0 -152 103 -152 186v258h-77v91h77v95z" />
    <glyph glyph-name="Japan1.8132" unicode="&#x24b0;" 
d="M211 852v-5c-64 -86 -110 -240 -110 -467c0 -239 50 -387 110 -467v-5h-73c-64 85 -110 242 -110 472s46 387 110 472h73zM789 -92v5c64 86 110 240 110 467c0 239 -50 387 -110 467v5h73c64 -85 110 -242 110 -472s-46 -387 -110 -472h-73zM692 625v-376
c0 -52 3 -106 4 -156h-108l-7 62h-2c-27 -39 -71 -67 -128 -67c-95 0 -143 67 -143 217v320h123v-304c0 -76 18 -126 66 -126c49 0 72 49 72 93v337h123z" />
    <glyph glyph-name="Japan1.8133" unicode="&#x24b1;" 
d="M211 852v-5c-64 -86 -110 -240 -110 -467c0 -239 50 -387 110 -467v-5h-73c-64 85 -110 242 -110 472s46 387 110 472h73zM789 -92v5c64 86 110 240 110 467c0 239 -50 387 -110 467v5h73c64 -85 110 -242 110 -472s-46 -387 -110 -472h-73zM280 625h134l60 -254
c11 -49 20 -97 29 -146h3c10 52 19 96 31 146l61 254h122l-163 -532h-114z" />
    <glyph glyph-name="Japan1.8134" unicode="&#x24b2;" 
d="M211 852v-5c-64 -86 -110 -240 -110 -467c0 -239 50 -387 110 -467v-5h-73c-64 85 -110 242 -110 472s46 387 110 472h73zM789 -92v5c64 86 110 240 110 467c0 239 -50 387 -110 467v5h73c64 -85 110 -242 110 -472s-46 -387 -110 -472h-73zM225 625h106l46 -246
c6 -42 15 -98 20 -142h3c5 45 10 101 18 139l46 249h84l45 -245c10 -46 17 -94 22 -143h4c4 43 11 89 20 141l41 247h94l-116 -532h-88l-41 204c-9 48 -19 105 -23 163h-3c-6 -57 -15 -117 -23 -165l-41 -202h-95z" />
    <glyph glyph-name="Japan1.8135" unicode="&#x24b3;" 
d="M211 852v-5c-64 -86 -110 -240 -110 -467c0 -239 50 -387 110 -467v-5h-73c-64 85 -110 242 -110 472s46 387 110 472h73zM789 -92v5c64 86 110 240 110 467c0 239 -50 387 -110 467v5h73c64 -85 110 -242 110 -472s-46 -387 -110 -472h-73zM295 625h134l41 -109
c13 -36 25 -72 34 -100h3l32 100l39 109h125l-125 -262l129 -270h-134l-47 116c-12 30 -23 62 -34 93h-3c-9 -30 -19 -63 -30 -93l-44 -116h-122l124 266z" />
    <glyph glyph-name="Japan1.8136" unicode="&#x24b4;" 
d="M211 852v-5c-64 -86 -110 -240 -110 -467c0 -239 50 -387 110 -467v-5h-73c-64 85 -110 242 -110 472s46 387 110 472h73zM789 -92v5c64 86 110 240 110 467c0 239 -50 387 -110 467v5h73c64 -85 110 -242 110 -472s-46 -387 -110 -472h-73zM292 688h133l66 -286
c6 -33 14 -62 19 -91h2l17 90l60 287h121l-117 -405c-34 -113 -64 -205 -124 -273c-44 -49 -95 -72 -115 -78l-37 107c24 9 52 25 74 45c42 40 57 90 57 97c0 8 -2 19 -5 29z" />
    <glyph glyph-name="Japan1.8137" unicode="&#x24b5;" 
d="M211 852v-5c-64 -86 -110 -240 -110 -467c0 -239 50 -387 110 -467v-5h-73c-64 85 -110 242 -110 472s46 387 110 472h73zM789 -92v5c64 86 110 240 110 467c0 239 -50 387 -110 467v5h73c64 -85 110 -242 110 -472s-46 -387 -110 -472h-73zM318 96v79l162 256
c16 26 38 60 55 85v3h-199v103h341v-85l-158 -250c-19 -31 -38 -59 -56 -85v-2h218v-104h-363z" />
    <glyph glyph-name="Japan1.8184" 
d="M195 323v362h-1l-89 -42l-18 81l125 56h86v-457h-103zM276 -25h-81l456 810h81zM925 -19h-347v66l64 53c118 99 168 148 169 199c0 38 -29 71 -77 71c-43 0 -78 -22 -107 -49l-38 72c42 38 94 63 159 63c97 0 167 -60 167 -150c0 -81 -65 -148 -133 -199l-56 -37v-1h199
v-88z" />
    <glyph glyph-name="Japan1.8185" 
d="M861 -21h-101v109h-228v72l189 289h140v-282h72v-79h-72v-109zM628 167h137v120c0 32 2 56 3 90l-12 1c-18 -35 -31 -58 -51 -92l-77 -117v-2zM189 323v362h-1l-89 -42l-17 81l124 56h86v-457h-103zM281 -25h-81l456 810h81z" />
    <glyph glyph-name="Japan1.8224" unicode="&#x24ea;" 
d="M972 380c0 -262 -214 -472 -472 -472c-260 0 -472 212 -472 472s212 472 472 472s472 -212 472 -472zM500 815c-242 0 -435 -197 -435 -435c0 -240 195 -435 435 -435s435 195 435 435s-195 435 -435 435zM499 115c-151 0 -195 149 -195 263c0 147 65 268 198 268
c143 0 194 -129 194 -262c0 -162 -68 -269 -197 -269zM501 207c48 0 73 56 73 174c0 114 -24 172 -73 172c-64 0 -75 -103 -75 -183c0 -95 22 -163 75 -163z" />
    <glyph glyph-name="Japan1.8225" unicode="&#x216a;" 
d="M690 -3h-163l-80 166c-30 61 -51 105 -71 149h-2c-17 -44 -34 -84 -63 -148l-74 -167h-158l215 393l-205 384h162l79 -171l56 -129h2c17 45 32 81 52 128l76 172h159l-206 -378zM753 774h141v-777h-141v777z" />
    <glyph glyph-name="Japan1.8226" unicode="&#x216b;" 
d="M583 -3h-158l-66 162c-25 59 -42 102 -58 145h-2c-13 -43 -28 -82 -52 -144l-59 -163h-156l190 394l-180 383h154l66 -169c19 -49 33 -87 47 -128h2c13 44 25 80 41 127l61 170h156l-182 -375zM586 774h134v-777h-134v777zM798 774h134v-777h-134v777z" />
    <glyph glyph-name="Japan1.8227" 
d="M498 27c-159 0 -226 161 -226 350c0 206 79 354 232 354c162 0 224 -161 224 -348c0 -229 -87 -356 -230 -356zM501 133c47 0 94 41 94 247c0 154 -28 245 -94 245c-96 0 -96 -197 -96 -258c0 -154 35 -234 96 -234zM214 852v-5c-64 -86 -109 -240 -109 -467
c0 -239 50 -387 109 -467v-5h-76c-64 85 -110 242 -110 472s46 387 110 472h76zM786 -92v5c64 86 109 240 109 467c0 239 -50 387 -109 467v5h76c64 -85 110 -242 110 -472s-46 -387 -110 -472h-76z" />
    <glyph glyph-name="Japan1.8228" 
d="M713 778l91 -63l-60 -86c35 -65 53 -150 53 -247c0 -228 -96 -396 -298 -396c-67 0 -122 19 -169 57l-43 -63l-91 63l61 87c-35 66 -54 151 -54 251c0 227 105 391 298 391c68 0 125 -20 169 -56zM376 295l213 308c-22 33 -52 50 -89 50c-144 0 -148 -287 -124 -358z
M625 464l-213 -307c22 -34 52 -52 87 -52c108 0 136 143 136 275c0 20 -1 53 -10 84z" />
    <glyph glyph-name="Japan1.8286" unicode="&#x2776;" 
d="M500 852c262 0 472 -214 472 -472c0 -260 -212 -472 -472 -472s-472 212 -472 472s212 472 472 472zM449 514v-396h138v522h-117l-148 -66l23 -107l103 47h1z" />
    <glyph glyph-name="Japan1.8287" unicode="&#x2777;" 
d="M500 852c262 0 472 -214 472 -472c0 -260 -212 -472 -472 -472s-472 212 -472 472s212 472 472 472zM305 119h390v118h-187v1l51 40c66 53 126 117 126 202c0 102 -72 169 -194 169c-75 0 -141 -26 -182 -56l39 -102c30 21 69 44 114 44c56 0 80 -29 80 -67
c-1 -54 -54 -105 -165 -200l-72 -63v-86z" />
    <glyph glyph-name="Japan1.8288" unicode="&#x2778;" 
d="M500 852c262 0 472 -214 472 -472c0 -260 -212 -472 -472 -472s-472 212 -472 472s212 472 472 472zM332 253l-27 -107c32 -19 92 -37 165 -37c136 0 224 65 224 160c0 67 -49 114 -113 125v2c65 22 97 65 97 120c0 75 -68 133 -185 133c-73 0 -140 -20 -173 -40l27 -103
c21 12 69 30 113 30c48 0 72 -18 72 -44c0 -37 -46 -49 -84 -49h-52v-101h55c48 0 95 -21 95 -64c0 -36 -33 -56 -88 -56c-51 0 -104 21 -126 31z" />
    <glyph glyph-name="Japan1.8289" unicode="&#x2779;" 
d="M500 852c262 0 472 -214 472 -472c0 -260 -212 -472 -472 -472s-472 212 -472 472s212 472 472 472zM508 118h135v116h59v107h-59v299h-179l-187 -313v-93h231v-116zM508 436v-95h-100v2l53 92c18 36 33 68 48 103h3c-2 -36 -4 -70 -4 -102z" />
    <glyph glyph-name="Japan1.8290" unicode="&#x277a;" 
d="M500 852c262 0 472 -214 472 -472c0 -260 -212 -472 -472 -472s-472 212 -472 472s212 472 472 472zM670 522v117h-306l-34 -283c22 3 43 6 71 6c106 0 148 -29 148 -76c0 -51 -53 -66 -98 -66c-49 0 -99 14 -123 25l-24 -107c31 -14 86 -29 154 -29
c159 0 238 86 238 184c0 60 -21 103 -61 131c-38 28 -94 41 -148 41c-10 0 -20 0 -32 -1l8 58h207z" />
    <glyph glyph-name="Japan1.8291" unicode="&#x277b;" 
d="M500 852c262 0 472 -214 472 -472c0 -260 -212 -472 -472 -472s-472 212 -472 472s212 472 472 472zM435 431l-1 1c29 99 152 106 167 106c25 0 36 0 53 -2v110c-11 1 -26 2 -42 2c-244 0 -324 -149 -324 -312c0 -119 63 -227 209 -227c120 0 206 86 206 189
c0 106 -79 164 -167 164c-47 0 -78 -11 -101 -31zM501 213c-50 0 -67 47 -67 89c0 14 1 25 6 35c9 13 27 26 56 26c38 0 65 -26 65 -75c0 -44 -26 -75 -60 -75z" />
    <glyph glyph-name="Japan1.8292" unicode="&#x277c;" 
d="M500 852c262 0 472 -214 472 -472c0 -260 -212 -472 -472 -472s-472 212 -472 472s212 472 472 472zM702 639h-389v-118h237v-1l-214 -402h153l213 432v89z" />
    <glyph glyph-name="Japan1.8293" unicode="&#x277d;" 
d="M500 852c262 0 472 -214 472 -472c0 -260 -212 -472 -472 -472s-472 212 -472 472s212 472 472 472zM615 398v2c48 24 72 67 72 112c0 63 -51 137 -183 137c-114 0 -195 -62 -195 -150c0 -46 25 -89 74 -114v-2c-56 -24 -91 -65 -91 -127c0 -69 61 -147 204 -147
c131 0 212 65 212 161c0 69 -47 111 -93 128zM500 554c43 0 56 -33 56 -57c0 -28 -22 -51 -45 -56c-37 12 -66 32 -66 61c0 27 19 52 55 52zM502 206c-37 0 -63 31 -63 63c0 34 20 58 52 66c41 -10 73 -36 73 -74c0 -29 -22 -55 -62 -55z" />
    <glyph glyph-name="Japan1.8294" unicode="&#x277e;" 
d="M500 852c262 0 472 -214 472 -472c0 -260 -212 -472 -472 -472s-472 212 -472 472s212 472 472 472zM346 222v-110c11 -1 26 -2 42 -2c244 0 324 149 324 312c0 119 -63 227 -209 227c-120 0 -206 -86 -206 -189c0 -106 79 -164 167 -164c47 0 78 11 101 31l1 -1
c-29 -99 -152 -106 -167 -106c-25 0 -36 0 -53 2zM499 545c56 0 67 -56 67 -88c0 -15 -1 -26 -6 -36c-9 -13 -27 -26 -56 -26c-38 0 -65 26 -65 75c0 44 26 75 60 75z" />
    <glyph glyph-name="Japan1.8295" 
d="M495 -3h-137l-57 159c-21 60 -36 102 -49 143h-1c-12 -41 -25 -80 -45 -142l-51 -160h-134l161 391l-153 386h136l56 -166c15 -47 26 -84 38 -124h2c11 43 20 78 34 124l50 166h139l-155 -375zM497 774h109v-777h-109v777zM663 774h109v-777h-109v777zM829 774h109v-777
h-109v777z" />
    <glyph glyph-name="Japan1.8296" 
d="M301 401l145 -401v774h109v-777h-236l-47 155c-19 58 -33 100 -43 140h-1c-11 -40 -21 -79 -38 -138l-44 -157h-125l142 392l-135 385h122l50 -162c14 -46 24 -81 35 -120h1c10 42 18 76 31 120l45 162h124zM807 428l48 346h124l-145 -777h-128l-147 777h128l52 -345
c13 -91 23 -169 33 -255h2c10 86 20 161 33 254z" />
    <glyph glyph-name="Japan1.8297" 
d="M775 428l60 346h141l-173 -777h-149l-165 737l-139 -333l168 -404h-152l-53 154c-21 57 -35 98 -48 138h-1c-12 -41 -23 -78 -43 -137l-49 -155h-148l163 391l-154 386h150l53 -161c15 -46 25 -81 37 -120h1c10 41 20 75 32 120l48 161h270l65 -343
c15 -91 29 -171 43 -257h2c12 86 24 163 41 254z" />
    <glyph glyph-name="Japan1.8298" unicode="&#x217a;" 
d="M790 649c-57 0 -83 41 -83 81c0 46 32 82 83 82c50 0 83 -36 83 -82c0 -45 -32 -81 -83 -81zM114 560h159l59 -102c18 -31 36 -65 52 -96h3c15 31 34 70 50 99l56 99h151l-178 -268l183 -295h-159l-62 109l-54 100h-3c-17 -34 -34 -67 -51 -98l-63 -111h-153l188 289z
M861 -3h-142v563h142v-563z" />
    <glyph glyph-name="Japan1.8299" unicode="&#x217b;" 
d="M641 658c-52 0 -79 37 -79 77c0 44 31 77 79 77c47 0 78 -33 78 -77c0 -43 -30 -77 -78 -77zM856 658c-52 0 -79 37 -79 77c0 44 31 77 78 77c48 0 79 -33 79 -77c0 -43 -31 -77 -78 -77zM47 560h158l55 -102c16 -32 34 -65 49 -96h2c15 31 34 70 49 99l52 99h150
l-170 -267l176 -296h-159l-59 109l-51 100h-2c-17 -34 -33 -67 -49 -98l-60 -111h-150l180 289zM708 -3h-134v563h134v-563zM922 -3h-134v563h134v-563z" />
    <glyph glyph-name="Japan1.8300" 
d="M552 665c-43 0 -66 36 -66 74c0 41 27 73 65 73c40 0 66 -32 66 -73s-26 -74 -65 -74zM715 665c-43 0 -65 36 -65 74c0 41 26 73 65 73s65 -32 65 -73s-25 -74 -65 -74zM879 665c-44 0 -66 36 -66 74c0 41 26 73 65 73c40 0 66 -32 66 -73s-26 -74 -65 -74zM346 293
l151 -292v559h109v-563h-249l-52 107c-14 31 -30 67 -43 99h-3c-14 -34 -28 -67 -42 -96l-52 -110h-136l158 289l-150 274h144l48 -101c14 -30 28 -64 41 -94h3c12 30 28 69 41 97l46 98h135zM769 -3h-109v563h109v-563zM933 -3h-109v563h109v-563z" />
    <glyph glyph-name="Japan1.8301" 
d="M499 665c-44 0 -66 36 -66 74c0 41 26 73 65 73c40 0 65 -32 65 -73s-25 -74 -64 -74zM28 560h134l40 -98c11 -30 23 -62 33 -92h2c10 30 23 67 34 95l38 95h126l-129 -265l133 -298h-134l-42 103c-12 30 -25 65 -36 95h-2c-11 -33 -22 -64 -34 -93l-43 -105h-127
l137 289zM553 -3h-109v563h109v-563zM560 560h127l57 -254c9 -46 18 -88 26 -132h2c9 44 17 85 27 132l56 254h124l-160 -563h-102z" />
    <glyph glyph-name="Japan1.8302" 
d="M763 305l67 255h144l-189 -563h-119l-170 519l-133 -223l165 -296h-156l-53 107c-14 31 -31 67 -45 99h-3c-14 -34 -29 -67 -43 -96l-54 -110h-148l170 289l-162 274h157l49 -101c15 -31 31 -64 44 -95h2c13 31 29 70 43 98l46 98h256l66 -255c12 -46 22 -88 32 -132h3
c9 44 19 85 31 132z" />
    <glyph glyph-name="Japan1.9780" 
d="M220 370c-130 0 -192 95 -192 220c0 121 60 220 193 220c130 0 193 -94 193 -220c0 -112 -52 -220 -194 -220zM219 453c55 0 76 61 76 137c0 92 -29 136 -75 136c-44 0 -74 -45 -74 -136s30 -137 73 -137zM801 810l-520 -860h-83l520 860h83zM861 180v-1
c61 -3 111 -42 111 -99c0 -85 -84 -130 -208 -130c-73 0 -134 17 -165 36l27 86c19 -8 75 -30 131 -30c57 0 89 13 89 45s-37 52 -92 52h-63v84h62c36 -1 81 10 81 40c0 21 -23 36 -74 36c-49 0 -100 -21 -120 -31l-28 84c33 20 99 38 172 38c107 0 170 -46 170 -109
c0 -47 -28 -83 -93 -101z" />
    <glyph glyph-name="Japan1.9781" 
d="M193 372v333h-2l-96 -41l-20 85l137 57h93v-434h-112zM801 810l-520 -860h-83l520 860h83zM599 -14l27 86c19 -8 75 -30 131 -30c57 0 89 13 89 45s-37 52 -92 52h-63v84h62c36 -1 81 10 81 40c0 21 -23 36 -74 36c-49 0 -100 -21 -120 -31l-28 84c33 20 99 38 172 38
c107 0 170 -46 170 -109c0 -47 -28 -83 -93 -101v-1c61 -3 111 -42 111 -99c0 -85 -84 -130 -208 -130c-73 0 -134 17 -165 36z" />
    <glyph glyph-name="Japan1.9782" 
d="M394 378h-364v66l67 48c119 86 168 127 168 167c0 34 -23 59 -77 59c-45 0 -85 -24 -112 -45l-41 80c41 33 103 57 178 57c97 0 170 -47 170 -141c0 -63 -49 -112 -118 -161l-49 -34v-1h178v-95zM801 810l-520 -860h-83l520 860h83zM599 -14l27 86c19 -8 75 -30 131 -30
c57 0 89 13 89 45s-37 52 -92 52h-63v84h62c36 -1 81 10 81 40c0 21 -23 36 -74 36c-49 0 -100 -21 -120 -31l-28 84c33 20 99 38 172 38c107 0 170 -46 170 -109c0 -47 -28 -83 -93 -101v-1c61 -3 111 -42 111 -99c0 -85 -84 -130 -208 -130c-73 0 -134 17 -165 36z" />
    <glyph glyph-name="Japan1.9783" 
d="M914 -48h-114v104h-220v75l170 252h164v-243h58v-84h-58v-104zM689 140h111v85c0 29 1 62 2 95h-3c-14 -26 -39 -64 -54 -89l-56 -88v-3zM28 407l27 86c19 -9 75 -31 131 -31c57 0 89 14 89 43c0 31 -37 48 -92 48h-63v84h62c36 -1 82 11 82 42c0 24 -24 40 -75 40
c-49 0 -100 -21 -120 -30l-28 83c33 20 99 38 172 38c107 0 171 -47 171 -113c0 -47 -28 -86 -94 -102v-3c61 -2 111 -39 111 -95c0 -83 -84 -126 -208 -126c-73 0 -134 17 -165 36zM801 810l-520 -860h-83l520 860h83z" />
    <glyph glyph-name="Japan1.9784" 
d="M193 372v333h-2l-96 -41l-20 85l137 57h93v-434h-112zM801 810l-520 -860h-83l520 860h83zM947 382v-95h-207l-10 -47c13 1 24 1 37 1c92 0 205 -29 205 -143c0 -87 -71 -148 -217 -148c-69 0 -121 13 -152 27l24 88c22 -10 74 -23 124 -23c41 0 98 9 98 53
c0 35 -32 62 -144 62c-32 0 -55 -3 -78 -7l32 232h288z" />
    <glyph glyph-name="Japan1.9785" unicode="&#x2156;" 
d="M394 378h-364v66l67 48c119 86 168 127 168 167c0 34 -23 59 -77 59c-45 0 -85 -24 -112 -45l-41 80c41 33 103 57 178 57c97 0 170 -47 170 -141c0 -63 -49 -112 -118 -161l-49 -34v-1h178v-95zM801 810l-520 -860h-83l520 860h83zM947 382v-95h-207l-10 -47
c13 1 24 1 37 1c92 0 205 -29 205 -143c0 -87 -71 -148 -217 -148c-69 0 -121 13 -152 27l24 88c22 -10 74 -23 124 -23c41 0 98 9 98 53c0 35 -32 62 -144 62c-32 0 -55 -3 -78 -7l32 232h288z" />
    <glyph glyph-name="Japan1.9786" unicode="&#x2157;" 
d="M28 407l28 86c18 -8 74 -30 130 -30c57 0 88 13 88 42c0 31 -37 48 -91 48h-64v84h63c36 -1 81 11 81 42c0 24 -23 40 -75 40c-47 0 -99 -21 -118 -30l-29 83c33 20 99 38 172 38c107 0 171 -47 171 -113c0 -47 -28 -86 -94 -102v-2c61 -3 111 -40 111 -96
c0 -83 -84 -126 -208 -126c-73 0 -134 17 -165 36zM801 810l-520 -860h-83l520 860h83zM947 382v-95h-207l-10 -47c13 1 24 1 37 1c92 0 205 -29 205 -143c0 -87 -71 -148 -217 -148c-69 0 -121 13 -152 27l24 88c22 -10 74 -23 124 -23c41 0 98 9 98 53
c0 35 -32 62 -144 62c-32 0 -55 -3 -78 -7l32 232h288z" />
    <glyph glyph-name="Japan1.9787" unicode="&#x2158;" 
d="M363 370h-115v103h-220v75l171 253h164v-244h57v-84h-57v-103zM137 557h111v86c0 28 1 61 2 95h-2c-15 -26 -39 -65 -55 -90l-56 -88v-3zM801 810l-520 -860h-83l520 860h83zM947 382v-95h-207l-10 -47c13 1 24 1 37 1c92 0 205 -29 205 -143c0 -87 -71 -148 -217 -148
c-69 0 -121 13 -152 27l24 88c22 -10 74 -23 124 -23c41 0 98 9 98 53c0 35 -32 62 -144 62c-32 0 -55 -3 -78 -7l32 232h288z" />
    <glyph glyph-name="Japan1.9788" unicode="&#x2159;" 
d="M915 388v-91c-11 2 -26 2 -40 2c-117 -4 -161 -40 -174 -81h2c27 20 61 29 108 29c81 0 161 -46 161 -143c0 -96 -88 -154 -189 -154c-144 0 -202 99 -202 191c0 69 27 137 80 181c55 47 117 64 217 66c11 1 28 1 37 0zM782 36c40 0 69 24 69 64c0 42 -32 64 -78 64
c-47 0 -77 -33 -77 -55c0 -34 29 -73 86 -73zM193 372v333h-2l-96 -41l-20 85l137 57h93v-434h-112zM801 810l-520 -860h-83l520 860h83z" />
    <glyph glyph-name="Japan1.9789" unicode="&#x215a;" 
d="M915 388v-91c-11 2 -26 2 -40 2c-117 -4 -161 -40 -174 -81h2c27 20 61 29 108 29c81 0 161 -46 161 -143c0 -96 -88 -154 -189 -154c-144 0 -202 99 -202 191c0 69 27 137 80 181c55 47 117 64 217 66c11 1 28 1 37 0zM782 36c40 0 69 24 69 64c0 42 -32 64 -78 64
c-47 0 -77 -33 -77 -55c0 -34 29 -73 86 -73zM801 810l-520 -860h-83l520 860h83zM372 798v-95h-207l-9 -48c12 2 23 2 36 2c89 0 205 -27 205 -143c0 -87 -71 -148 -217 -148c-69 0 -121 13 -152 26l25 89c22 -10 73 -24 123 -24s98 13 98 55c0 34 -34 60 -144 60
c-32 0 -54 -2 -78 -6l32 232h288z" />
    <glyph glyph-name="Japan1.9790" 
d="M193 372v333h-2l-96 -41l-20 85l137 57h93v-434h-112zM801 810l-520 -860h-83l520 860h83zM607 382h365v-71l-203 -359h-133l206 332v3h-235v95z" />
    <glyph glyph-name="Japan1.9791" 
d="M394 378h-364v66l67 48c119 86 168 127 168 167c0 34 -23 59 -77 59c-45 0 -85 -24 -112 -45l-41 80c41 33 103 57 178 57c97 0 170 -47 170 -141c0 -63 -49 -112 -118 -161l-49 -34v-1h178v-95zM801 810l-520 -860h-83l520 860h83zM607 382h365v-71l-203 -359h-133
l206 332v3h-235v95z" />
    <glyph glyph-name="Japan1.9792" 
d="M28 407l27 86c19 -9 75 -31 131 -31c57 0 89 14 89 43c0 31 -37 48 -92 48h-63v84h62c36 -1 82 11 82 42c0 24 -24 40 -75 40c-49 0 -100 -21 -120 -30l-28 83c33 20 99 38 172 38c107 0 171 -47 171 -113c0 -47 -28 -86 -94 -102v-3c61 -2 111 -39 111 -95
c0 -83 -84 -126 -208 -126c-73 0 -134 17 -165 36zM801 810l-520 -860h-83l520 860h83zM607 382h365v-71l-203 -359h-133l206 332v3h-235v95z" />
    <glyph glyph-name="Japan1.9793" 
d="M363 370h-115v103h-220v75l171 253h164v-244h57v-84h-57v-103zM137 557h111v86c0 28 1 61 2 95h-2c-15 -26 -39 -65 -55 -90l-56 -88v-3zM801 810l-520 -860h-83l520 860h83zM607 382h365v-71l-203 -359h-133l206 332v3h-235v95z" />
    <glyph glyph-name="Japan1.9794" 
d="M801 810l-520 -860h-83l520 860h83zM372 798v-95h-207l-9 -48c12 2 23 2 36 2c89 0 205 -27 205 -143c0 -87 -71 -148 -217 -148c-69 0 -121 13 -152 26l25 89c22 -10 73 -24 123 -24s98 13 98 55c0 34 -34 60 -144 60c-32 0 -54 -2 -78 -6l32 232h288zM607 382h365v-71
l-203 -359h-133l206 332v3h-235v95z" />
    <glyph glyph-name="Japan1.9795" 
d="M326 808h37v-91c-8 1 -18 1 -28 1c-112 0 -171 -31 -186 -80h1c28 20 61 29 108 29c82 0 161 -47 161 -143s-87 -154 -188 -154c-145 0 -203 99 -203 191c0 68 28 137 81 181c54 46 117 64 217 66zM230 456c40 0 69 24 69 64c0 41 -33 64 -78 64c-40 0 -77 -28 -77 -56
c0 -33 28 -72 86 -72zM801 810l-520 -860h-83l520 860h83zM607 382h365v-71l-203 -359h-133l206 332v3h-235v95z" />
    <glyph glyph-name="Japan1.9796" 
d="M670 170v1c-45 19 -70 53 -70 94c0 74 76 124 178 124c141 0 172 -74 172 -112c0 -43 -28 -79 -68 -93v-1c43 -11 90 -43 90 -102c0 -74 -71 -131 -199 -131c-142 0 -190 73 -190 118c0 50 32 84 87 102zM776 309c-47 0 -63 -20 -63 -40c0 -26 34 -42 73 -50
c27 4 53 21 53 45c0 22 -19 45 -63 45zM778 32c45 0 71 16 71 38c0 31 -29 50 -79 59c-40 -5 -62 -25 -62 -51c0 -24 29 -46 70 -46zM193 372v333h-2l-96 -41l-20 85l137 57h93v-434h-112zM801 810l-520 -860h-83l520 860h83z" />
    <glyph glyph-name="Japan1.9797" 
d="M670 170v1c-45 19 -70 53 -70 94c0 74 76 124 178 124c141 0 172 -74 172 -112c0 -43 -28 -79 -68 -93v-1c43 -11 90 -43 90 -102c0 -74 -71 -131 -199 -131c-142 0 -190 73 -190 118c0 50 32 84 87 102zM776 309c-47 0 -63 -20 -63 -40c0 -26 34 -42 73 -50
c27 4 53 21 53 45c0 22 -19 45 -63 45zM778 32c45 0 71 16 71 38c0 31 -29 50 -79 59c-40 -5 -62 -25 -62 -51c0 -24 29 -46 70 -46zM28 407l27 86c19 -9 75 -31 131 -31c57 0 89 14 89 43c0 31 -37 48 -92 48h-63v84h62c36 -1 82 11 82 42c0 24 -24 40 -75 40
c-49 0 -100 -21 -120 -30l-28 83c33 20 99 38 172 38c107 0 171 -47 171 -113c0 -47 -28 -86 -94 -102v-3c61 -2 111 -39 111 -95c0 -83 -84 -126 -208 -126c-73 0 -134 17 -165 36zM801 810l-520 -860h-83l520 860h83z" />
    <glyph glyph-name="Japan1.9798" 
d="M670 170v1c-45 19 -70 53 -70 94c0 74 76 124 178 124c141 0 172 -74 172 -112c0 -43 -28 -79 -68 -93v-1c43 -11 90 -43 90 -102c0 -74 -71 -131 -199 -131c-142 0 -190 73 -190 118c0 50 32 84 87 102zM776 309c-47 0 -63 -20 -63 -40c0 -26 34 -42 73 -50
c27 4 53 21 53 45c0 22 -19 45 -63 45zM778 32c45 0 71 16 71 38c0 31 -29 50 -79 59c-40 -5 -62 -25 -62 -51c0 -24 29 -46 70 -46zM801 810l-520 -860h-83l520 860h83zM372 803v-95h-207l-9 -47c12 1 23 1 36 1c60 0 205 -11 205 -143c0 -87 -71 -148 -217 -148
c-69 0 -121 14 -152 27l25 88c22 -9 73 -23 123 -23c48 0 98 13 98 55c0 34 -34 60 -144 60c-32 0 -54 -3 -78 -7l32 232h288z" />
    <glyph glyph-name="Japan1.9799" 
d="M670 170v1c-45 19 -70 53 -70 94c0 74 76 124 178 124c141 0 172 -74 172 -112c0 -43 -28 -79 -68 -93v-1c43 -11 90 -43 90 -102c0 -74 -71 -131 -199 -131c-142 0 -190 73 -190 118c0 50 32 84 87 102zM776 309c-47 0 -63 -20 -63 -40c0 -26 34 -42 73 -50
c27 4 53 21 53 45c0 22 -19 45 -63 45zM778 32c45 0 71 16 71 38c0 31 -29 50 -79 59c-40 -5 -62 -25 -62 -51c0 -24 29 -46 70 -46zM801 810l-520 -860h-83l520 860h83zM28 803h365v-71l-202 -358h-133l205 331v3h-235v95z" />
    <glyph glyph-name="Japan1.9800" 
d="M637 -49v91c9 -1 19 -2 29 -2c111 0 171 33 185 81h-1c-28 -20 -61 -29 -108 -29c-82 0 -161 46 -161 143c0 95 87 154 188 154c145 0 203 -100 203 -191c0 -69 -28 -138 -81 -182c-54 -46 -117 -63 -216 -65c-12 -1 -28 -1 -38 0zM770 303c-40 0 -69 -24 -69 -64
c0 -42 33 -64 78 -64c48 0 78 33 78 55c0 34 -29 73 -87 73zM193 374v333h-2l-96 -42l-20 86l137 57h93v-434h-112zM801 810l-520 -860h-83l520 860h83z" />
    <glyph glyph-name="Japan1.9801" 
d="M637 -49v91c9 -1 19 -2 29 -2c111 0 171 33 185 81h-1c-28 -20 -61 -29 -108 -29c-82 0 -161 46 -161 143c0 95 87 154 188 154c145 0 203 -100 203 -191c0 -69 -28 -138 -81 -182c-54 -46 -117 -63 -216 -65c-12 -1 -28 -1 -38 0zM770 303c-40 0 -69 -24 -69 -64
c0 -42 33 -64 78 -64c48 0 78 33 78 55c0 34 -29 73 -87 73zM394 378h-364v66l67 48c119 86 168 127 168 167c0 34 -23 59 -77 59c-45 0 -85 -24 -112 -45l-41 80c41 33 103 57 178 57c97 0 170 -47 170 -141c0 -63 -49 -112 -118 -161l-49 -34v-1h178v-95zM801 810
l-520 -860h-83l520 860h83z" />
    <glyph glyph-name="Japan1.9802" 
d="M363 370h-115v103h-220v75l171 253h164v-244h57v-84h-57v-103zM137 557h111v86c0 28 1 61 2 95h-2c-15 -26 -39 -65 -55 -90l-56 -88v-3zM637 -49v91c9 -1 19 -2 29 -2c111 0 171 33 185 81h-1c-28 -20 -61 -29 -108 -29c-82 0 -161 46 -161 143c0 95 87 154 188 154
c145 0 203 -100 203 -191c0 -69 -28 -138 -81 -182c-54 -46 -117 -63 -216 -65c-12 -1 -28 -1 -38 0zM770 303c-40 0 -69 -24 -69 -64c0 -42 33 -64 78 -64c48 0 78 33 78 55c0 34 -29 73 -87 73zM801 810l-520 -860h-83l520 860h83z" />
    <glyph glyph-name="Japan1.9803" 
d="M637 -49v91c9 -1 19 -2 29 -2c111 0 171 33 185 81h-1c-28 -20 -61 -29 -108 -29c-82 0 -161 46 -161 143c0 95 87 154 188 154c145 0 203 -100 203 -191c0 -69 -28 -138 -81 -182c-54 -46 -117 -63 -216 -65c-12 -1 -28 -1 -38 0zM770 303c-40 0 -69 -24 -69 -64
c0 -42 33 -64 78 -64c48 0 78 33 78 55c0 34 -29 73 -87 73zM801 810l-520 -860h-83l520 860h83zM372 798v-95h-207l-9 -48c12 2 23 2 36 2c89 0 205 -27 205 -143c0 -87 -71 -148 -217 -148c-69 0 -121 13 -152 26l25 89c22 -10 73 -24 123 -24s98 13 98 55
c0 34 -34 60 -144 60c-32 0 -54 -2 -78 -6l32 232h288z" />
    <glyph glyph-name="Japan1.9804" 
d="M637 -49v91c9 -1 19 -2 29 -2c111 0 171 33 185 81h-1c-28 -20 -61 -29 -108 -29c-82 0 -161 46 -161 143c0 95 87 154 188 154c145 0 203 -100 203 -191c0 -69 -28 -138 -81 -182c-54 -46 -117 -63 -216 -65c-12 -1 -28 -1 -38 0zM770 303c-40 0 -69 -24 -69 -64
c0 -42 33 -64 78 -64c48 0 78 33 78 55c0 34 -29 73 -87 73zM801 810l-520 -860h-83l520 860h83zM28 803h365v-71l-202 -358h-133l205 331v3h-235v95z" />
    <glyph glyph-name="Japan1.9805" 
d="M328 605v-1c42 -11 89 -42 89 -102c0 -74 -71 -131 -199 -131c-142 0 -190 73 -190 118c0 51 32 84 87 102v2c-45 18 -69 52 -69 93c0 74 75 124 178 124c136 0 171 -71 171 -112c0 -43 -28 -79 -67 -93zM221 730c-45 0 -63 -20 -63 -40c0 -26 34 -42 73 -50
c27 4 53 21 53 45c0 22 -19 45 -63 45zM224 453c43 0 70 16 70 39c0 30 -29 50 -79 58c-40 -5 -62 -25 -62 -50c0 -24 30 -47 71 -47zM851 121h-1c-28 -20 -61 -29 -108 -29c-82 0 -161 46 -161 143c0 95 87 154 188 154c145 0 203 -100 203 -191c0 -69 -28 -138 -81 -182
c-54 -46 -117 -63 -216 -65c-12 -1 -28 -1 -38 0v91c9 -1 19 -2 29 -2c111 0 171 33 185 81zM770 303c-40 0 -69 -24 -69 -64c0 -42 33 -64 78 -64c48 0 78 33 78 55c0 34 -29 73 -87 73zM801 810l-520 -860h-83l520 860h83z" />
    <glyph glyph-name="Japan1.9806" 
d="M825 -50c-103 0 -144 83 -145 219c0 134 41 220 146 220c104 0 146 -82 146 -219c0 -125 -34 -220 -147 -220zM825 33c23 0 45 20 45 137c0 102 -15 136 -44 136c-26 0 -45 -35 -45 -136c1 -101 18 -137 44 -137zM721 810l-520 -860h-83l520 860h83zM160 372v333h-2
l-88 -41l-18 85l125 57h85v-434h-102zM539 -48v333h-2l-39 -20l-20 87l80 34h79v-434h-98z" />
    <glyph glyph-name="Japan1.9807" 
d="M825 -50c-103 0 -144 83 -145 219c0 134 41 220 146 220c104 0 146 -82 146 -219c0 -125 -34 -220 -147 -220zM825 33c23 0 45 20 45 137c0 102 -15 136 -44 136c-26 0 -45 -35 -45 -136c1 -101 18 -137 44 -137zM264 595v-3c55 -2 100 -39 100 -95
c0 -83 -76 -126 -187 -126c-66 0 -120 17 -149 36l25 85c17 -8 67 -30 118 -30c50 0 79 14 79 43c0 31 -34 48 -82 48h-57v84h56c31 -1 72 11 72 42c0 24 -21 40 -66 40c-44 0 -90 -20 -107 -30l-26 83c30 20 89 38 155 38c95 0 153 -47 153 -113c0 -47 -25 -86 -84 -102z
M721 810l-520 -860h-83l520 860h83zM539 -48v333h-2l-39 -20l-20 87l80 34h79v-434h-98z" />
    <glyph glyph-name="Japan1.9808" 
d="M825 -50c-103 0 -144 83 -145 219c0 134 41 220 146 220c104 0 146 -82 146 -219c0 -125 -34 -220 -147 -220zM825 33c23 0 45 20 45 137c0 102 -15 136 -44 136c-26 0 -45 -35 -45 -136c1 -101 18 -137 44 -137zM721 810l-520 -860h-83l520 860h83zM28 803h330v-71
l-183 -358h-120l185 331v3h-212v95zM539 -48v333h-2l-39 -20l-20 87l80 34h79v-434h-98z" />
    <glyph glyph-name="Japan1.9809" 
d="M270 542h-2c-24 -20 -54 -29 -96 -29c-73 0 -144 46 -144 143c0 96 78 154 169 154c131 0 183 -99 183 -191c0 -69 -26 -137 -73 -181c-49 -47 -105 -64 -195 -66c-10 -1 -25 -1 -34 0v91c11 -2 24 -2 36 -2c106 4 145 40 156 81zM198 724c-36 0 -61 -25 -61 -64
c0 -42 29 -64 70 -64c42 0 69 35 69 55c0 34 -26 73 -78 73zM825 -50c-103 0 -144 83 -145 219c0 134 41 220 146 220c104 0 146 -82 146 -219c0 -125 -34 -220 -147 -220zM825 33c23 0 45 20 45 137c0 102 -15 136 -44 136c-26 0 -45 -35 -45 -136c1 -101 18 -137 44 -137z
M721 810l-520 -860h-83l520 860h83zM539 -48v333h-2l-39 -20l-20 87l80 34h79v-434h-98z" />
    <glyph glyph-name="Japan1.9810" 
d="M161 374v333h-2l-88 -42l-18 86l125 57h85v-434h-102zM721 810l-520 -860h-83l520 860h83zM555 -48v333h-2l-40 -20l-19 87l79 34h80v-434h-98zM835 -48v333h-2l-40 -20l-19 87l79 34h80v-434h-98z" />
    <glyph glyph-name="Japan1.9811" 
d="M350 378h-320v66l60 48c107 86 151 127 151 167c0 34 -21 59 -70 59c-39 0 -75 -24 -100 -45l-37 80c37 33 93 57 160 57c88 0 153 -47 153 -141c0 -63 -43 -112 -105 -161l-45 -34v-1h153v-95zM730 810l-520 -860h-83l520 860h83zM555 -48v333h-2l-40 -20l-19 87l79 34
h80v-434h-98zM835 -48v333h-2l-40 -20l-19 87l79 34h80v-434h-98z" />
    <glyph glyph-name="Japan1.9812" 
d="M28 407l25 85c17 -8 67 -30 118 -30c50 0 79 14 79 43c0 31 -34 48 -82 48h-57v84h56c31 -1 72 11 72 42c0 24 -21 40 -66 40c-44 0 -90 -20 -107 -30l-26 83c30 20 89 38 155 38c95 0 153 -47 153 -113c0 -47 -25 -86 -84 -102v-3c55 -2 100 -39 100 -95
c0 -83 -76 -126 -187 -126c-66 0 -120 17 -149 36zM721 810l-520 -860h-83l520 860h83zM555 -48v333h-2l-40 -20l-19 87l79 34h80v-434h-98zM835 -48v333h-2l-40 -20l-19 87l79 34h80v-434h-98z" />
    <glyph glyph-name="Japan1.9813" 
d="M329 374l-104 -1v103h-197v76l154 253h147v-244h51v-85h-51v-102zM126 561h99v85c0 29 1 60 2 94h-2c-13 -26 -34 -63 -48 -88l-51 -88v-3zM729 810l-520 -860h-83l520 860h83zM555 -48v333h-2l-40 -20l-19 87l79 34h80v-434h-98zM835 -48v333h-2l-40 -20l-19 87l79 34
h80v-434h-98z" />
    <glyph glyph-name="Japan1.9814" 
d="M721 810l-520 -860h-83l520 860h83zM338 803v-95h-187l-8 -47c10 1 20 1 33 1c59 0 184 -14 184 -143c0 -87 -63 -148 -195 -148c-62 0 -109 14 -137 27l22 88c20 -9 66 -23 112 -23c36 0 86 9 86 53v2c0 34 -30 60 -129 60c-28 0 -48 -3 -69 -7l29 232h259zM555 -48v333
h-2l-40 -20l-19 87l79 34h80v-434h-98zM835 -48v333h-2l-40 -20l-19 87l79 34h80v-434h-98z" />
    <glyph glyph-name="Japan1.9815" 
d="M329 809v-91c-7 1 -16 2 -25 2c-100 0 -153 -33 -166 -81h1c25 20 55 29 97 29c73 0 144 -46 144 -143c0 -95 -79 -154 -170 -154c-129 0 -182 100 -182 191c0 69 26 138 73 182c48 46 105 63 196 65c9 1 24 1 32 0zM209 457c37 0 62 25 62 64c0 42 -29 64 -70 64
c-38 0 -68 -28 -68 -55c0 -34 26 -73 76 -73zM721 810l-520 -860h-83l520 860h83zM555 -48v333h-2l-40 -20l-19 87l79 34h80v-434h-98zM835 -48v333h-2l-40 -20l-19 87l79 34h80v-434h-98z" />
    <glyph glyph-name="Japan1.9816" 
d="M721 810l-520 -860h-83l520 860h83zM28 803h330v-71l-183 -358h-120l185 331v3h-212v95zM555 -48v333h-2l-40 -20l-19 87l79 34h80v-434h-98zM835 -48v333h-2l-40 -20l-19 87l79 34h80v-434h-98z" />
    <glyph glyph-name="Japan1.9817" 
d="M297 605v-1c39 -11 81 -42 81 -102c0 -74 -64 -131 -178 -131c-128 0 -172 73 -172 118c0 51 29 84 78 102v2c-40 18 -62 52 -62 93c0 74 68 124 160 124c122 0 155 -71 155 -112c0 -43 -26 -79 -62 -93zM202 730c-42 0 -56 -20 -56 -40c0 -26 30 -42 65 -50
c24 4 47 21 47 45c0 22 -17 45 -56 45zM204 453c39 0 62 17 62 39c0 30 -26 50 -69 58c-37 -5 -56 -25 -56 -50c0 -24 27 -47 63 -47zM724 810l-520 -860h-83l521 860h82zM555 -48v333h-2l-40 -20l-19 87l79 34h80v-434h-98zM835 -48v333h-2l-40 -20l-19 87l79 34h80v-434
h-98z" />
    <glyph glyph-name="Japan1.9818" 
d="M78 372v91c11 -2 24 -2 36 -2c106 4 145 40 156 81h-2c-24 -20 -54 -29 -96 -29c-73 0 -144 46 -144 143c0 96 78 154 169 154c131 0 183 -99 183 -191c0 -69 -26 -137 -73 -181c-49 -47 -105 -64 -195 -66c-10 -1 -25 -1 -34 0zM198 724c-36 0 -61 -25 -61 -64
c0 -42 29 -64 70 -64c42 0 69 35 69 55c0 34 -26 73 -78 73zM721 810l-520 -860h-83l520 860h83zM555 -48v333h-2l-40 -20l-19 87l79 34h80v-434h-98zM835 -48v333h-2l-40 -20l-19 87l79 34h80v-434h-98z" />
    <glyph glyph-name="Japan1.9819" 
d="M345 371c-95 0 -131 83 -132 219c0 134 37 220 133 220c95 0 133 -81 133 -219c0 -125 -31 -220 -134 -220zM346 454c20 0 32 36 32 138c0 101 -12 135 -32 135c-19 0 -32 -35 -32 -135c1 -102 13 -138 32 -138zM801 810l-520 -860h-83l520 860h83zM85 374v332h-2
l-39 -19l-20 86l80 35h80v-434h-99zM615 -48v333h-2l-40 -20l-19 87l80 34h79v-434h-98zM851 -48v333h-2l-39 -20l-20 87l80 34h79v-434h-98z" />
    <glyph glyph-name="Japan1.9820" 
d="M160 372v333h-2l-88 -41l-18 85l125 57h85v-434h-102zM730 810l-520 -860h-83l520 860h83zM555 -48v333h-2l-40 -20l-19 87l79 34h80v-434h-98zM972 -48h-265v65l43 47c84 88 113 129 113 170c0 34 -15 59 -51 59c-23 0 -52 -22 -67 -44l-33 80c31 32 77 57 132 57
c73 0 126 -48 126 -142c0 -63 -34 -111 -88 -161l-37 -34v-1h127v-96z" />
    <glyph glyph-name="Japan1.9821" 
d="M730 810l-520 -860h-83l520 860h83zM338 803v-95h-187l-8 -47c10 1 20 1 33 1c59 0 184 -14 184 -143c0 -87 -63 -148 -195 -148c-62 0 -109 14 -137 27l22 88c20 -9 66 -23 112 -23c36 0 86 9 86 53v2c0 34 -30 60 -129 60c-28 0 -48 -3 -69 -7l29 232h259zM555 -48v333
h-2l-40 -20l-19 87l79 34h80v-434h-98zM972 -48h-265v65l43 47c84 88 113 129 113 170c0 34 -15 59 -51 59c-23 0 -52 -22 -67 -44l-33 80c31 32 77 57 132 57c73 0 126 -48 126 -142c0 -63 -34 -111 -88 -161l-37 -34v-1h127v-96z" />
    <glyph glyph-name="Japan1.9822" 
d="M730 810l-520 -860h-83l520 860h83zM28 803h330v-71l-183 -358h-120l185 331v3h-212v95zM555 -48v333h-2l-40 -20l-19 87l79 34h80v-434h-98zM972 -48h-265v65l43 47c84 88 113 129 113 170c0 34 -15 59 -51 59c-23 0 -52 -22 -67 -44l-33 80c31 32 77 57 132 57
c73 0 126 -48 126 -142c0 -63 -34 -111 -88 -161l-37 -34v-1h127v-96z" />
    <glyph glyph-name="Japan1.9823" 
d="M89 376v332h-2l-39 -19l-20 86l80 35h79v-434h-98zM788 810l-520 -860h-83l520 860h83zM310 376v332h-2l-39 -19l-19 86l79 35h80v-434h-99zM607 -48v333h-2l-40 -20l-19 87l80 34h79v-434h-98zM972 -48h-231v74l34 46c71 84 88 124 88 163c0 34 -12 58 -42 58
c-19 0 -36 -12 -48 -26l-26 76c26 25 60 43 108 43c68 0 115 -50 115 -133c0 -63 -27 -119 -77 -170l-32 -34v-1h111v-96z" />
    <glyph glyph-name="Japan1.9824" 
d="M659 -50c-56 0 -95 51 -95 219c0 136 24 220 96 220c70 0 96 -79 96 -219c0 -128 -20 -220 -97 -220zM660 33c16 0 22 23 22 137c0 105 -5 136 -22 136c-16 0 -22 -32 -22 -136s6 -137 22 -137zM875 -50c-59 0 -94 57 -94 219c0 136 23 220 95 220c71 0 96 -79 96 -219
c0 -128 -20 -220 -97 -220zM876 33c17 0 23 24 23 137c0 105 -5 136 -23 136c-16 0 -22 -32 -22 -136c1 -104 6 -137 22 -137zM636 810l-520 -860h-83l520 860h83zM103 376v333h-2l-46 -22l-20 86l86 37h80v-434h-98zM457 -48v333h-2l-39 -20l-20 87l80 34h56v-434h-75z" />
    <glyph glyph-name="Japan1.9825" 
d="M499 464c-119 0 -175 83 -175 194c0 107 54 194 175 194c120 0 176 -83 176 -193c0 -101 -47 -195 -176 -195zM499 538c50 0 69 53 69 121c0 80 -26 119 -69 119c-40 0 -68 -39 -68 -119c0 -81 28 -121 68 -121zM952 403v-46h-904v46h904zM568 106v-2
c56 -2 101 -35 101 -85c0 -73 -77 -111 -190 -111c-66 0 -122 15 -150 32l25 76c17 -8 68 -27 119 -27c52 0 81 12 81 38s-35 42 -83 42h-59v74h58c32 -1 73 11 73 37c0 22 -21 35 -68 35c-44 0 -91 -17 -108 -26l-27 74c30 17 91 33 158 33c97 0 155 -41 155 -99
c0 -42 -25 -77 -85 -91z" />
    <glyph glyph-name="Japan1.9826" 
d="M457 466v297h-2l-88 -35l-18 72l125 49h86v-383h-103zM952 403v-46h-904v46h904zM665 -88h-332v59l61 42c109 77 153 113 153 149c0 31 -21 52 -70 52c-41 0 -77 -21 -102 -40l-37 72c37 29 94 50 163 50c88 0 154 -42 154 -125c0 -56 -43 -98 -107 -143l-44 -30v-1h161
v-85z" />
    <glyph glyph-name="Japan1.9827" 
d="M457 466v297h-2l-88 -35l-18 72l125 49h86v-383h-103zM952 403v-46h-904v46h904zM329 -60l25 76c17 -8 68 -27 119 -27c52 0 81 12 81 38s-35 42 -83 42h-59v74h58c32 -1 73 11 73 37c0 22 -21 35 -68 35c-44 0 -91 -17 -108 -26l-27 74c30 17 91 33 158 33
c97 0 155 -41 155 -99c0 -42 -25 -77 -85 -91v-2c56 -2 101 -35 101 -85c0 -73 -77 -111 -190 -111c-66 0 -122 15 -150 32z" />
    <glyph glyph-name="Japan1.9828" 
d="M665 468h-332v58l61 42c109 77 153 113 153 150c0 30 -21 51 -70 51c-41 0 -77 -21 -102 -40l-37 72c37 29 94 51 163 51c88 0 154 -42 154 -125c0 -57 -43 -99 -107 -144l-44 -29v-2h161v-84zM952 403v-46h-904v46h904zM329 -60l25 76c17 -8 68 -27 119 -27
c52 0 81 12 81 38s-35 42 -83 42h-59v74h58c32 -1 73 11 73 37c0 22 -21 35 -68 35c-44 0 -91 -17 -108 -26l-27 74c30 17 91 33 158 33c97 0 155 -41 155 -99c0 -42 -25 -77 -85 -91v-2c56 -2 101 -35 101 -85c0 -73 -77 -111 -190 -111c-66 0 -122 15 -150 32z" />
    <glyph glyph-name="Japan1.9829" 
d="M626 -89h-106v90h-200v66l156 224h150v-214h52v-76h-52v-90zM420 77h100v72c0 25 1 56 3 87h-3c-13 -24 -35 -57 -49 -80l-51 -77v-2zM457 466v297h-2l-88 -35l-18 72l125 49h86v-383h-103zM952 403v-46h-904v46h904z" />
    <glyph glyph-name="Japan1.9830" 
d="M626 -89h-106v90h-200v66l156 224h150v-214h52v-76h-52v-90zM420 77h100v72c0 25 1 56 3 87h-3c-13 -24 -35 -57 -49 -80l-51 -77v-2zM330 496l26 75c17 -7 68 -26 119 -26s81 12 81 37c0 27 -35 43 -83 43h-59v74h57c32 -1 73 10 73 37c0 22 -21 35 -67 35
c-44 0 -91 -17 -109 -26l-26 73c30 18 90 34 157 34c97 0 155 -42 155 -100c0 -41 -24 -77 -85 -90v-2c56 -3 101 -35 101 -85c0 -74 -76 -111 -189 -111c-66 0 -123 14 -151 32zM952 403v-46h-904v46h904z" />
    <glyph glyph-name="Japan1.9831" 
d="M457 466v297h-2l-88 -35l-18 72l125 49h86v-383h-103zM952 403v-46h-904v46h904zM645 289v-84h-189l-9 -41c12 1 21 2 33 2c44 0 187 -5 187 -127c0 -77 -63 -131 -197 -131c-63 0 -111 12 -139 24l23 77c20 -7 67 -19 112 -19c41 0 89 7 89 48c0 30 -31 53 -131 53
c-29 0 -49 -3 -71 -6l29 204h263z" />
    <glyph glyph-name="Japan1.9832" 
d="M665 468h-332v58l61 42c109 77 153 113 153 150c0 30 -21 51 -70 51c-41 0 -77 -21 -102 -40l-37 72c37 29 94 51 163 51c88 0 154 -42 154 -125c0 -57 -43 -99 -107 -144l-44 -29v-2h161v-84zM952 403v-46h-904v46h904zM645 289v-84h-189l-9 -41c12 1 21 2 33 2
c44 0 187 -5 187 -127c0 -77 -63 -131 -197 -131c-63 0 -111 12 -139 24l23 77c20 -7 67 -19 112 -19c41 0 89 7 89 48c0 30 -31 53 -131 53c-29 0 -49 -3 -71 -6l29 204h263z" />
    <glyph glyph-name="Japan1.9833" 
d="M330 496l26 75c17 -7 68 -26 119 -26s81 12 81 37c0 27 -35 43 -83 43h-59v74h57c32 -1 73 10 73 37c0 22 -21 35 -67 35c-44 0 -91 -17 -109 -26l-26 73c30 18 90 34 157 34c97 0 155 -42 155 -100c0 -41 -24 -77 -85 -90v-2c56 -3 101 -35 101 -85
c0 -74 -76 -111 -189 -111c-66 0 -123 14 -151 32zM952 403v-46h-904v46h904zM645 289v-84h-189l-9 -41c12 1 21 2 33 2c44 0 187 -5 187 -127c0 -77 -63 -131 -197 -131c-63 0 -111 12 -139 24l23 77c20 -7 67 -19 112 -19c41 0 89 7 89 48c0 30 -31 53 -131 53
c-29 0 -49 -3 -71 -6l29 204h263z" />
    <glyph glyph-name="Japan1.9834" 
d="M626 466h-106v91h-200v66l156 224h150v-214h52v-76h-52v-91zM420 633h100v72c0 24 1 56 3 86h-3c-13 -24 -35 -56 -49 -79l-51 -77v-2zM952 403v-46h-904v46h904zM645 289v-84h-189l-9 -41c12 1 21 2 33 2c44 0 187 -5 187 -127c0 -77 -63 -131 -197 -131
c-63 0 -111 12 -139 24l23 77c20 -7 67 -19 112 -19c41 0 89 7 89 48c0 30 -31 53 -131 53c-29 0 -49 -3 -71 -6l29 204h263z" />
    <glyph glyph-name="Japan1.9835" 
d="M627 295v-80c-8 1 -17 1 -25 1c-102 0 -157 -28 -170 -71h1c25 18 55 26 98 26c75 0 147 -41 147 -127c0 -83 -80 -136 -172 -136c-132 0 -185 88 -185 169c0 61 25 121 74 160c49 42 106 57 198 58c10 1 25 1 34 0zM505 -15c37 0 63 21 63 56c0 37 -29 57 -71 57
c-37 0 -70 -24 -70 -50c0 -28 26 -63 78 -63zM952 403v-46h-904v46h904zM457 466v297h-2l-88 -35l-18 72l125 49h86v-383h-103z" />
    <glyph glyph-name="Japan1.9836" 
d="M627 295v-80c-8 1 -17 1 -25 1c-102 0 -157 -28 -170 -71h1c25 18 55 26 98 26c75 0 147 -41 147 -127c0 -83 -80 -136 -172 -136c-132 0 -185 88 -185 169c0 61 25 121 74 160c49 42 106 57 198 58c10 1 25 1 34 0zM952 403v-46h-904v46h904zM505 -15c37 0 63 21 63 56
c0 37 -29 57 -71 57c-37 0 -70 -24 -70 -50c0 -28 26 -63 78 -63zM645 845v-84h-189l-9 -41c12 1 21 1 33 1c76 0 187 -18 187 -127c0 -77 -63 -130 -197 -130c-63 0 -111 11 -139 24l23 77c20 -8 67 -20 112 -20c51 0 89 14 89 48c0 30 -31 53 -131 53c-29 0 -49 -2 -71 -5
l29 204h263z" />
    <glyph glyph-name="Japan1.9837" 
d="M457 466v297h-2l-88 -35l-18 72l125 49h86v-383h-103zM952 403v-46h-904v46h904zM333 287h333v-62l-184 -317h-122l188 293v2h-215v84z" />
    <glyph glyph-name="Japan1.9838" 
d="M665 468h-332v58l61 42c109 77 153 113 153 150c0 30 -21 51 -70 51c-41 0 -77 -21 -102 -40l-37 72c37 29 94 51 163 51c88 0 154 -42 154 -125c0 -57 -43 -99 -107 -144l-44 -29v-2h161v-84zM952 403v-46h-904v46h904zM333 287h333v-62l-184 -317h-122l188 293v2h-215
v84z" />
    <glyph glyph-name="Japan1.9839" 
d="M330 496l26 75c17 -7 68 -26 119 -26s81 12 81 37c0 27 -35 43 -83 43h-59v74h57c32 -1 73 10 73 37c0 22 -21 35 -67 35c-44 0 -91 -17 -109 -26l-26 73c30 18 90 34 157 34c97 0 155 -42 155 -100c0 -41 -24 -77 -85 -90v-2c56 -3 101 -35 101 -85
c0 -74 -76 -111 -189 -111c-66 0 -123 14 -151 32zM952 403v-46h-904v46h904zM333 287h333v-62l-184 -317h-122l188 293v2h-215v84z" />
    <glyph glyph-name="Japan1.9840" 
d="M626 466h-106v91h-200v66l156 224h150v-214h52v-76h-52v-91zM420 633h100v72c0 24 1 56 3 86h-3c-13 -24 -35 -56 -49 -79l-51 -77v-2zM952 403v-46h-904v46h904zM333 287h333v-62l-184 -317h-122l188 293v2h-215v84z" />
    <glyph glyph-name="Japan1.9841" 
d="M645 845v-84h-189l-9 -41c12 1 21 1 33 1c76 0 187 -18 187 -127c0 -77 -63 -130 -197 -130c-63 0 -111 11 -139 24l23 77c20 -8 67 -20 112 -20c51 0 89 14 89 48c0 30 -31 53 -131 53c-29 0 -49 -2 -71 -5l29 204h263zM952 403v-46h-904v46h904zM333 287h333v-62
l-184 -317h-122l188 293v2h-215v84z" />
    <glyph glyph-name="Japan1.9842" 
d="M627 851v-80c-8 1 -17 1 -25 1c-102 0 -157 -28 -170 -71h1c25 17 55 25 98 25c75 0 147 -41 147 -126c0 -84 -80 -136 -172 -136c-132 0 -185 87 -185 168c0 62 25 122 74 161c49 41 106 56 198 58c5 0 29 1 34 0zM505 541c38 0 63 21 63 55c0 37 -29 57 -71 57
c-35 0 -70 -22 -70 -49c0 -29 26 -63 78 -63zM952 403v-46h-904v46h904zM333 287h333v-62l-184 -317h-122l188 293v2h-215v84z" />
    <glyph glyph-name="Japan1.9843" 
d="M402 103v1c-41 16 -63 46 -63 84c0 65 69 108 162 108c128 0 157 -65 157 -98c0 -38 -26 -70 -62 -83v-1c39 -10 82 -38 82 -89c0 -66 -65 -117 -182 -117c-129 0 -174 65 -174 105c0 44 30 74 80 90zM499 225c-45 0 -57 -19 -57 -35c0 -23 30 -36 66 -43
c25 3 48 18 48 38c0 21 -17 40 -57 40zM501 -19c41 0 64 14 64 33c0 28 -27 44 -72 53c-36 -4 -56 -22 -56 -45c0 -21 27 -41 64 -41zM952 403v-46h-904v46h904zM457 466v297h-2l-88 -35l-18 72l125 49h86v-383h-103z" />
    <glyph glyph-name="Japan1.9844" 
d="M402 103v1c-41 16 -63 46 -63 84c0 65 69 108 162 108c128 0 157 -65 157 -98c0 -38 -26 -70 -62 -83v-1c39 -10 82 -38 82 -89c0 -66 -65 -117 -182 -117c-129 0 -174 65 -174 105c0 44 30 74 80 90zM499 225c-45 0 -57 -19 -57 -35c0 -23 30 -36 66 -43
c25 3 48 18 48 38c0 21 -17 40 -57 40zM501 -19c41 0 64 14 64 33c0 28 -27 44 -72 53c-36 -4 -56 -22 -56 -45c0 -21 27 -41 64 -41zM952 403v-46h-904v46h904zM330 496l26 75c17 -7 68 -26 119 -26s81 12 81 37c0 27 -35 43 -83 43h-59v74h57c32 -1 73 10 73 37
c0 22 -21 35 -67 35c-44 0 -91 -17 -109 -26l-26 73c30 18 90 34 157 34c97 0 155 -42 155 -100c0 -41 -24 -77 -85 -90v-2c56 -3 101 -35 101 -85c0 -74 -76 -111 -189 -111c-66 0 -123 14 -151 32z" />
    <glyph glyph-name="Japan1.9845" 
d="M402 103v1c-41 16 -63 46 -63 84c0 65 69 108 162 108c128 0 157 -65 157 -98c0 -38 -26 -70 -62 -83v-1c39 -10 82 -38 82 -89c0 -66 -65 -117 -182 -117c-129 0 -174 65 -174 105c0 44 30 74 80 90zM499 225c-45 0 -57 -19 -57 -35c0 -23 30 -36 66 -43
c25 3 48 18 48 38c0 21 -17 40 -57 40zM501 -19c41 0 64 14 64 33c0 28 -27 44 -72 53c-36 -4 -56 -22 -56 -45c0 -21 27 -41 64 -41zM952 403v-46h-904v46h904zM645 845v-84h-189l-9 -41c12 1 21 1 33 1c76 0 187 -18 187 -127c0 -77 -63 -130 -197 -130
c-63 0 -111 11 -139 24l23 77c20 -8 67 -20 112 -20c51 0 89 14 89 48c0 30 -31 53 -131 53c-29 0 -49 -2 -71 -5l29 204h263z" />
    <glyph glyph-name="Japan1.9846" 
d="M402 103v1c-41 16 -63 46 -63 84c0 65 69 108 162 108c128 0 157 -65 157 -98c0 -38 -26 -70 -62 -83v-1c39 -10 82 -38 82 -89c0 -66 -65 -117 -182 -117c-129 0 -174 65 -174 105c0 44 30 74 80 90zM499 225c-45 0 -57 -19 -57 -35c0 -23 30 -36 66 -43
c25 3 48 18 48 38c0 21 -17 40 -57 40zM501 -19c41 0 64 14 64 33c0 28 -27 44 -72 53c-36 -4 -56 -22 -56 -45c0 -21 27 -41 64 -41zM952 403v-46h-904v46h904zM333 845h333v-62l-184 -317h-122l188 293v2h-215v84z" />
    <glyph glyph-name="Japan1.9847" 
d="M372 -91v80c8 -1 17 -1 26 -1c101 0 155 28 170 71h-1c-26 -17 -55 -25 -99 -25c-74 0 -147 41 -147 126c0 84 80 136 172 136c132 0 185 -87 185 -168c0 -62 -25 -122 -74 -161c-49 -41 -106 -56 -197 -58c-5 0 -29 -1 -35 0zM494 219c-38 0 -63 -21 -63 -55
c0 -37 30 -57 71 -57c42 0 71 29 71 49c0 29 -26 63 -79 63zM457 466v297h-2l-88 -35l-18 72l125 49h86v-383h-103zM952 403v-46h-904v46h904z" />
    <glyph glyph-name="Japan1.9848" 
d="M372 -91v80c8 -1 17 -1 26 -1c101 0 155 28 170 71h-1c-26 -17 -55 -25 -99 -25c-74 0 -147 41 -147 126c0 84 80 136 172 136c132 0 185 -87 185 -168c0 -62 -25 -122 -74 -161c-49 -41 -106 -56 -197 -58c-5 0 -29 -1 -35 0zM494 219c-38 0 -63 -21 -63 -55
c0 -37 30 -57 71 -57c42 0 71 29 71 49c0 29 -26 63 -79 63zM665 468h-332v58l61 42c109 77 153 113 153 150c0 30 -21 51 -70 51c-41 0 -77 -21 -102 -40l-37 72c37 29 94 51 163 51c88 0 154 -42 154 -125c0 -57 -43 -99 -107 -144l-44 -29v-2h161v-84zM952 403v-46h-904
v46h904z" />
    <glyph glyph-name="Japan1.9849" 
d="M626 466h-106v91h-200v66l156 224h150v-214h52v-76h-52v-91zM420 633h100v72c0 24 1 56 3 86h-3c-13 -24 -35 -56 -49 -79l-51 -77v-2zM372 -91v80c8 -1 17 -1 26 -1c101 0 155 28 170 71h-1c-26 -17 -55 -25 -99 -25c-74 0 -147 41 -147 126c0 84 80 136 172 136
c132 0 185 -87 185 -168c0 -62 -25 -122 -74 -161c-49 -41 -106 -56 -197 -58c-5 0 -29 -1 -35 0zM494 219c-38 0 -63 -21 -63 -55c0 -37 30 -57 71 -57c42 0 71 29 71 49c0 29 -26 63 -79 63zM952 403v-46h-904v46h904z" />
    <glyph glyph-name="Japan1.9850" 
d="M372 -91v80c8 -1 17 -1 26 -1c101 0 155 28 170 71h-1c-26 -17 -55 -25 -99 -25c-74 0 -147 41 -147 126c0 84 80 136 172 136c132 0 185 -87 185 -168c0 -62 -25 -122 -74 -161c-49 -41 -106 -56 -197 -58c-5 0 -29 -1 -35 0zM494 219c-38 0 -63 -21 -63 -55
c0 -37 30 -57 71 -57c42 0 71 29 71 49c0 29 -26 63 -79 63zM645 845v-84h-189l-9 -41c12 1 21 1 33 1c76 0 187 -18 187 -127c0 -77 -63 -130 -197 -130c-63 0 -111 11 -139 24l23 77c20 -8 67 -20 112 -20c51 0 89 14 89 48c0 30 -31 53 -131 53c-29 0 -49 -2 -71 -5
l29 204h263zM952 403v-46h-904v46h904z" />
    <glyph glyph-name="Japan1.9851" 
d="M372 -91v80c8 -1 17 -1 26 -1c101 0 155 28 170 71h-1c-26 -17 -55 -25 -99 -25c-74 0 -147 41 -147 126c0 84 80 136 172 136c132 0 185 -87 185 -168c0 -62 -25 -122 -74 -161c-49 -41 -106 -56 -197 -58c-5 0 -29 -1 -35 0zM494 219c-38 0 -63 -21 -63 -55
c0 -37 30 -57 71 -57c42 0 71 29 71 49c0 29 -26 63 -79 63zM333 845h333v-62l-184 -317h-122l188 293v2h-215v84zM952 403v-46h-904v46h904z" />
    <glyph glyph-name="Japan1.9852" 
d="M402 659v1c-41 16 -63 46 -63 83c0 65 69 109 162 109c128 0 157 -66 157 -98c0 -38 -26 -71 -62 -83v-2c39 -9 82 -37 82 -89c0 -66 -65 -116 -182 -116c-129 0 -174 65 -174 104c0 45 30 74 80 91zM499 780c-47 0 -57 -20 -57 -34c0 -23 30 -37 66 -43
c25 3 48 17 48 38c0 20 -17 39 -57 39zM501 537c41 0 64 14 64 33c0 27 -27 44 -72 52c-36 -3 -56 -22 -56 -44s27 -41 64 -41zM372 -91v80c8 -1 17 -1 26 -1c101 0 155 28 170 71h-1c-26 -17 -55 -25 -99 -25c-74 0 -147 41 -147 126c0 84 80 136 172 136
c132 0 185 -87 185 -168c0 -62 -25 -122 -74 -161c-49 -41 -106 -56 -197 -58c-5 0 -29 -1 -35 0zM494 219c-38 0 -63 -21 -63 -55c0 -37 30 -57 71 -57c42 0 71 29 71 49c0 29 -26 63 -79 63zM952 403v-46h-904v46h904z" />
    <glyph glyph-name="Japan1.9853" 
d="M607 -92c-118 0 -175 84 -175 194c0 107 55 194 175 194s177 -82 177 -193c0 -100 -47 -195 -177 -195zM607 -18c52 0 69 58 69 122c0 80 -26 118 -68 118c-41 0 -68 -39 -68 -118c0 -82 27 -122 67 -122zM457 466v297h-2l-88 -35l-18 72l125 49h86v-383h-103zM952 403
v-46h-904v46h904zM286 -89v297h-2l-88 -36l-18 73l125 49h86v-383h-103z" />
    <glyph glyph-name="Japan1.9854" 
d="M607 -92c-118 0 -175 84 -175 194c0 107 55 194 175 194s177 -82 177 -193c0 -100 -47 -195 -177 -195zM607 -18c52 0 69 58 69 122c0 80 -26 118 -68 118c-41 0 -68 -39 -68 -118c0 -82 27 -122 67 -122zM569 662v-2c56 -3 101 -35 101 -85c0 -74 -76 -111 -189 -111
c-66 0 -123 14 -151 32l26 75c17 -7 68 -26 119 -26s81 12 81 37c0 27 -35 43 -83 43h-59v74h57c32 -1 73 10 73 37c0 22 -21 35 -67 35c-44 0 -91 -17 -109 -26l-26 73c30 18 90 34 157 34c97 0 155 -42 155 -100c0 -41 -24 -77 -85 -90zM952 403v-46h-904v46h904zM286 -89
v297h-2l-88 -36l-18 73l125 49h86v-383h-103z" />
    <glyph glyph-name="Japan1.9855" 
d="M607 -92c-118 0 -175 84 -175 194c0 107 55 194 175 194s177 -82 177 -193c0 -100 -47 -195 -177 -195zM607 -18c52 0 69 58 69 122c0 80 -26 118 -68 118c-41 0 -68 -39 -68 -118c0 -82 27 -122 67 -122zM333 845h333v-62l-184 -317h-122l188 293v2h-215v84zM952 403
v-46h-904v46h904zM286 -89v297h-2l-88 -36l-18 73l125 49h86v-383h-103z" />
    <glyph glyph-name="Japan1.9856" 
d="M568 615h-1c-26 -18 -55 -26 -99 -26c-74 0 -147 41 -147 127c0 83 80 136 172 136c132 0 185 -88 185 -169c0 -61 -25 -121 -74 -160c-49 -42 -106 -57 -197 -58c-11 -1 -25 -1 -35 0v80c8 -1 17 -1 26 -1c101 0 155 27 170 71zM494 775c-37 0 -63 -21 -63 -56
c0 -37 30 -57 71 -57c44 0 71 31 71 50c0 28 -26 63 -79 63zM952 403v-46h-904v46h904zM607 -92c-118 0 -175 84 -175 194c0 107 55 194 175 194s177 -82 177 -193c0 -100 -47 -195 -177 -195zM607 -18c52 0 69 58 69 122c0 80 -26 118 -68 118c-41 0 -68 -39 -68 -118
c0 -82 27 -122 67 -122zM286 -89v297h-2l-88 -36l-18 73l125 49h86v-383h-103z" />
    <glyph glyph-name="Japan1.9857" 
d="M457 466v297h-2l-88 -35l-18 72l125 49h86v-383h-103zM952 403v-46h-904v46h904zM295 -89v297h-2l-88 -36l-18 73l125 49h85v-383h-102zM650 -89v297h-2l-88 -36l-18 73l125 49h86v-383h-103z" />
    <glyph glyph-name="Japan1.9858" 
d="M665 468h-332v58l61 42c109 77 153 113 153 150c0 30 -21 51 -70 51c-41 0 -77 -21 -102 -40l-37 72c37 29 94 51 163 51c88 0 154 -42 154 -125c0 -57 -43 -99 -107 -144l-44 -29v-2h161v-84zM952 403v-46h-904v46h904zM295 -89v297h-2l-88 -36l-18 73l125 49h85v-383
h-102zM650 -89v297h-2l-88 -36l-18 73l125 49h86v-383h-103z" />
    <glyph glyph-name="Japan1.9859" 
d="M330 496l26 75c17 -7 68 -26 119 -26s81 12 81 37c0 27 -35 43 -83 43h-59v74h57c32 -1 73 10 73 37c0 22 -21 35 -67 35c-44 0 -91 -17 -109 -26l-26 73c30 18 90 34 157 34c97 0 155 -42 155 -100c0 -41 -24 -77 -85 -90v-2c56 -3 101 -35 101 -85
c0 -74 -76 -111 -189 -111c-66 0 -123 14 -151 32zM952 403v-46h-904v46h904zM295 -89v297h-2l-88 -36l-18 73l125 49h85v-383h-102zM650 -89v297h-2l-88 -36l-18 73l125 49h86v-383h-103z" />
    <glyph glyph-name="Japan1.9860" 
d="M626 466h-106v91h-200v66l156 224h150v-214h52v-76h-52v-91zM420 633h100v72c0 24 1 56 3 86h-3c-13 -24 -35 -56 -49 -79l-51 -77v-2zM952 403v-46h-904v46h904zM295 -89v297h-2l-88 -36l-18 73l125 49h85v-383h-102zM650 -89v297h-2l-88 -36l-18 73l125 49h86v-383
h-103z" />
    <glyph glyph-name="Japan1.9861" 
d="M645 845v-84h-189l-9 -41c12 1 21 1 33 1c76 0 187 -18 187 -127c0 -77 -63 -130 -197 -130c-63 0 -111 11 -139 24l23 77c20 -8 67 -20 112 -20c51 0 89 14 89 48c0 30 -31 53 -131 53c-29 0 -49 -2 -71 -5l29 204h263zM952 403v-46h-904v46h904zM295 -89v297h-2
l-88 -36l-18 73l125 49h85v-383h-102zM650 -89v297h-2l-88 -36l-18 73l125 49h86v-383h-103z" />
    <glyph glyph-name="Japan1.9862" 
d="M627 851v-80c-8 1 -17 1 -25 1c-102 0 -157 -28 -170 -71h1c25 17 55 25 98 25c75 0 147 -41 147 -126c0 -84 -80 -136 -172 -136c-132 0 -185 87 -185 168c0 62 25 122 74 161c49 41 106 56 198 58c5 0 29 1 34 0zM505 541c38 0 63 21 63 55c0 37 -29 57 -71 57
c-35 0 -70 -22 -70 -49c0 -29 26 -63 78 -63zM952 403v-46h-904v46h904zM295 -89v297h-2l-88 -36l-18 73l125 49h85v-383h-102zM650 -89v297h-2l-88 -36l-18 73l125 49h86v-383h-103z" />
    <glyph glyph-name="Japan1.9863" 
d="M333 845h333v-62l-184 -317h-122l188 293v2h-215v84zM952 403v-46h-904v46h904zM295 -89v297h-2l-88 -36l-18 73l125 49h85v-383h-102zM650 -89v297h-2l-88 -36l-18 73l125 49h86v-383h-103z" />
    <glyph glyph-name="Japan1.9864" 
d="M402 659v1c-41 16 -63 46 -63 83c0 65 69 109 162 109c128 0 157 -66 157 -98c0 -38 -26 -71 -62 -83v-2c39 -9 82 -37 82 -89c0 -66 -65 -116 -182 -116c-129 0 -174 65 -174 104c0 45 30 74 80 91zM499 780c-47 0 -57 -20 -57 -34c0 -23 30 -37 66 -43
c25 3 48 17 48 38c0 20 -17 39 -57 39zM501 537c41 0 64 14 64 33c0 27 -27 44 -72 52c-36 -3 -56 -22 -56 -44s27 -41 64 -41zM952 403v-46h-904v46h904zM295 -89v297h-2l-88 -36l-18 73l125 49h85v-383h-102zM650 -89v297h-2l-88 -36l-18 73l125 49h86v-383h-103z" />
    <glyph glyph-name="Japan1.9865" 
d="M372 465v80c8 -1 17 -1 26 -1c101 0 155 27 170 71h-1c-26 -18 -55 -26 -99 -26c-74 0 -147 41 -147 127c0 83 80 136 172 136c132 0 185 -88 185 -169c0 -61 -25 -121 -74 -160c-49 -42 -106 -57 -197 -58c-11 -1 -25 -1 -35 0zM494 775c-37 0 -63 -21 -63 -56
c0 -37 30 -57 71 -57c44 0 71 31 71 50c0 28 -26 63 -79 63zM952 403v-46h-904v46h904zM295 -89v297h-2l-88 -36l-18 73l125 49h85v-383h-102zM650 -89v297h-2l-88 -36l-18 73l125 49h86v-383h-103z" />
    <glyph glyph-name="Japan1.9866" 
d="M607 464c-118 0 -175 83 -175 194c0 107 55 194 175 194s177 -83 177 -193c0 -101 -47 -195 -177 -195zM607 538c54 0 69 61 69 121c0 80 -26 119 -68 119c-41 0 -68 -39 -68 -119c0 -81 27 -121 67 -121zM286 466v297h-2l-88 -35l-18 72l125 49h86v-383h-103zM952 403
v-46h-904v46h904zM295 -89v297h-2l-88 -36l-18 73l125 49h85v-383h-102zM650 -89v297h-2l-88 -36l-18 73l125 49h86v-383h-103z" />
    <glyph glyph-name="Japan1.9867" 
d="M952 403v-46h-904v46h904zM797 -88h-333v59l61 42c109 77 153 113 153 149c0 31 -20 52 -70 52c-40 0 -77 -21 -102 -40l-37 72c37 29 94 50 163 50c88 0 155 -42 155 -125c0 -56 -44 -98 -108 -143l-44 -30v-1h162v-85zM457 466v297h-2l-88 -35l-18 72l125 49h86v-383
h-103zM308 -89v297h-2l-88 -36l-18 73l125 49h86v-383h-103z" />
    <glyph glyph-name="Japan1.9868" 
d="M952 403v-46h-904v46h904zM797 -88h-333v59l61 42c109 77 153 113 153 149c0 31 -20 52 -70 52c-40 0 -77 -21 -102 -40l-37 72c37 29 94 50 163 50c88 0 155 -42 155 -125c0 -56 -44 -98 -108 -143l-44 -30v-1h162v-85zM645 845v-84h-189l-9 -41c12 1 21 1 33 1
c76 0 187 -18 187 -127c0 -77 -63 -130 -197 -130c-63 0 -111 11 -139 24l23 77c20 -8 67 -20 112 -20c51 0 89 14 89 48c0 30 -31 53 -131 53c-29 0 -49 -2 -71 -5l29 204h263zM308 -89v297h-2l-88 -36l-18 73l125 49h86v-383h-103z" />
    <glyph glyph-name="Japan1.9869" 
d="M952 403v-46h-904v46h904zM797 -88h-333v59l61 42c109 77 153 113 153 149c0 31 -20 52 -70 52c-40 0 -77 -21 -102 -40l-37 72c37 29 94 50 163 50c88 0 155 -42 155 -125c0 -56 -44 -98 -108 -143l-44 -30v-1h162v-85zM333 845h333v-62l-184 -317h-122l188 293v2h-215
v84zM308 -89v297h-2l-88 -36l-18 73l125 49h86v-383h-103z" />
    <glyph glyph-name="Japan1.9870" 
d="M952 403v-46h-904v46h904zM797 -88h-333v59l61 42c109 77 153 113 153 149c0 31 -20 52 -70 52c-40 0 -77 -21 -102 -40l-37 72c37 29 94 50 163 50c88 0 155 -42 155 -125c0 -56 -44 -98 -108 -143l-44 -30v-1h162v-85zM292 466v297h-2l-88 -35l-18 72l126 49h85v-383
h-103zM648 466v297h-2l-88 -35l-18 72l125 49h86v-383h-103zM308 -89v297h-2l-88 -36l-18 73l125 49h86v-383h-103z" />
    <glyph glyph-name="Japan1.9871" 
d="M454 -18c21 0 35 17 35 122c0 80 -8 118 -35 118c-23 0 -32 -38 -32 -118c0 -83 8 -122 32 -122zM952 403v-46h-904v46h904zM751 -18c22 0 36 19 36 122c0 80 -9 118 -35 118c-24 0 -33 -38 -33 -118c0 -83 9 -122 32 -122zM455 -92c-79 0 -132 48 -132 194
c0 114 33 194 132 194c97 0 132 -75 132 -193c0 -107 -27 -195 -132 -195zM752 -92c-79 0 -132 48 -132 194c0 114 33 194 132 194c98 0 133 -75 133 -193c0 -107 -28 -195 -133 -195zM457 466v297h-2l-88 -35l-18 72l125 49h86v-383h-103zM185 -89v297h-2l-65 -27l-18 72
l102 41h78v-383h-95z" />
    <glyph glyph-name="Japan1.9872" 
d="M501 -11c-163 0 -223 189 -223 386c0 228 79 394 227 394c168 0 217 -191 217 -386c0 -270 -98 -394 -221 -394zM503 107c60 0 85 93 85 271c0 171 -22 273 -85 273c-91 0 -91 -221 -91 -287c0 -174 30 -257 91 -257z" />
    <glyph glyph-name="Japan1.9873" 
d="M494 -3v633h-2l-132 -71l-39 100l187 102h118v-764h-132z" />
    <glyph glyph-name="Japan1.9874" 
d="M710 0h-421v91l72 94c137 178 207 276 207 364c0 58 -31 103 -93 103c-45 0 -87 -32 -117 -70l-59 90c45 58 108 97 197 97c142 0 204 -98 204 -194c0 -144 -79 -242 -205 -398l-42 -54v-3h257v-120z" />
    <glyph glyph-name="Japan1.9875" 
d="M348 615l-35 94c52 38 108 60 173 60c139 0 204 -92 204 -189c0 -91 -45 -148 -119 -178v-2c83 -20 143 -88 143 -186c0 -117 -76 -225 -238 -225c-68 0 -139 19 -190 65l43 102c43 -33 80 -50 133 -50c82 0 118 56 118 116c0 82 -67 118 -164 118h-31v104h27
c71 0 146 33 146 112c0 54 -29 102 -93 102c-43 0 -82 -16 -117 -43z" />
    <glyph glyph-name="Japan1.9876" 
d="M658 -3h-119v170h-274v88l258 506h135v-484h77v-110h-77v-170zM380 277h159v206c0 32 3 83 6 120h-3c-18 -39 -33 -74 -52 -112l-110 -211v-3z" />
    <glyph glyph-name="Japan1.9877" 
d="M692 758v-120h-217l-21 -152c10 1 20 2 34 2c74 0 216 -52 216 -233c0 -148 -100 -266 -260 -266c-60 0 -119 17 -149 35l23 108c28 -15 71 -30 118 -30c82 0 136 55 136 139c0 103 -74 147 -173 147c-26 0 -48 -1 -66 -4l43 374h316z" />
    </font>
</defs>
</svg>
